<svg width="210" height="307" viewBox="0 0 210 307" fill="none" xmlns="http://www.w3.org/2000/svg">
<path d="M0.887852 10.0002V2.17623H3.51585C4.05985 2.17623 4.54785 2.23623 4.97985 2.35623C5.41185 2.46823 5.75185 2.66423 5.99985 2.94423C6.25585 3.22423 6.38385 3.61623 6.38385 4.12023C6.38385 4.47223 6.27585 4.81223 6.05985 5.14023C5.84385 5.46823 5.50385 5.69223 5.03985 5.81223V5.86023C5.59985 5.95623 6.02385 6.15623 6.31185 6.46023C6.59985 6.75623 6.74385 7.16823 6.74385 7.69623C6.74385 8.22423 6.61185 8.66023 6.34785 9.00423C6.08385 9.34023 5.72385 9.59223 5.26785 9.76023C4.81985 9.92023 4.31185 10.0002 3.74385 10.0002H0.887852ZM2.65185 5.32023H3.43185C3.86385 5.32023 4.17585 5.23623 4.36785 5.06823C4.55985 4.89223 4.65585 4.65623 4.65585 4.36023C4.65585 4.07223 4.55585 3.86823 4.35585 3.74823C4.16385 3.62023 3.85985 3.55623 3.44385 3.55623H2.65185V5.32023ZM2.65185 8.62023H3.59985C4.07985 8.62023 4.43585 8.53223 4.66785 8.35623C4.89985 8.18023 5.01585 7.91623 5.01585 7.56423C5.01585 7.22023 4.89985 6.97223 4.66785 6.82023C4.43585 6.66823 4.07985 6.59223 3.59985 6.59223H2.65185V8.62023Z" fill="white"/>
<path d="M11.1552 10.1442C10.5392 10.1442 9.97916 10.0242 9.47516 9.78423C8.97916 9.53623 8.58316 9.18023 8.28716 8.71623C7.99916 8.24423 7.85516 7.68023 7.85516 7.02423C7.85516 6.37623 8.00316 5.82023 8.29916 5.35623C8.59516 4.88423 8.97916 4.52423 9.45116 4.27623C9.92316 4.02823 10.4232 3.90423 10.9512 3.90423C11.5672 3.90423 12.0832 4.03223 12.4992 4.28823C12.9152 4.53623 13.2272 4.87623 13.4352 5.30823C13.6512 5.73223 13.7592 6.21623 13.7592 6.76023C13.7592 6.92023 13.7472 7.07623 13.7232 7.22823C13.7072 7.37223 13.6912 7.48023 13.6752 7.55223H9.16316V6.36423H12.4872L12.2112 6.70023C12.2112 6.22023 12.1072 5.86023 11.8992 5.62023C11.6992 5.37223 11.4032 5.24823 11.0112 5.24823C10.7232 5.24823 10.4712 5.31223 10.2552 5.44023C10.0392 5.56823 9.87116 5.76423 9.75116 6.02823C9.63116 6.29223 9.57116 6.62423 9.57116 7.02423C9.57116 7.43223 9.64316 7.76823 9.78716 8.03223C9.93116 8.28823 10.1392 8.48023 10.4112 8.60823C10.6832 8.73623 11.0112 8.80023 11.3952 8.80023C11.6672 8.80023 11.9232 8.76423 12.1632 8.69223C12.4112 8.62023 12.6672 8.51623 12.9312 8.38023L13.5192 9.44823C13.1752 9.66423 12.7952 9.83623 12.3792 9.96423C11.9632 10.0842 11.5552 10.1442 11.1552 10.1442Z" fill="white"/>
<path d="M17.9425 10.1442C17.4145 10.1442 16.8905 10.0562 16.3705 9.88023C15.8505 9.69623 15.4025 9.48023 15.0265 9.23223L15.7825 8.12823C16.1425 8.36023 16.5225 8.53623 16.9225 8.65623C17.3305 8.77623 17.7505 8.83623 18.1825 8.83623C18.5105 8.83623 18.7505 8.78823 18.9025 8.69223C19.0545 8.58823 19.1305 8.46823 19.1305 8.33223C19.1305 8.24423 19.1065 8.17223 19.0585 8.11623C19.0185 8.05223 18.9425 7.99623 18.8305 7.94823C18.7265 7.89223 18.5785 7.84023 18.3865 7.79223C18.2025 7.74423 17.9625 7.68823 17.6665 7.62423C16.8585 7.44823 16.2785 7.20823 15.9265 6.90423C15.5745 6.60023 15.3985 6.22023 15.3985 5.76423C15.3985 5.20423 15.6425 4.75623 16.1305 4.42023C16.6185 4.07623 17.2865 3.90423 18.1345 3.90423C18.6705 3.90423 19.1545 3.99223 19.5865 4.16823C20.0265 4.33623 20.4025 4.52023 20.7145 4.72023L19.9225 5.77623C19.6265 5.59223 19.3105 5.45223 18.9745 5.35623C18.6385 5.26023 18.3065 5.21223 17.9785 5.21223C17.7945 5.21223 17.6425 5.23223 17.5225 5.27223C17.4025 5.30423 17.3105 5.36023 17.2465 5.44023C17.1825 5.51223 17.1505 5.59223 17.1505 5.68023C17.1505 5.84023 17.2545 5.96023 17.4625 6.04023C17.6705 6.11223 18.0265 6.20423 18.5305 6.31623C19.1385 6.45223 19.6145 6.60823 19.9585 6.78423C20.3025 6.96023 20.5385 7.16423 20.6665 7.39623C20.8025 7.62023 20.8705 7.89623 20.8705 8.22423C20.8705 8.58423 20.7585 8.90823 20.5345 9.19623C20.3185 9.48423 19.9905 9.71623 19.5505 9.89223C19.1185 10.0602 18.5825 10.1442 17.9425 10.1442Z" fill="white"/>
<path d="M26.2418 10.1442C25.6098 10.1442 25.1058 10.0362 24.7298 9.82023C24.3618 9.59623 24.0938 9.28823 23.9258 8.89623C23.7578 8.50423 23.6738 8.04823 23.6738 7.52823V5.42823H22.1858V4.12023L23.7578 4.04823L23.9858 2.22423H25.4378V4.04823H27.9578V5.42823H25.4378V7.51623C25.4378 7.81223 25.4818 8.05223 25.5698 8.23623C25.6578 8.42023 25.7938 8.55623 25.9778 8.64423C26.1618 8.72423 26.3978 8.76423 26.6858 8.76423C26.9178 8.76423 27.1298 8.74423 27.3218 8.70423C27.5138 8.66423 27.6978 8.61223 27.8738 8.54823L28.1858 9.82023C27.9218 9.90023 27.6298 9.97223 27.3098 10.0362C26.9978 10.1082 26.6418 10.1442 26.2418 10.1442Z" fill="white"/>
<path d="M40.2484 10.1442C39.7604 10.1442 39.2964 10.0602 38.8564 9.89223C38.4244 9.72423 38.0404 9.47223 37.7044 9.13623C37.3684 8.79223 37.1044 8.37223 36.9124 7.87623C36.7204 7.37223 36.6244 6.79223 36.6244 6.13623C36.6244 5.27223 36.7884 4.53623 37.1164 3.92823C37.4524 3.31223 37.9004 2.84423 38.4604 2.52423C39.0284 2.19623 39.6604 2.03223 40.3564 2.03223C40.8524 2.03223 41.3004 2.13623 41.7004 2.34423C42.1004 2.54423 42.4324 2.77223 42.6964 3.02823L41.7244 4.12023C41.5404 3.94423 41.3364 3.80823 41.1124 3.71223C40.8964 3.60823 40.6444 3.55623 40.3564 3.55623C39.9884 3.55623 39.6604 3.66023 39.3724 3.86823C39.0844 4.06823 38.8564 4.35623 38.6884 4.73223C38.5204 5.10823 38.4364 5.55623 38.4364 6.07623C38.4364 6.61223 38.5204 7.07223 38.6884 7.45623C38.8564 7.83223 39.0884 8.12023 39.3844 8.32023C39.6884 8.52023 40.0364 8.62023 40.4284 8.62023C40.7164 8.62023 40.9764 8.55623 41.2084 8.42823C41.4404 8.30023 41.6524 8.13223 41.8444 7.92423L42.8164 8.99223C42.4964 9.36823 42.1204 9.65623 41.6884 9.85623C41.2564 10.0482 40.7764 10.1442 40.2484 10.1442Z" fill="white"/>
<path d="M45.8597 10.1442C45.4597 10.1442 45.1117 10.0642 44.8157 9.90423C44.5277 9.74423 44.3037 9.52823 44.1437 9.25623C43.9837 8.98423 43.9037 8.68023 43.9037 8.34423C43.9037 7.68023 44.2037 7.17223 44.8037 6.82023C45.4117 6.46823 46.4197 6.25223 47.8277 6.17223C47.8037 5.98823 47.7437 5.83223 47.6477 5.70423C47.5517 5.57623 47.4117 5.48023 47.2277 5.41623C47.0517 5.34423 46.8277 5.30823 46.5557 5.30823C46.3637 5.30823 46.1717 5.33223 45.9797 5.38023C45.7877 5.42023 45.5877 5.48423 45.3797 5.57223C45.1797 5.65223 44.9677 5.74823 44.7437 5.86023L44.1197 4.70823C44.3917 4.54823 44.6757 4.40823 44.9717 4.28823C45.2757 4.16823 45.5877 4.07623 45.9077 4.01223C46.2357 3.94023 46.5677 3.90423 46.9037 3.90423C47.4637 3.90423 47.9437 4.00423 48.3437 4.20423C48.7437 4.39623 49.0517 4.69223 49.2677 5.09223C49.4837 5.48423 49.5917 5.98423 49.5917 6.59223V10.0002H48.1517L48.0197 9.32823H47.9717C47.6757 9.55223 47.3477 9.74423 46.9877 9.90423C46.6277 10.0642 46.2517 10.1442 45.8597 10.1442ZM46.4237 8.77623C46.6877 8.77623 46.9357 8.72423 47.1677 8.62023C47.3997 8.50823 47.6197 8.37223 47.8277 8.21223V7.22823C47.2437 7.26023 46.7877 7.32023 46.4597 7.40823C46.1397 7.49623 45.9157 7.60823 45.7877 7.74423C45.6597 7.88023 45.5957 8.03623 45.5957 8.21223C45.5957 8.33223 45.6277 8.43623 45.6917 8.52423C45.7637 8.61223 45.8597 8.67623 45.9797 8.71623C46.1077 8.75623 46.2557 8.77623 46.4237 8.77623Z" fill="white"/>
<path d="M53.919 10.1442C53.391 10.1442 52.867 10.0562 52.347 9.88023C51.827 9.69623 51.379 9.48023 51.003 9.23223L51.759 8.12823C52.119 8.36023 52.499 8.53623 52.899 8.65623C53.307 8.77623 53.727 8.83623 54.159 8.83623C54.487 8.83623 54.727 8.78823 54.879 8.69223C55.031 8.58823 55.107 8.46823 55.107 8.33223C55.107 8.24423 55.083 8.17223 55.035 8.11623C54.995 8.05223 54.919 7.99623 54.807 7.94823C54.703 7.89223 54.555 7.84023 54.363 7.79223C54.179 7.74423 53.939 7.68823 53.643 7.62423C52.835 7.44823 52.255 7.20823 51.903 6.90423C51.551 6.60023 51.375 6.22023 51.375 5.76423C51.375 5.20423 51.619 4.75623 52.107 4.42023C52.595 4.07623 53.263 3.90423 54.111 3.90423C54.647 3.90423 55.131 3.99223 55.563 4.16823C56.003 4.33623 56.379 4.52023 56.691 4.72023L55.899 5.77623C55.603 5.59223 55.287 5.45223 54.951 5.35623C54.615 5.26023 54.283 5.21223 53.955 5.21223C53.771 5.21223 53.619 5.23223 53.499 5.27223C53.379 5.30423 53.287 5.36023 53.223 5.44023C53.159 5.51223 53.127 5.59223 53.127 5.68023C53.127 5.84023 53.231 5.96023 53.439 6.04023C53.647 6.11223 54.003 6.20423 54.507 6.31623C55.115 6.45223 55.591 6.60823 55.935 6.78423C56.279 6.96023 56.515 7.16423 56.643 7.39623C56.779 7.62023 56.847 7.89623 56.847 8.22423C56.847 8.58423 56.735 8.90823 56.511 9.19623C56.295 9.48423 55.967 9.71623 55.527 9.89223C55.095 10.0602 54.559 10.1442 53.919 10.1442Z" fill="white"/>
<path d="M61.5224 10.1442C60.9063 10.1442 60.3464 10.0242 59.8424 9.78423C59.3464 9.53623 58.9504 9.18023 58.6544 8.71623C58.3664 8.24423 58.2224 7.68023 58.2224 7.02423C58.2224 6.37623 58.3703 5.82023 58.6664 5.35623C58.9624 4.88423 59.3464 4.52423 59.8184 4.27623C60.2904 4.02823 60.7904 3.90423 61.3184 3.90423C61.9344 3.90423 62.4504 4.03223 62.8664 4.28823C63.2824 4.53623 63.5944 4.87623 63.8024 5.30823C64.0184 5.73223 64.1264 6.21623 64.1264 6.76023C64.1264 6.92023 64.1144 7.07623 64.0904 7.22823C64.0744 7.37223 64.0584 7.48023 64.0424 7.55223H59.5303V6.36423H62.8544L62.5784 6.70023C62.5784 6.22023 62.4743 5.86023 62.2663 5.62023C62.0663 5.37223 61.7704 5.24823 61.3784 5.24823C61.0904 5.24823 60.8384 5.31223 60.6224 5.44023C60.4064 5.56823 60.2383 5.76423 60.1184 6.02823C59.9984 6.29223 59.9384 6.62423 59.9384 7.02423C59.9384 7.43223 60.0103 7.76823 60.1544 8.03223C60.2984 8.28823 60.5064 8.48023 60.7784 8.60823C61.0504 8.73623 61.3784 8.80023 61.7624 8.80023C62.0344 8.80023 62.2904 8.76423 62.5304 8.69223C62.7784 8.62023 63.0344 8.51623 63.2984 8.38023L63.8864 9.44823C63.5424 9.66423 63.1624 9.83623 62.7464 9.96423C62.3304 10.0842 61.9224 10.1442 61.5224 10.1442Z" fill="white"/>
<path d="M3.18149 36.8772C3.18149 34.6506 3.8436 32.2541 5.16782 29.6877C6.50376 27.1096 8.16782 25.1409 10.16 23.7815C12.1522 22.4221 14.0799 21.7424 15.9432 21.7424C16.9159 21.7424 17.9881 22.0002 19.16 22.5159C20.3436 23.0315 21.369 24.051 22.2362 25.5744C23.1151 27.0979 23.5545 28.9494 23.5545 31.1291C23.5545 34.926 22.2596 38.4241 19.6698 41.6233C17.0799 44.8225 14.2499 46.4221 11.1795 46.4221C8.89438 46.4221 6.99009 45.5901 5.46665 43.926C3.94321 42.2619 3.18149 39.9123 3.18149 36.8772ZM6.32798 38.6526C6.32798 40.3166 6.48618 41.5998 6.80259 42.5022C7.11899 43.4045 7.65219 44.1545 8.40219 44.7522C9.15219 45.3498 10.0545 45.6487 11.1092 45.6487C12.7616 45.6487 14.2967 44.8342 15.7147 43.2053C17.1444 41.5764 18.3163 39.303 19.2303 36.385C20.1444 33.467 20.6014 30.9768 20.6014 28.9143C20.6014 26.8049 20.1561 25.2229 19.2655 24.1682C18.3866 23.1018 17.2557 22.5686 15.8729 22.5686C14.2557 22.5686 12.7264 23.3479 11.285 24.9065C9.8436 26.4651 8.65415 28.6389 7.71665 31.428C6.79087 34.217 6.32798 36.6252 6.32798 38.6526Z" fill="white"/>
<path d="M32.4315 54.5959H31.2186C27.3045 49.7327 25.3475 44.1721 25.3475 37.9143C25.3475 31.9963 27.2401 26.6701 31.0252 21.9358H32.2381C30.3749 23.9866 28.9393 26.4065 27.9315 29.1955C26.9354 31.9846 26.4374 34.8498 26.4374 37.7912C26.4374 41.4358 27.0174 44.7229 28.1776 47.6526C29.3495 50.594 30.7674 52.9084 32.4315 54.5959Z" fill="white"/>
<path d="M46.1249 42.6955H47.0213C46.3182 43.9612 45.5975 44.9104 44.8592 45.5432C44.1327 46.176 43.3885 46.4924 42.6268 46.4924C42.0995 46.4924 41.6424 46.3284 41.2557 46.0002C40.8807 45.6838 40.6932 45.2092 40.6932 44.5764C40.6932 44.0491 40.9627 43.0061 41.5018 41.4475L43.3827 36.0862C43.8866 34.6213 44.1385 33.6721 44.1385 33.2385C44.1385 32.8518 44.0506 32.5647 43.8749 32.3772C43.7108 32.1897 43.453 32.0959 43.1014 32.0959C42.2108 32.0959 41.0448 33.1448 39.6034 35.2424C38.1737 37.3284 36.9432 40.0647 35.912 43.4514L35.0506 46.2639H32.9061L35.9999 36.2795C36.5624 34.4397 36.8436 33.385 36.8436 33.1155C36.8436 32.9162 36.8084 32.7698 36.7381 32.676C36.6678 32.5823 36.5565 32.5354 36.4041 32.5354C35.7127 32.5354 34.8924 33.3909 33.9432 35.1018H33.1346C34.5995 32.4416 35.9881 31.1116 37.3006 31.1116C37.7577 31.1116 38.0975 31.2522 38.3202 31.5334C38.5545 31.803 38.6717 32.219 38.6717 32.7815C38.6717 33.7893 38.2791 35.3479 37.494 37.4573C39.6151 33.2268 41.6776 31.1116 43.6815 31.1116C44.326 31.1116 44.8885 31.3284 45.369 31.7619C45.8495 32.1838 46.0897 32.8049 46.0897 33.6252C46.0897 34.1526 45.8495 35.1369 45.369 36.5784L43.4881 42.1858C42.9842 43.6975 42.7323 44.5412 42.7323 44.717C42.7323 44.9397 42.785 45.1096 42.8905 45.2268C43.0077 45.3323 43.1717 45.385 43.3827 45.385C43.7811 45.385 44.2088 45.1623 44.6659 44.717C45.1229 44.26 45.6092 43.5862 46.1249 42.6955Z" fill="white"/>
<path d="M48.7967 34.6623V33.9592C53.0624 30.7717 55.1952 28.094 55.1952 25.926C55.1952 24.9768 54.9784 24.2678 54.5448 23.7991C54.1112 23.3303 53.4549 23.0959 52.576 23.0959C51.8612 23.0959 51.3045 23.301 50.9061 23.7112C50.5194 24.1213 50.326 24.5725 50.326 25.0647C50.326 25.6506 50.6249 26.1018 51.2225 26.4182C51.3866 26.5119 51.4686 26.6057 51.4686 26.6994C51.4686 26.8166 51.3338 26.9866 51.0643 27.2092C50.8065 27.4319 50.5604 27.5432 50.326 27.5432C49.9862 27.5432 49.6639 27.3323 49.3592 26.9104C49.0663 26.4768 48.9198 26.0022 48.9198 25.4866C48.9198 24.5959 49.3358 23.8576 50.1678 23.2717C51.0116 22.6858 51.9784 22.3928 53.0682 22.3928C54.2284 22.3928 55.2303 22.6975 56.0741 23.3069C56.9178 23.9162 57.3397 24.7717 57.3397 25.8733C57.3397 26.7991 56.8651 27.801 55.9159 28.8791C54.9784 29.9455 53.2674 31.4397 50.7831 33.3616H57.2166L56.5487 35.594H55.6698C55.7284 35.2424 55.7577 35.0315 55.7577 34.9612C55.7577 34.7619 55.5409 34.6623 55.1073 34.6623H48.7967Z" fill="white"/>
<path d="M59.0968 54.5959C60.7491 52.9084 62.1554 50.594 63.3156 47.6526C64.4874 44.7229 65.0734 41.4358 65.0734 37.7912C65.0734 34.9905 64.5988 32.1897 63.6495 29.3889C62.7003 26.5881 61.2413 24.1037 59.2726 21.9358H60.5031C64.2882 26.6701 66.1808 31.9963 66.1808 37.9143C66.1808 44.1721 64.2238 49.7327 60.3097 54.5959H59.0968Z" fill="white"/>
<path d="M0.107852 94.0002L2.54385 86.1762H4.65585L7.09185 94.0002H5.21985L4.21185 90.0402C4.11585 89.6482 4.01185 89.2322 3.89985 88.7922C3.78785 88.3522 3.68385 87.9282 3.58785 87.5202H3.53985C3.44385 87.9282 3.34385 88.3522 3.23985 88.7922C3.13585 89.2322 3.03185 89.6482 2.92785 90.0402L1.90785 94.0002H0.107852ZM1.71585 92.1402V90.7602H5.45985V92.1402H1.71585Z" fill="white"/>
<path d="M9.81116 94.0002L7.56716 88.0482H9.34316L10.2792 90.8562C10.3752 91.1522 10.4672 91.4522 10.5552 91.7562C10.6432 92.0602 10.7312 92.3722 10.8192 92.6922H10.8672C10.9552 92.3722 11.0392 92.0602 11.1192 91.7562C11.2072 91.4522 11.2992 91.1522 11.3952 90.8562L12.3312 88.0482H14.0232L11.8392 94.0002H9.81116Z" fill="white"/>
<path d="M18.3505 94.1442C17.7345 94.1442 17.1745 94.0242 16.6705 93.7842C16.1745 93.5362 15.7785 93.1802 15.4825 92.7162C15.1945 92.2442 15.0505 91.6802 15.0505 91.0242C15.0505 90.3762 15.1985 89.8202 15.4945 89.3562C15.7905 88.8842 16.1745 88.5242 16.6465 88.2762C17.1185 88.0282 17.6185 87.9042 18.1465 87.9042C18.7625 87.9042 19.2785 88.0322 19.6945 88.2882C20.1105 88.5362 20.4225 88.8762 20.6305 89.3082C20.8465 89.7322 20.9545 90.2162 20.9545 90.7602C20.9545 90.9202 20.9425 91.0762 20.9185 91.2282C20.9025 91.3722 20.8865 91.4802 20.8705 91.5522H16.3585V90.3642H19.6825L19.4065 90.7002C19.4065 90.2202 19.3025 89.8602 19.0945 89.6202C18.8945 89.3722 18.5985 89.2482 18.2065 89.2482C17.9185 89.2482 17.6665 89.3122 17.4505 89.4402C17.2345 89.5682 17.0665 89.7642 16.9465 90.0282C16.8265 90.2922 16.7665 90.6242 16.7665 91.0242C16.7665 91.4322 16.8385 91.7682 16.9825 92.0322C17.1265 92.2882 17.3345 92.4802 17.6065 92.6082C17.8785 92.7362 18.2065 92.8002 18.5905 92.8002C18.8625 92.8002 19.1185 92.7642 19.3585 92.6922C19.6065 92.6202 19.8625 92.5162 20.1265 92.3802L20.7145 93.4482C20.3705 93.6642 19.9905 93.8362 19.5745 93.9642C19.1585 94.0842 18.7505 94.1442 18.3505 94.1442Z" fill="white"/>
<path d="M22.9778 94.0002V88.0482H24.4178L24.5618 89.3442H24.5978C24.8938 88.8562 25.2498 88.4962 25.6658 88.2642C26.0898 88.0242 26.5378 87.9042 27.0098 87.9042C27.2738 87.9042 27.4858 87.9242 27.6458 87.9642C27.8138 88.0042 27.9858 88.0642 28.1618 88.1442L27.8018 89.6202C27.6178 89.5642 27.4498 89.5242 27.2978 89.5002C27.1538 89.4682 26.9698 89.4522 26.7458 89.4522C26.3778 89.4522 26.0138 89.5602 25.6538 89.7762C25.3018 89.9922 24.9978 90.3682 24.7418 90.9042V94.0002H22.9778Z" fill="white"/>
<path d="M31.4691 94.1442C31.0691 94.1442 30.7211 94.0642 30.4251 93.9042C30.1371 93.7442 29.9131 93.5282 29.7531 93.2562C29.5931 92.9842 29.5131 92.6802 29.5131 92.3442C29.5131 91.6802 29.8131 91.1722 30.4131 90.8202C31.0211 90.4682 32.0291 90.2522 33.4371 90.1722C33.4131 89.9882 33.3531 89.8322 33.2571 89.7042C33.1611 89.5762 33.0211 89.4802 32.8371 89.4162C32.6611 89.3442 32.4371 89.3082 32.1651 89.3082C31.9731 89.3082 31.7811 89.3322 31.5891 89.3802C31.3971 89.4202 31.1971 89.4842 30.9891 89.5722C30.7891 89.6522 30.5771 89.7482 30.3531 89.8602L29.7291 88.7082C30.0011 88.5482 30.2851 88.4082 30.5811 88.2882C30.8851 88.1682 31.1971 88.0762 31.5171 88.0122C31.8451 87.9402 32.1771 87.9042 32.5131 87.9042C33.0731 87.9042 33.5531 88.0042 33.9531 88.2042C34.3531 88.3962 34.6611 88.6922 34.8771 89.0922C35.0931 89.4842 35.2011 89.9842 35.2011 90.5922V94.0002H33.7611L33.6291 93.3282H33.5811C33.2851 93.5522 32.9571 93.7442 32.5971 93.9042C32.2371 94.0642 31.8611 94.1442 31.4691 94.1442ZM32.0331 92.7762C32.2971 92.7762 32.5451 92.7242 32.7771 92.6202C33.0091 92.5082 33.2291 92.3722 33.4371 92.2122V91.2282C32.8531 91.2602 32.3971 91.3202 32.0691 91.4082C31.7491 91.4962 31.5251 91.6082 31.3971 91.7442C31.2691 91.8802 31.2051 92.0362 31.2051 92.2122C31.2051 92.3322 31.2371 92.4362 31.3011 92.5242C31.3731 92.6122 31.4691 92.6762 31.5891 92.7162C31.7171 92.7562 31.8651 92.7762 32.0331 92.7762Z" fill="white"/>
<path d="M39.3004 96.5322C38.7804 96.5322 38.3164 96.4762 37.9084 96.3642C37.5084 96.2602 37.1884 96.0962 36.9484 95.8722C36.7164 95.6482 36.6004 95.3602 36.6004 95.0082C36.6004 94.7682 36.6764 94.5482 36.8284 94.3482C36.9884 94.1482 37.2204 93.9722 37.5244 93.8202V93.7722C37.3564 93.6602 37.2124 93.5242 37.0924 93.3642C36.9804 93.2042 36.9244 93.0002 36.9244 92.7522C36.9244 92.5522 36.9884 92.3522 37.1164 92.1522C37.2524 91.9522 37.4244 91.7802 37.6324 91.6362V91.5882C37.4164 91.4442 37.2324 91.2402 37.0804 90.9762C36.9284 90.7122 36.8524 90.4082 36.8524 90.0642C36.8524 89.5842 36.9684 89.1842 37.2004 88.8642C37.4404 88.5442 37.7524 88.3042 38.1364 88.1442C38.5284 87.9842 38.9484 87.9042 39.3964 87.9042C39.7644 87.9042 40.0924 87.9522 40.3804 88.0482H42.7924V89.3442H41.5924C41.6644 89.4322 41.7244 89.5482 41.7724 89.6922C41.8284 89.8282 41.8564 89.9722 41.8564 90.1242C41.8564 90.5802 41.7444 90.9562 41.5204 91.2522C41.3044 91.5402 41.0124 91.7562 40.6444 91.9002C40.2764 92.0442 39.8604 92.1162 39.3964 92.1162C39.2844 92.1162 39.1564 92.1082 39.0124 92.0922C38.8684 92.0682 38.7244 92.0362 38.5804 91.9962C38.4844 92.0602 38.4164 92.1242 38.3764 92.1882C38.3364 92.2522 38.3164 92.3362 38.3164 92.4402C38.3164 92.5922 38.3964 92.7042 38.5564 92.7762C38.7244 92.8482 38.9804 92.8842 39.3244 92.8842H40.4284C41.2124 92.8842 41.8084 93.0002 42.2164 93.2322C42.6324 93.4642 42.8404 93.8482 42.8404 94.3842C42.8404 94.8002 42.6964 95.1682 42.4084 95.4882C42.1204 95.8162 41.7084 96.0722 41.1724 96.2562C40.6444 96.4402 40.0204 96.5322 39.3004 96.5322ZM39.3964 91.0482C39.5644 91.0482 39.7164 91.0122 39.8524 90.9402C39.9884 90.8682 40.0964 90.7602 40.1764 90.6162C40.2564 90.4642 40.2964 90.2802 40.2964 90.0642C40.2964 89.8562 40.2564 89.6802 40.1764 89.5362C40.0964 89.3922 39.9884 89.2842 39.8524 89.2122C39.7164 89.1322 39.5644 89.0922 39.3964 89.0922C39.2364 89.0922 39.0884 89.1322 38.9524 89.2122C38.8164 89.2842 38.7084 89.3922 38.6284 89.5362C38.5484 89.6802 38.5084 89.8562 38.5084 90.0642C38.5084 90.2802 38.5484 90.4642 38.6284 90.6162C38.7084 90.7602 38.8164 90.8682 38.9524 90.9402C39.0884 91.0122 39.2364 91.0482 39.3964 91.0482ZM39.5524 95.4162C39.8724 95.4162 40.1524 95.3842 40.3924 95.3202C40.6324 95.2562 40.8204 95.1682 40.9564 95.0562C41.0924 94.9522 41.1604 94.8322 41.1604 94.6962C41.1604 94.4962 41.0724 94.3682 40.8964 94.3122C40.7204 94.2642 40.4604 94.2402 40.1164 94.2402H39.3724C39.1564 94.2402 38.9764 94.2322 38.8324 94.2162C38.6964 94.2002 38.5724 94.1802 38.4604 94.1562C38.3084 94.2522 38.2004 94.3442 38.1364 94.4322C38.0724 94.5282 38.0404 94.6322 38.0404 94.7442C38.0404 94.9602 38.1764 95.1242 38.4484 95.2362C38.7204 95.3562 39.0884 95.4162 39.5524 95.4162Z" fill="white"/>
<path d="M47.1317 94.1442C46.5157 94.1442 45.9557 94.0242 45.4517 93.7842C44.9557 93.5362 44.5597 93.1802 44.2637 92.7162C43.9757 92.2442 43.8317 91.6802 43.8317 91.0242C43.8317 90.3762 43.9797 89.8202 44.2757 89.3562C44.5717 88.8842 44.9557 88.5242 45.4277 88.2762C45.8997 88.0282 46.3997 87.9042 46.9277 87.9042C47.5437 87.9042 48.0597 88.0322 48.4757 88.2882C48.8917 88.5362 49.2037 88.8762 49.4117 89.3082C49.6277 89.7322 49.7357 90.2162 49.7357 90.7602C49.7357 90.9202 49.7237 91.0762 49.6997 91.2282C49.6837 91.3722 49.6677 91.4802 49.6517 91.5522H45.1397V90.3642H48.4637L48.1877 90.7002C48.1877 90.2202 48.0837 89.8602 47.8757 89.6202C47.6757 89.3722 47.3797 89.2482 46.9877 89.2482C46.6997 89.2482 46.4477 89.3122 46.2317 89.4402C46.0157 89.5682 45.8477 89.7642 45.7277 90.0282C45.6077 90.2922 45.5477 90.6242 45.5477 91.0242C45.5477 91.4322 45.6197 91.7682 45.7637 92.0322C45.9077 92.2882 46.1157 92.4802 46.3877 92.6082C46.6597 92.7362 46.9877 92.8002 47.3717 92.8002C47.6437 92.8002 47.8997 92.7642 48.1397 92.6922C48.3877 92.6202 48.6437 92.5162 48.9077 92.3802L49.4957 93.4482C49.1517 93.6642 48.7717 93.8362 48.3557 93.9642C47.9397 94.0842 47.5317 94.1442 47.1317 94.1442Z" fill="white"/>
<path d="M61.8344 94.1442C61.3464 94.1442 60.8824 94.0602 60.4424 93.8922C60.0104 93.7242 59.6264 93.4722 59.2904 93.1362C58.9544 92.7922 58.6904 92.3722 58.4984 91.8762C58.3064 91.3722 58.2104 90.7922 58.2104 90.1362C58.2104 89.2722 58.3744 88.5362 58.7024 87.9282C59.0383 87.3122 59.4864 86.8442 60.0464 86.5242C60.6144 86.1962 61.2464 86.0322 61.9424 86.0322C62.4384 86.0322 62.8863 86.1362 63.2864 86.3442C63.6864 86.5442 64.0184 86.7722 64.2824 87.0282L63.3104 88.1202C63.1264 87.9442 62.9224 87.8082 62.6984 87.7122C62.4824 87.6082 62.2304 87.5562 61.9424 87.5562C61.5744 87.5562 61.2463 87.6602 60.9584 87.8682C60.6703 88.0682 60.4424 88.3562 60.2744 88.7322C60.1064 89.1082 60.0224 89.5562 60.0224 90.0762C60.0224 90.6122 60.1064 91.0722 60.2744 91.4562C60.4424 91.8322 60.6744 92.1202 60.9704 92.3202C61.2744 92.5202 61.6224 92.6202 62.0144 92.6202C62.3023 92.6202 62.5624 92.5562 62.7943 92.4282C63.0263 92.3002 63.2383 92.1322 63.4304 91.9242L64.4024 92.9922C64.0824 93.3682 63.7064 93.6562 63.2744 93.8562C62.8424 94.0482 62.3624 94.1442 61.8344 94.1442Z" fill="white"/>
<path d="M67.4457 94.1442C67.0457 94.1442 66.6977 94.0642 66.4017 93.9042C66.1137 93.7442 65.8897 93.5282 65.7297 93.2562C65.5697 92.9842 65.4897 92.6802 65.4897 92.3442C65.4897 91.6802 65.7897 91.1722 66.3897 90.8202C66.9977 90.4682 68.0057 90.2522 69.4137 90.1722C69.3897 89.9882 69.3297 89.8322 69.2337 89.7042C69.1377 89.5762 68.9977 89.4802 68.8137 89.4162C68.6377 89.3442 68.4137 89.3082 68.1417 89.3082C67.9497 89.3082 67.7577 89.3322 67.5657 89.3802C67.3737 89.4202 67.1737 89.4842 66.9657 89.5722C66.7657 89.6522 66.5537 89.7482 66.3297 89.8602L65.7057 88.7082C65.9777 88.5482 66.2617 88.4082 66.5577 88.2882C66.8617 88.1682 67.1737 88.0762 67.4937 88.0122C67.8217 87.9402 68.1537 87.9042 68.4897 87.9042C69.0497 87.9042 69.5297 88.0042 69.9297 88.2042C70.3297 88.3962 70.6377 88.6922 70.8537 89.0922C71.0697 89.4842 71.1777 89.9842 71.1777 90.5922V94.0002H69.7377L69.6057 93.3282H69.5577C69.2617 93.5522 68.9337 93.7442 68.5737 93.9042C68.2137 94.0642 67.8377 94.1442 67.4457 94.1442ZM68.0097 92.7762C68.2737 92.7762 68.5217 92.7242 68.7537 92.6202C68.9857 92.5082 69.2057 92.3722 69.4137 92.2122V91.2282C68.8297 91.2602 68.3737 91.3202 68.0457 91.4082C67.7257 91.4962 67.5017 91.6082 67.3737 91.7442C67.2457 91.8802 67.1817 92.0362 67.1817 92.2122C67.1817 92.3322 67.2137 92.4362 67.2777 92.5242C67.3497 92.6122 67.4457 92.6762 67.5657 92.7162C67.6937 92.7562 67.8417 92.7762 68.0097 92.7762Z" fill="white"/>
<path d="M75.505 94.1442C74.977 94.1442 74.453 94.0562 73.933 93.8802C73.413 93.6962 72.965 93.4802 72.589 93.2322L73.345 92.1282C73.705 92.3602 74.085 92.5362 74.485 92.6562C74.893 92.7762 75.313 92.8362 75.745 92.8362C76.073 92.8362 76.313 92.7882 76.465 92.6922C76.617 92.5882 76.693 92.4682 76.693 92.3322C76.693 92.2442 76.669 92.1722 76.621 92.1162C76.581 92.0522 76.505 91.9962 76.393 91.9482C76.289 91.8922 76.141 91.8402 75.949 91.7922C75.765 91.7442 75.525 91.6882 75.229 91.6242C74.421 91.4482 73.841 91.2082 73.489 90.9042C73.137 90.6002 72.961 90.2202 72.961 89.7642C72.961 89.2042 73.205 88.7562 73.693 88.4202C74.181 88.0762 74.849 87.9042 75.697 87.9042C76.233 87.9042 76.717 87.9922 77.149 88.1682C77.589 88.3362 77.965 88.5202 78.277 88.7202L77.485 89.7762C77.189 89.5922 76.873 89.4522 76.537 89.3562C76.201 89.2602 75.869 89.2122 75.541 89.2122C75.357 89.2122 75.205 89.2322 75.085 89.2722C74.965 89.3042 74.873 89.3602 74.809 89.4402C74.745 89.5122 74.713 89.5922 74.713 89.6802C74.713 89.8402 74.817 89.9602 75.025 90.0402C75.233 90.1122 75.589 90.2042 76.093 90.3162C76.701 90.4522 77.177 90.6082 77.521 90.7842C77.865 90.9602 78.101 91.1642 78.229 91.3962C78.365 91.6202 78.433 91.8962 78.433 92.2242C78.433 92.5842 78.321 92.9082 78.097 93.1962C77.881 93.4842 77.553 93.7162 77.113 93.8922C76.681 94.0602 76.145 94.1442 75.505 94.1442Z" fill="white"/>
<path d="M83.1083 94.1442C82.4923 94.1442 81.9323 94.0242 81.4283 93.7842C80.9323 93.5362 80.5363 93.1802 80.2403 92.7162C79.9523 92.2442 79.8083 91.6802 79.8083 91.0242C79.8083 90.3762 79.9563 89.8202 80.2523 89.3562C80.5483 88.8842 80.9323 88.5242 81.4043 88.2762C81.8763 88.0282 82.3763 87.9042 82.9043 87.9042C83.5203 87.9042 84.0363 88.0322 84.4523 88.2882C84.8683 88.5362 85.1803 88.8762 85.3883 89.3082C85.6043 89.7322 85.7123 90.2162 85.7123 90.7602C85.7123 90.9202 85.7003 91.0762 85.6763 91.2282C85.6603 91.3722 85.6443 91.4802 85.6283 91.5522H81.1163V90.3642H84.4403L84.1643 90.7002C84.1643 90.2202 84.0603 89.8602 83.8523 89.6202C83.6523 89.3722 83.3563 89.2482 82.9643 89.2482C82.6763 89.2482 82.4243 89.3122 82.2083 89.4402C81.9923 89.5682 81.8243 89.7642 81.7043 90.0282C81.5843 90.2922 81.5243 90.6242 81.5243 91.0242C81.5243 91.4322 81.5963 91.7682 81.7403 92.0322C81.8843 92.2882 82.0923 92.4802 82.3643 92.6082C82.6363 92.7362 82.9643 92.8002 83.3483 92.8002C83.6203 92.8002 83.8763 92.7642 84.1163 92.6922C84.3643 92.6202 84.6203 92.5162 84.8843 92.3802L85.4723 93.4482C85.1283 93.6642 84.7483 93.8362 84.3323 93.9642C83.9163 94.0842 83.5083 94.1442 83.1083 94.1442Z" fill="white"/>
<path d="M3.18149 120.877C3.18149 118.651 3.8436 116.254 5.16782 113.688C6.50376 111.11 8.16782 109.141 10.16 107.781C12.1522 106.422 14.0799 105.742 15.9432 105.742C16.9159 105.742 17.9881 106 19.16 106.516C20.3436 107.031 21.369 108.051 22.2362 109.574C23.1151 111.098 23.5545 112.949 23.5545 115.129C23.5545 118.926 22.2596 122.424 19.6698 125.623C17.0799 128.822 14.2499 130.422 11.1795 130.422C8.89438 130.422 6.99009 129.59 5.46665 127.926C3.94321 126.262 3.18149 123.912 3.18149 120.877ZM6.32798 122.653C6.32798 124.317 6.48618 125.6 6.80259 126.502C7.11899 127.405 7.65219 128.155 8.40219 128.752C9.15219 129.35 10.0545 129.649 11.1092 129.649C12.7616 129.649 14.2967 128.834 15.7147 127.205C17.1444 125.576 18.3163 123.303 19.2303 120.385C20.1444 117.467 20.6014 114.977 20.6014 112.914C20.6014 110.805 20.1561 109.223 19.2655 108.168C18.3866 107.102 17.2557 106.569 15.8729 106.569C14.2557 106.569 12.7264 107.348 11.285 108.906C9.8436 110.465 8.65415 112.639 7.71665 115.428C6.79087 118.217 6.32798 120.625 6.32798 122.653Z" fill="white"/>
<path d="M32.4315 138.596H31.2186C27.3045 133.733 25.3475 128.172 25.3475 121.914C25.3475 115.996 27.2401 110.67 31.0252 105.936H32.2381C30.3749 107.987 28.9393 110.406 27.9315 113.196C26.9354 115.985 26.4374 118.85 26.4374 121.791C26.4374 125.436 27.0174 128.723 28.1776 131.653C29.3495 134.594 30.7674 136.908 32.4315 138.596Z" fill="white"/>
<path d="M46.1249 126.696H47.0213C46.3182 127.961 45.5975 128.91 44.8592 129.543C44.1327 130.176 43.3885 130.492 42.6268 130.492C42.0995 130.492 41.6424 130.328 41.2557 130C40.8807 129.684 40.6932 129.209 40.6932 128.576C40.6932 128.049 40.9627 127.006 41.5018 125.447L43.3827 120.086C43.8866 118.621 44.1385 117.672 44.1385 117.239C44.1385 116.852 44.0506 116.565 43.8749 116.377C43.7108 116.19 43.453 116.096 43.1014 116.096C42.2108 116.096 41.0448 117.145 39.6034 119.242C38.1737 121.328 36.9432 124.065 35.912 127.451L35.0506 130.264H32.9061L35.9999 120.28C36.5624 118.44 36.8436 117.385 36.8436 117.115C36.8436 116.916 36.8084 116.77 36.7381 116.676C36.6678 116.582 36.5565 116.535 36.4041 116.535C35.7127 116.535 34.8924 117.391 33.9432 119.102H33.1346C34.5995 116.442 35.9881 115.112 37.3006 115.112C37.7577 115.112 38.0975 115.252 38.3202 115.533C38.5545 115.803 38.6717 116.219 38.6717 116.781C38.6717 117.789 38.2791 119.348 37.494 121.457C39.6151 117.227 41.6776 115.112 43.6815 115.112C44.326 115.112 44.8885 115.328 45.369 115.762C45.8495 116.184 46.0897 116.805 46.0897 117.625C46.0897 118.153 45.8495 119.137 45.369 120.578L43.4881 126.186C42.9842 127.697 42.7323 128.541 42.7323 128.717C42.7323 128.94 42.785 129.11 42.8905 129.227C43.0077 129.332 43.1717 129.385 43.3827 129.385C43.7811 129.385 44.2088 129.162 44.6659 128.717C45.1229 128.26 45.6092 127.586 46.1249 126.696Z" fill="white"/>
<path d="M48.7967 118.662V117.959C53.0624 114.772 55.1952 112.094 55.1952 109.926C55.1952 108.977 54.9784 108.268 54.5448 107.799C54.1112 107.33 53.4549 107.096 52.576 107.096C51.8612 107.096 51.3045 107.301 50.9061 107.711C50.5194 108.121 50.326 108.572 50.326 109.065C50.326 109.651 50.6249 110.102 51.2225 110.418C51.3866 110.512 51.4686 110.606 51.4686 110.699C51.4686 110.817 51.3338 110.987 51.0643 111.209C50.8065 111.432 50.5604 111.543 50.326 111.543C49.9862 111.543 49.6639 111.332 49.3592 110.91C49.0663 110.477 48.9198 110.002 48.9198 109.487C48.9198 108.596 49.3358 107.858 50.1678 107.272C51.0116 106.686 51.9784 106.393 53.0682 106.393C54.2284 106.393 55.2303 106.697 56.0741 107.307C56.9178 107.916 57.3397 108.772 57.3397 109.873C57.3397 110.799 56.8651 111.801 55.9159 112.879C54.9784 113.946 53.2674 115.44 50.7831 117.362H57.2166L56.5487 119.594H55.6698C55.7284 119.242 55.7577 119.031 55.7577 118.961C55.7577 118.762 55.5409 118.662 55.1073 118.662H48.7967Z" fill="white"/>
<path d="M59.4568 138.596C61.1091 136.908 62.5154 134.594 63.6756 131.653C64.8474 128.723 65.4334 125.436 65.4334 121.791C65.4334 118.99 64.9588 116.19 64.0095 113.389C63.0603 110.588 61.6013 108.104 59.6326 105.936H60.8631C64.6482 110.67 66.5408 115.996 66.5408 121.914C66.5408 128.172 64.5838 133.733 60.6697 138.596H59.4568Z" fill="white"/>
<path d="M1.09185 178L0.0478516 170.176H1.88385L2.12385 174.34C2.12385 174.564 2.12785 174.784 2.13585 175C2.14385 175.208 2.14785 175.42 2.14785 175.636C2.15585 175.844 2.15985 176.068 2.15985 176.308H2.20785C2.23985 176.068 2.27585 175.844 2.31585 175.636C2.36385 175.42 2.41185 175.204 2.45985 174.988C2.50785 174.772 2.55185 174.556 2.59185 174.34L3.11985 172.156H4.24785L4.73985 174.34C4.78785 174.556 4.83185 174.768 4.87185 174.976C4.91185 175.184 4.95585 175.4 5.00385 175.624C5.05185 175.84 5.09185 176.068 5.12385 176.308H5.17185C5.17985 176.068 5.18385 175.84 5.18385 175.624C5.19185 175.4 5.19585 175.184 5.19585 174.976C5.20385 174.768 5.21185 174.556 5.21985 174.34L5.43585 170.176H7.15185L6.19185 178H4.29585L3.83985 175.576C3.79185 175.328 3.74785 175.076 3.70785 174.82C3.66785 174.564 3.63985 174.32 3.62385 174.088H3.58785C3.56385 174.32 3.53585 174.564 3.50385 174.82C3.47185 175.076 3.43185 175.328 3.38385 175.576L2.92785 178H1.09185Z" fill="white"/>
<path d="M10.7952 178.144C10.2752 178.144 9.78316 178.024 9.31916 177.784C8.85516 177.536 8.47916 177.18 8.19116 176.716C7.90316 176.244 7.75916 175.68 7.75916 175.024C7.75916 174.368 7.90316 173.808 8.19116 173.344C8.47916 172.872 8.85516 172.516 9.31916 172.276C9.78316 172.028 10.2752 171.904 10.7952 171.904C11.3152 171.904 11.8072 172.028 12.2712 172.276C12.7352 172.516 13.1112 172.872 13.3992 173.344C13.6872 173.808 13.8312 174.368 13.8312 175.024C13.8312 175.68 13.6872 176.244 13.3992 176.716C13.1112 177.18 12.7352 177.536 12.2712 177.784C11.8072 178.024 11.3152 178.144 10.7952 178.144ZM10.7952 176.716C11.0672 176.716 11.2912 176.648 11.4672 176.512C11.6512 176.376 11.7872 176.18 11.8752 175.924C11.9712 175.668 12.0192 175.368 12.0192 175.024C12.0192 174.68 11.9712 174.38 11.8752 174.124C11.7872 173.868 11.6512 173.672 11.4672 173.536C11.2912 173.4 11.0672 173.332 10.7952 173.332C10.5232 173.332 10.2952 173.4 10.1112 173.536C9.93516 173.672 9.79916 173.868 9.70316 174.124C9.61516 174.38 9.57116 174.68 9.57116 175.024C9.57116 175.368 9.61516 175.668 9.70316 175.924C9.79916 176.18 9.93516 176.376 10.1112 176.512C10.2952 176.648 10.5232 176.716 10.7952 176.716Z" fill="white"/>
<path d="M15.7825 178V172.048H17.2225L17.3665 173.344H17.4025C17.6985 172.856 18.0545 172.496 18.4705 172.264C18.8945 172.024 19.3425 171.904 19.8145 171.904C20.0785 171.904 20.2905 171.924 20.4505 171.964C20.6185 172.004 20.7905 172.064 20.9665 172.144L20.6065 173.62C20.4225 173.564 20.2545 173.524 20.1025 173.5C19.9585 173.468 19.7745 173.452 19.5505 173.452C19.1825 173.452 18.8185 173.56 18.4585 173.776C18.1065 173.992 17.8025 174.368 17.5465 174.904V178H15.7825Z" fill="white"/>
<path d="M25.1378 178.144C24.6098 178.144 24.0858 178.056 23.5658 177.88C23.0458 177.696 22.5978 177.48 22.2218 177.232L22.9778 176.128C23.3378 176.36 23.7178 176.536 24.1178 176.656C24.5258 176.776 24.9458 176.836 25.3778 176.836C25.7058 176.836 25.9458 176.788 26.0978 176.692C26.2498 176.588 26.3258 176.468 26.3258 176.332C26.3258 176.244 26.3018 176.172 26.2538 176.116C26.2138 176.052 26.1378 175.996 26.0258 175.948C25.9218 175.892 25.7738 175.84 25.5818 175.792C25.3978 175.744 25.1578 175.688 24.8618 175.624C24.0538 175.448 23.4738 175.208 23.1218 174.904C22.7698 174.6 22.5938 174.22 22.5938 173.764C22.5938 173.204 22.8378 172.756 23.3258 172.42C23.8138 172.076 24.4818 171.904 25.3298 171.904C25.8658 171.904 26.3498 171.992 26.7818 172.168C27.2218 172.336 27.5978 172.52 27.9098 172.72L27.1178 173.776C26.8218 173.592 26.5058 173.452 26.1698 173.356C25.8338 173.26 25.5018 173.212 25.1738 173.212C24.9898 173.212 24.8378 173.232 24.7178 173.272C24.5978 173.304 24.5058 173.36 24.4418 173.44C24.3778 173.512 24.3458 173.592 24.3458 173.68C24.3458 173.84 24.4498 173.96 24.6578 174.04C24.8658 174.112 25.2218 174.204 25.7258 174.316C26.3338 174.452 26.8098 174.608 27.1538 174.784C27.4978 174.96 27.7338 175.164 27.8618 175.396C27.9978 175.62 28.0658 175.896 28.0658 176.224C28.0658 176.584 27.9538 176.908 27.7298 177.196C27.5138 177.484 27.1858 177.716 26.7458 177.892C26.3138 178.06 25.7778 178.144 25.1378 178.144Z" fill="white"/>
<path d="M33.4371 178.144C32.8051 178.144 32.3011 178.036 31.9251 177.82C31.5571 177.596 31.2891 177.288 31.1211 176.896C30.9531 176.504 30.8691 176.048 30.8691 175.528V173.428H29.3811V172.12L30.9531 172.048L31.1811 170.224H32.6331V172.048H35.1531V173.428H32.6331V175.516C32.6331 175.812 32.6771 176.052 32.7651 176.236C32.8531 176.42 32.9891 176.556 33.1731 176.644C33.3571 176.724 33.5931 176.764 33.8811 176.764C34.1131 176.764 34.3251 176.744 34.5171 176.704C34.7091 176.664 34.8931 176.612 35.0691 176.548L35.3811 177.82C35.1171 177.9 34.8251 177.972 34.5051 178.036C34.1931 178.108 33.8371 178.144 33.4371 178.144Z" fill="white"/>
<path d="M47.4437 178.144C46.9557 178.144 46.4917 178.06 46.0517 177.892C45.6197 177.724 45.2357 177.472 44.8997 177.136C44.5637 176.792 44.2997 176.372 44.1077 175.876C43.9157 175.372 43.8197 174.792 43.8197 174.136C43.8197 173.272 43.9837 172.536 44.3117 171.928C44.6477 171.312 45.0957 170.844 45.6557 170.524C46.2237 170.196 46.8557 170.032 47.5517 170.032C48.0477 170.032 48.4957 170.136 48.8957 170.344C49.2957 170.544 49.6277 170.772 49.8917 171.028L48.9197 172.12C48.7357 171.944 48.5317 171.808 48.3077 171.712C48.0917 171.608 47.8397 171.556 47.5517 171.556C47.1837 171.556 46.8557 171.66 46.5677 171.868C46.2797 172.068 46.0517 172.356 45.8837 172.732C45.7157 173.108 45.6317 173.556 45.6317 174.076C45.6317 174.612 45.7157 175.072 45.8837 175.456C46.0517 175.832 46.2837 176.12 46.5797 176.32C46.8837 176.52 47.2317 176.62 47.6237 176.62C47.9117 176.62 48.1717 176.556 48.4037 176.428C48.6357 176.3 48.8477 176.132 49.0397 175.924L50.0117 176.992C49.6917 177.368 49.3157 177.656 48.8837 177.856C48.4517 178.048 47.9717 178.144 47.4437 178.144Z" fill="white"/>
<path d="M53.055 178.144C52.655 178.144 52.307 178.064 52.011 177.904C51.723 177.744 51.499 177.528 51.339 177.256C51.179 176.984 51.099 176.68 51.099 176.344C51.099 175.68 51.399 175.172 51.999 174.82C52.607 174.468 53.615 174.252 55.023 174.172C54.999 173.988 54.939 173.832 54.843 173.704C54.747 173.576 54.607 173.48 54.423 173.416C54.247 173.344 54.023 173.308 53.751 173.308C53.559 173.308 53.367 173.332 53.175 173.38C52.983 173.42 52.783 173.484 52.575 173.572C52.375 173.652 52.163 173.748 51.939 173.86L51.315 172.708C51.587 172.548 51.871 172.408 52.167 172.288C52.471 172.168 52.783 172.076 53.103 172.012C53.431 171.94 53.763 171.904 54.099 171.904C54.659 171.904 55.139 172.004 55.539 172.204C55.939 172.396 56.247 172.692 56.463 173.092C56.679 173.484 56.787 173.984 56.787 174.592V178H55.347L55.215 177.328H55.167C54.871 177.552 54.543 177.744 54.183 177.904C53.823 178.064 53.447 178.144 53.055 178.144ZM53.619 176.776C53.883 176.776 54.131 176.724 54.363 176.62C54.595 176.508 54.815 176.372 55.023 176.212V175.228C54.439 175.26 53.983 175.32 53.655 175.408C53.335 175.496 53.111 175.608 52.983 175.744C52.855 175.88 52.791 176.036 52.791 176.212C52.791 176.332 52.823 176.436 52.887 176.524C52.959 176.612 53.055 176.676 53.175 176.716C53.303 176.756 53.451 176.776 53.619 176.776Z" fill="white"/>
<path d="M61.1144 178.144C60.5864 178.144 60.0624 178.056 59.5424 177.88C59.0224 177.696 58.5744 177.48 58.1984 177.232L58.9543 176.128C59.3144 176.36 59.6944 176.536 60.0944 176.656C60.5024 176.776 60.9224 176.836 61.3544 176.836C61.6824 176.836 61.9224 176.788 62.0744 176.692C62.2264 176.588 62.3024 176.468 62.3024 176.332C62.3024 176.244 62.2784 176.172 62.2304 176.116C62.1903 176.052 62.1143 175.996 62.0023 175.948C61.8983 175.892 61.7504 175.84 61.5583 175.792C61.3744 175.744 61.1344 175.688 60.8384 175.624C60.0304 175.448 59.4504 175.208 59.0984 174.904C58.7463 174.6 58.5704 174.22 58.5704 173.764C58.5704 173.204 58.8144 172.756 59.3024 172.42C59.7904 172.076 60.4584 171.904 61.3064 171.904C61.8424 171.904 62.3264 171.992 62.7584 172.168C63.1983 172.336 63.5744 172.52 63.8864 172.72L63.0944 173.776C62.7984 173.592 62.4823 173.452 62.1464 173.356C61.8104 173.26 61.4784 173.212 61.1504 173.212C60.9664 173.212 60.8144 173.232 60.6944 173.272C60.5744 173.304 60.4823 173.36 60.4184 173.44C60.3544 173.512 60.3223 173.592 60.3223 173.68C60.3223 173.84 60.4263 173.96 60.6343 174.04C60.8424 174.112 61.1983 174.204 61.7024 174.316C62.3104 174.452 62.7864 174.608 63.1304 174.784C63.4744 174.96 63.7104 175.164 63.8384 175.396C63.9744 175.62 64.0424 175.896 64.0424 176.224C64.0424 176.584 63.9304 176.908 63.7064 177.196C63.4904 177.484 63.1623 177.716 62.7224 177.892C62.2904 178.06 61.7544 178.144 61.1144 178.144Z" fill="white"/>
<path d="M68.7177 178.144C68.1017 178.144 67.5417 178.024 67.0377 177.784C66.5417 177.536 66.1457 177.18 65.8497 176.716C65.5617 176.244 65.4177 175.68 65.4177 175.024C65.4177 174.376 65.5657 173.82 65.8617 173.356C66.1577 172.884 66.5417 172.524 67.0137 172.276C67.4857 172.028 67.9857 171.904 68.5137 171.904C69.1297 171.904 69.6457 172.032 70.0617 172.288C70.4777 172.536 70.7897 172.876 70.9977 173.308C71.2137 173.732 71.3217 174.216 71.3217 174.76C71.3217 174.92 71.3097 175.076 71.2857 175.228C71.2697 175.372 71.2537 175.48 71.2377 175.552H66.7257V174.364H70.0497L69.7737 174.7C69.7737 174.22 69.6697 173.86 69.4617 173.62C69.2617 173.372 68.9657 173.248 68.5737 173.248C68.2857 173.248 68.0337 173.312 67.8177 173.44C67.6017 173.568 67.4337 173.764 67.3137 174.028C67.1937 174.292 67.1337 174.624 67.1337 175.024C67.1337 175.432 67.2057 175.768 67.3497 176.032C67.4937 176.288 67.7017 176.48 67.9737 176.608C68.2457 176.736 68.5737 176.8 68.9577 176.8C69.2297 176.8 69.4857 176.764 69.7257 176.692C69.9737 176.62 70.2297 176.516 70.4937 176.38L71.0817 177.448C70.7377 177.664 70.3577 177.836 69.9417 177.964C69.5257 178.084 69.1177 178.144 68.7177 178.144Z" fill="white"/>
<path d="M3.18149 204.877C3.18149 202.651 3.8436 200.254 5.16782 197.688C6.50376 195.11 8.16782 193.141 10.16 191.781C12.1522 190.422 14.0799 189.742 15.9432 189.742C16.9159 189.742 17.9881 190 19.16 190.516C20.3436 191.031 21.369 192.051 22.2362 193.574C23.1151 195.098 23.5545 196.949 23.5545 199.129C23.5545 202.926 22.2596 206.424 19.6698 209.623C17.0799 212.822 14.2499 214.422 11.1795 214.422C8.89438 214.422 6.99009 213.59 5.46665 211.926C3.94321 210.262 3.18149 207.912 3.18149 204.877ZM6.32798 206.653C6.32798 208.317 6.48618 209.6 6.80259 210.502C7.11899 211.405 7.65219 212.155 8.40219 212.752C9.15219 213.35 10.0545 213.649 11.1092 213.649C12.7616 213.649 14.2967 212.834 15.7147 211.205C17.1444 209.576 18.3163 207.303 19.2303 204.385C20.1444 201.467 20.6014 198.977 20.6014 196.914C20.6014 194.805 20.1561 193.223 19.2655 192.168C18.3866 191.102 17.2557 190.569 15.8729 190.569C14.2557 190.569 12.7264 191.348 11.285 192.906C9.8436 194.465 8.65415 196.639 7.71665 199.428C6.79087 202.217 6.32798 204.625 6.32798 206.653Z" fill="white"/>
<path d="M32.4315 222.596H31.2186C27.3045 217.733 25.3475 212.172 25.3475 205.914C25.3475 199.996 27.2401 194.67 31.0252 189.936H32.2381C30.3749 191.987 28.9393 194.406 27.9315 197.196C26.9354 199.985 26.4374 202.85 26.4374 205.791C26.4374 209.436 27.0174 212.723 28.1776 215.653C29.3495 218.594 30.7674 220.908 32.4315 222.596Z" fill="white"/>
<path d="M46.1249 210.696H47.0213C46.3182 211.961 45.5975 212.91 44.8592 213.543C44.1327 214.176 43.3885 214.492 42.6268 214.492C42.0995 214.492 41.6424 214.328 41.2557 214C40.8807 213.684 40.6932 213.209 40.6932 212.576C40.6932 212.049 40.9627 211.006 41.5018 209.447L43.3827 204.086C43.8866 202.621 44.1385 201.672 44.1385 201.239C44.1385 200.852 44.0506 200.565 43.8749 200.377C43.7108 200.19 43.453 200.096 43.1014 200.096C42.2108 200.096 41.0448 201.145 39.6034 203.242C38.1737 205.328 36.9432 208.065 35.912 211.451L35.0506 214.264H32.9061L35.9999 204.28C36.5624 202.44 36.8436 201.385 36.8436 201.115C36.8436 200.916 36.8084 200.77 36.7381 200.676C36.6678 200.582 36.5565 200.535 36.4041 200.535C35.7127 200.535 34.8924 201.391 33.9432 203.102H33.1346C34.5995 200.442 35.9881 199.112 37.3006 199.112C37.7577 199.112 38.0975 199.252 38.3202 199.533C38.5545 199.803 38.6717 200.219 38.6717 200.781C38.6717 201.789 38.2791 203.348 37.494 205.457C39.6151 201.227 41.6776 199.112 43.6815 199.112C44.326 199.112 44.8885 199.328 45.369 199.762C45.8495 200.184 46.0897 200.805 46.0897 201.625C46.0897 202.153 45.8495 203.137 45.369 204.578L43.4881 210.186C42.9842 211.697 42.7323 212.541 42.7323 212.717C42.7323 212.94 42.785 213.11 42.8905 213.227C43.0077 213.332 43.1717 213.385 43.3827 213.385C43.7811 213.385 44.2088 213.162 44.6659 212.717C45.1229 212.26 45.6092 211.586 46.1249 210.696Z" fill="white"/>
<path d="M48.7967 202.662V201.959C53.0624 198.772 55.1952 196.094 55.1952 193.926C55.1952 192.977 54.9784 192.268 54.5448 191.799C54.1112 191.33 53.4549 191.096 52.576 191.096C51.8612 191.096 51.3045 191.301 50.9061 191.711C50.5194 192.121 50.326 192.572 50.326 193.065C50.326 193.651 50.6249 194.102 51.2225 194.418C51.3866 194.512 51.4686 194.606 51.4686 194.699C51.4686 194.817 51.3338 194.987 51.0643 195.209C50.8065 195.432 50.5604 195.543 50.326 195.543C49.9862 195.543 49.6639 195.332 49.3592 194.91C49.0663 194.477 48.9198 194.002 48.9198 193.487C48.9198 192.596 49.3358 191.858 50.1678 191.272C51.0116 190.686 51.9784 190.393 53.0682 190.393C54.2284 190.393 55.2303 190.697 56.0741 191.307C56.9178 191.916 57.3397 192.772 57.3397 193.873C57.3397 194.799 56.8651 195.801 55.9159 196.879C54.9784 197.946 53.2674 199.44 50.7831 201.362H57.2166L56.5487 203.594H55.6698C55.7284 203.242 55.7577 203.031 55.7577 202.961C55.7577 202.762 55.5409 202.662 55.1073 202.662H48.7967Z" fill="white"/>
<path d="M59.4568 222.596C61.1091 220.908 62.5154 218.594 63.6756 215.653C64.8474 212.723 65.4334 209.436 65.4334 205.791C65.4334 202.99 64.9588 200.19 64.0095 197.389C63.0603 194.588 61.6013 192.104 59.6326 189.936H60.8631C64.6482 194.67 66.5408 199.996 66.5408 205.914C66.5408 212.172 64.5838 217.733 60.6697 222.596H59.4568Z" fill="white"/>
<path d="M3.57585 262.144C3.04785 262.144 2.52385 262.048 2.00385 261.856C1.49185 261.664 1.02385 261.384 0.599852 261.016L1.61985 259.804C1.91585 260.044 2.23985 260.24 2.59185 260.392C2.95185 260.544 3.31985 260.62 3.69585 260.62C4.07185 260.62 4.34785 260.556 4.52385 260.428C4.70785 260.3 4.79985 260.136 4.79985 259.936C4.79985 259.752 4.75185 259.608 4.65585 259.504C4.55985 259.392 4.41985 259.296 4.23585 259.216C4.05185 259.128 3.83585 259.032 3.58785 258.928L2.57985 258.496C2.29185 258.384 2.01985 258.236 1.76385 258.052C1.50785 257.86 1.29985 257.628 1.13985 257.356C0.987852 257.076 0.911852 256.744 0.911852 256.36C0.911852 255.928 1.03185 255.54 1.27185 255.196C1.51985 254.844 1.85585 254.564 2.27985 254.356C2.71185 254.14 3.21185 254.032 3.77985 254.032C4.25185 254.032 4.71585 254.12 5.17185 254.296C5.62785 254.472 6.03185 254.728 6.38385 255.064L5.48385 256.18C5.21185 255.98 4.93985 255.828 4.66785 255.724C4.39585 255.612 4.06785 255.556 3.68385 255.556C3.39585 255.556 3.15985 255.616 2.97585 255.736C2.79185 255.856 2.69985 256.032 2.69985 256.264C2.69985 256.416 2.75585 256.544 2.86785 256.648C2.97985 256.752 3.13185 256.844 3.32385 256.924C3.51585 257.004 3.73585 257.092 3.98385 257.188L4.93185 257.596C5.28385 257.724 5.58385 257.884 5.83185 258.076C6.07985 258.26 6.27185 258.488 6.40785 258.76C6.54385 259.032 6.61185 259.352 6.61185 259.72C6.61185 260.152 6.49185 260.552 6.25185 260.92C6.01985 261.288 5.67585 261.584 5.21985 261.808C4.77185 262.032 4.22385 262.144 3.57585 262.144Z" fill="white"/>
<path d="M8.05916 264.208V256.048H9.49916L9.63116 256.648H9.66716C9.91516 256.432 10.1912 256.256 10.4952 256.12C10.8072 255.976 11.1232 255.904 11.4432 255.904C11.9392 255.904 12.3632 256.028 12.7152 256.276C13.0752 256.524 13.3512 256.876 13.5432 257.332C13.7352 257.788 13.8312 258.32 13.8312 258.928C13.8312 259.608 13.7072 260.188 13.4592 260.668C13.2192 261.148 12.9032 261.516 12.5112 261.772C12.1192 262.02 11.6992 262.144 11.2512 262.144C10.9872 262.144 10.7272 262.088 10.4712 261.976C10.2232 261.864 9.99516 261.704 9.78716 261.496H9.73916L9.82316 262.468V264.208H8.05916ZM10.8432 260.704C11.0672 260.704 11.2672 260.644 11.4432 260.524C11.6192 260.404 11.7592 260.216 11.8632 259.96C11.9672 259.696 12.0192 259.36 12.0192 258.952C12.0192 258.592 11.9792 258.296 11.8992 258.064C11.8192 257.824 11.6992 257.644 11.5392 257.524C11.3872 257.404 11.1832 257.344 10.9272 257.344C10.7352 257.344 10.5472 257.388 10.3632 257.476C10.1872 257.556 10.0072 257.696 9.82316 257.896V260.308C9.99116 260.444 10.1632 260.544 10.3392 260.608C10.5232 260.672 10.6912 260.704 10.8432 260.704Z" fill="white"/>
<path d="M17.0785 262.144C16.6785 262.144 16.3305 262.064 16.0345 261.904C15.7465 261.744 15.5225 261.528 15.3625 261.256C15.2025 260.984 15.1225 260.68 15.1225 260.344C15.1225 259.68 15.4225 259.172 16.0225 258.82C16.6305 258.468 17.6385 258.252 19.0465 258.172C19.0225 257.988 18.9625 257.832 18.8665 257.704C18.7705 257.576 18.6305 257.48 18.4465 257.416C18.2705 257.344 18.0465 257.308 17.7745 257.308C17.5825 257.308 17.3905 257.332 17.1985 257.38C17.0065 257.42 16.8065 257.484 16.5985 257.572C16.3985 257.652 16.1865 257.748 15.9625 257.86L15.3385 256.708C15.6105 256.548 15.8945 256.408 16.1905 256.288C16.4945 256.168 16.8065 256.076 17.1265 256.012C17.4545 255.94 17.7865 255.904 18.1225 255.904C18.6825 255.904 19.1625 256.004 19.5625 256.204C19.9625 256.396 20.2705 256.692 20.4865 257.092C20.7025 257.484 20.8105 257.984 20.8105 258.592V262H19.3705L19.2385 261.328H19.1905C18.8945 261.552 18.5665 261.744 18.2065 261.904C17.8465 262.064 17.4705 262.144 17.0785 262.144ZM17.6425 260.776C17.9065 260.776 18.1545 260.724 18.3865 260.62C18.6185 260.508 18.8385 260.372 19.0465 260.212V259.228C18.4625 259.26 18.0065 259.32 17.6785 259.408C17.3585 259.496 17.1345 259.608 17.0065 259.744C16.8785 259.88 16.8145 260.036 16.8145 260.212C16.8145 260.332 16.8465 260.436 16.9105 260.524C16.9825 260.612 17.0785 260.676 17.1985 260.716C17.3265 260.756 17.4745 260.776 17.6425 260.776Z" fill="white"/>
<path d="M25.7018 262.144C25.0778 262.144 24.5138 262.024 24.0098 261.784C23.5138 261.536 23.1178 261.18 22.8218 260.716C22.5338 260.244 22.3898 259.68 22.3898 259.024C22.3898 258.368 22.5498 257.808 22.8698 257.344C23.1898 256.872 23.6098 256.516 24.1298 256.276C24.6578 256.028 25.2258 255.904 25.8338 255.904C26.3058 255.904 26.7338 255.98 27.1178 256.132C27.5018 256.276 27.8178 256.468 28.0658 256.708L27.2498 257.8C27.0178 257.64 26.7938 257.524 26.5778 257.452C26.3698 257.372 26.1538 257.332 25.9298 257.332C25.5938 257.332 25.2938 257.4 25.0298 257.536C24.7658 257.672 24.5618 257.868 24.4178 258.124C24.2738 258.38 24.2018 258.68 24.2018 259.024C24.2018 259.368 24.2698 259.668 24.4058 259.924C24.5498 260.18 24.7458 260.376 24.9938 260.512C25.2498 260.648 25.5418 260.716 25.8698 260.716C26.1818 260.716 26.4658 260.66 26.7218 260.548C26.9858 260.436 27.2258 260.304 27.4418 260.152L28.1498 261.268C27.7978 261.564 27.4018 261.784 26.9618 261.928C26.5298 262.072 26.1098 262.144 25.7018 262.144Z" fill="white"/>
<path d="M32.7411 262.144C32.1251 262.144 31.5651 262.024 31.0611 261.784C30.5651 261.536 30.1691 261.18 29.8731 260.716C29.5851 260.244 29.4411 259.68 29.4411 259.024C29.4411 258.376 29.5891 257.82 29.8851 257.356C30.1811 256.884 30.5651 256.524 31.0371 256.276C31.5091 256.028 32.0091 255.904 32.5371 255.904C33.1531 255.904 33.6691 256.032 34.0851 256.288C34.5011 256.536 34.8131 256.876 35.0211 257.308C35.2371 257.732 35.3451 258.216 35.3451 258.76C35.3451 258.92 35.3331 259.076 35.3091 259.228C35.2931 259.372 35.2771 259.48 35.2611 259.552H30.7491V258.364H34.0731L33.7971 258.7C33.7971 258.22 33.6931 257.86 33.4851 257.62C33.2851 257.372 32.9891 257.248 32.5971 257.248C32.3091 257.248 32.0571 257.312 31.8411 257.44C31.6251 257.568 31.4571 257.764 31.3371 258.028C31.2171 258.292 31.1571 258.624 31.1571 259.024C31.1571 259.432 31.2291 259.768 31.3731 260.032C31.5171 260.288 31.7251 260.48 31.9971 260.608C32.2691 260.736 32.5971 260.8 32.9811 260.8C33.2531 260.8 33.5091 260.764 33.7491 260.692C33.9971 260.62 34.2531 260.516 34.5171 260.38L35.1051 261.448C34.7611 261.664 34.3811 261.836 33.9651 261.964C33.5491 262.084 33.1411 262.144 32.7411 262.144Z" fill="white"/>
<path d="M47.4437 262.144C46.9557 262.144 46.4917 262.06 46.0517 261.892C45.6197 261.724 45.2357 261.472 44.8997 261.136C44.5637 260.792 44.2997 260.372 44.1077 259.876C43.9157 259.372 43.8197 258.792 43.8197 258.136C43.8197 257.272 43.9837 256.536 44.3117 255.928C44.6477 255.312 45.0957 254.844 45.6557 254.524C46.2237 254.196 46.8557 254.032 47.5517 254.032C48.0477 254.032 48.4957 254.136 48.8957 254.344C49.2957 254.544 49.6277 254.772 49.8917 255.028L48.9197 256.12C48.7357 255.944 48.5317 255.808 48.3077 255.712C48.0917 255.608 47.8397 255.556 47.5517 255.556C47.1837 255.556 46.8557 255.66 46.5677 255.868C46.2797 256.068 46.0517 256.356 45.8837 256.732C45.7157 257.108 45.6317 257.556 45.6317 258.076C45.6317 258.612 45.7157 259.072 45.8837 259.456C46.0517 259.832 46.2837 260.12 46.5797 260.32C46.8837 260.52 47.2317 260.62 47.6237 260.62C47.9117 260.62 48.1717 260.556 48.4037 260.428C48.6357 260.3 48.8477 260.132 49.0397 259.924L50.0117 260.992C49.6917 261.368 49.3157 261.656 48.8837 261.856C48.4517 262.048 47.9717 262.144 47.4437 262.144Z" fill="white"/>
<path d="M53.967 262.144C53.447 262.144 52.955 262.024 52.491 261.784C52.027 261.536 51.651 261.18 51.363 260.716C51.075 260.244 50.931 259.68 50.931 259.024C50.931 258.368 51.075 257.808 51.363 257.344C51.651 256.872 52.027 256.516 52.491 256.276C52.955 256.028 53.447 255.904 53.967 255.904C54.487 255.904 54.979 256.028 55.443 256.276C55.907 256.516 56.283 256.872 56.571 257.344C56.859 257.808 57.003 258.368 57.003 259.024C57.003 259.68 56.859 260.244 56.571 260.716C56.283 261.18 55.907 261.536 55.443 261.784C54.979 262.024 54.487 262.144 53.967 262.144ZM53.967 260.716C54.239 260.716 54.463 260.648 54.639 260.512C54.823 260.376 54.959 260.18 55.047 259.924C55.143 259.668 55.191 259.368 55.191 259.024C55.191 258.68 55.143 258.38 55.047 258.124C54.959 257.868 54.823 257.672 54.639 257.536C54.463 257.4 54.239 257.332 53.967 257.332C53.695 257.332 53.467 257.4 53.283 257.536C53.107 257.672 52.971 257.868 52.875 258.124C52.787 258.38 52.743 258.68 52.743 259.024C52.743 259.368 52.787 259.668 52.875 259.924C52.971 260.18 53.107 260.376 53.283 260.512C53.467 260.648 53.695 260.716 53.967 260.716Z" fill="white"/>
<path d="M57.9823 262V256.048H59.3144L59.4344 256.78H59.4824C59.5944 256.54 59.7504 256.336 59.9504 256.168C60.1504 255.992 60.4223 255.904 60.7663 255.904C61.0224 255.904 61.2423 255.988 61.4263 256.156C61.6104 256.316 61.7344 256.556 61.7984 256.876C61.9104 256.604 62.0704 256.376 62.2784 256.192C62.4944 256 62.7743 255.904 63.1184 255.904C63.5424 255.904 63.8704 256.076 64.1024 256.42C64.3344 256.764 64.4504 257.232 64.4504 257.824V262H62.7704V257.944C62.7704 257.584 62.6623 257.404 62.4464 257.404C62.3344 257.404 62.2344 257.452 62.1464 257.548C62.0663 257.636 61.9864 257.78 61.9064 257.98V262H60.5264V257.944C60.5264 257.76 60.4984 257.624 60.4424 257.536C60.3864 257.448 60.3023 257.404 60.1903 257.404C60.0784 257.404 59.9824 257.452 59.9024 257.548C59.8223 257.636 59.7423 257.78 59.6623 257.98V262H57.9823Z" fill="white"/>
<path d="M65.6217 264.208V256.048H67.0617L67.1937 256.648H67.2297C67.4777 256.432 67.7537 256.256 68.0577 256.12C68.3697 255.976 68.6857 255.904 69.0057 255.904C69.5017 255.904 69.9257 256.028 70.2777 256.276C70.6377 256.524 70.9137 256.876 71.1057 257.332C71.2977 257.788 71.3937 258.32 71.3937 258.928C71.3937 259.608 71.2697 260.188 71.0217 260.668C70.7817 261.148 70.4657 261.516 70.0737 261.772C69.6817 262.02 69.2617 262.144 68.8137 262.144C68.5497 262.144 68.2897 262.088 68.0337 261.976C67.7857 261.864 67.5577 261.704 67.3497 261.496H67.3017L67.3857 262.468V264.208H65.6217ZM68.4057 260.704C68.6297 260.704 68.8297 260.644 69.0057 260.524C69.1817 260.404 69.3217 260.216 69.4257 259.96C69.5297 259.696 69.5817 259.36 69.5817 258.952C69.5817 258.592 69.5417 258.296 69.4617 258.064C69.3817 257.824 69.2617 257.644 69.1017 257.524C68.9497 257.404 68.7457 257.344 68.4897 257.344C68.2977 257.344 68.1097 257.388 67.9257 257.476C67.7497 257.556 67.5697 257.696 67.3857 257.896V260.308C67.5537 260.444 67.7257 260.544 67.9017 260.608C68.0857 260.672 68.2537 260.704 68.4057 260.704Z" fill="white"/>
<path d="M76.693 262.144C75.949 262.144 75.385 261.92 75.001 261.472C74.617 261.024 74.425 260.424 74.425 259.672V254.98H72.565V253.6H76.189V259.744C76.189 260.112 76.289 260.368 76.489 260.512C76.689 260.648 76.909 260.716 77.149 260.716C77.293 260.716 77.437 260.7 77.581 260.668C77.733 260.636 77.901 260.588 78.085 260.524L78.469 261.82C78.165 261.916 77.885 261.992 77.629 262.048C77.381 262.112 77.069 262.144 76.693 262.144Z" fill="white"/>
<path d="M83.1083 262.144C82.4923 262.144 81.9323 262.024 81.4283 261.784C80.9323 261.536 80.5363 261.18 80.2403 260.716C79.9523 260.244 79.8083 259.68 79.8083 259.024C79.8083 258.376 79.9563 257.82 80.2523 257.356C80.5483 256.884 80.9323 256.524 81.4043 256.276C81.8763 256.028 82.3763 255.904 82.9043 255.904C83.5203 255.904 84.0363 256.032 84.4523 256.288C84.8683 256.536 85.1803 256.876 85.3883 257.308C85.6043 257.732 85.7123 258.216 85.7123 258.76C85.7123 258.92 85.7003 259.076 85.6763 259.228C85.6603 259.372 85.6443 259.48 85.6283 259.552H81.1163V258.364H84.4403L84.1643 258.7C84.1643 258.22 84.0603 257.86 83.8523 257.62C83.6523 257.372 83.3563 257.248 82.9643 257.248C82.6763 257.248 82.4243 257.312 82.2083 257.44C81.9923 257.568 81.8243 257.764 81.7043 258.028C81.5843 258.292 81.5243 258.624 81.5243 259.024C81.5243 259.432 81.5963 259.768 81.7403 260.032C81.8843 260.288 82.0923 260.48 82.3643 260.608C82.6363 260.736 82.9643 260.8 83.3483 260.8C83.6203 260.8 83.8763 260.764 84.1163 260.692C84.3643 260.62 84.6203 260.516 84.8843 260.38L85.4723 261.448C85.1283 261.664 84.7483 261.836 84.3323 261.964C83.9163 262.084 83.5083 262.144 83.1083 262.144Z" fill="white"/>
<path d="M86.7876 262L88.8516 258.904L86.9196 256.048H88.8156L89.4276 257.008C89.5236 257.176 89.6276 257.348 89.7396 257.524C89.8516 257.692 89.9556 257.86 90.0516 258.028H90.0996C90.1716 257.86 90.2516 257.688 90.3396 257.512C90.4356 257.336 90.5196 257.168 90.5916 257.008L91.1196 256.048H92.9676L91.0236 259.108L93.0876 262H91.1916L90.5076 261.016C90.3956 260.848 90.2796 260.676 90.1596 260.5C90.0476 260.324 89.9356 260.152 89.8236 259.984H89.7756C89.6876 260.152 89.5956 260.324 89.4996 260.5C89.4036 260.668 89.3116 260.84 89.2236 261.016L88.6356 262H86.7876Z" fill="white"/>
<path d="M96.8749 262V257.428H94.4749V256.048H98.6389V262H96.8749ZM97.6789 255.112C97.3429 255.112 97.0629 255.016 96.8389 254.824C96.6149 254.624 96.5029 254.364 96.5029 254.044C96.5029 253.716 96.6149 253.452 96.8389 253.252C97.0629 253.044 97.3429 252.94 97.6789 252.94C98.0229 252.94 98.3029 253.044 98.5189 253.252C98.7429 253.452 98.8549 253.716 98.8549 254.044C98.8549 254.364 98.7429 254.624 98.5189 254.824C98.3029 255.016 98.0229 255.112 97.6789 255.112Z" fill="white"/>
<path d="M105.39 262.144C104.758 262.144 104.254 262.036 103.878 261.82C103.51 261.596 103.242 261.288 103.074 260.896C102.906 260.504 102.822 260.048 102.822 259.528V257.428H101.334V256.12L102.906 256.048L103.134 254.224H104.586V256.048H107.106V257.428H104.586V259.516C104.586 259.812 104.63 260.052 104.718 260.236C104.806 260.42 104.942 260.556 105.126 260.644C105.31 260.724 105.546 260.764 105.834 260.764C106.066 260.764 106.278 260.744 106.47 260.704C106.662 260.664 106.846 260.612 107.022 260.548L107.334 261.82C107.07 261.9 106.778 261.972 106.458 262.036C106.146 262.108 105.79 262.144 105.39 262.144Z" fill="white"/>
<path d="M109.646 264.328C109.47 264.328 109.306 264.316 109.154 264.292C109.002 264.268 108.862 264.24 108.734 264.208L109.046 262.864C109.126 262.888 109.206 262.904 109.286 262.912C109.366 262.928 109.442 262.936 109.514 262.936C109.858 262.936 110.126 262.86 110.318 262.708C110.518 262.564 110.666 262.38 110.762 262.156L110.882 261.844L108.302 256.048H110.054L111.05 258.604C111.162 258.884 111.266 259.176 111.362 259.48C111.458 259.776 111.554 260.08 111.65 260.392H111.698C111.778 260.096 111.866 259.796 111.962 259.492C112.058 259.188 112.15 258.892 112.238 258.604L113.114 256.048H114.782L112.43 262.06C112.246 262.556 112.03 262.972 111.782 263.308C111.542 263.644 111.25 263.896 110.906 264.064C110.57 264.24 110.15 264.328 109.646 264.328Z" fill="white"/>
<path d="M3.18149 288.877C3.18149 286.651 3.8436 284.254 5.16782 281.688C6.50376 279.11 8.16782 277.141 10.16 275.781C12.1522 274.422 14.0799 273.742 15.9432 273.742C16.9159 273.742 17.9881 274 19.16 274.516C20.3436 275.031 21.369 276.051 22.2362 277.574C23.1151 279.098 23.5545 280.949 23.5545 283.129C23.5545 286.926 22.2596 290.424 19.6698 293.623C17.0799 296.822 14.2499 298.422 11.1795 298.422C8.89438 298.422 6.99009 297.59 5.46665 295.926C3.94321 294.262 3.18149 291.912 3.18149 288.877ZM6.32798 290.653C6.32798 292.317 6.48618 293.6 6.80259 294.502C7.11899 295.405 7.65219 296.155 8.40219 296.752C9.15219 297.35 10.0545 297.649 11.1092 297.649C12.7616 297.649 14.2967 296.834 15.7147 295.205C17.1444 293.576 18.3163 291.303 19.2303 288.385C20.1444 285.467 20.6014 282.977 20.6014 280.914C20.6014 278.805 20.1561 277.223 19.2655 276.168C18.3866 275.102 17.2557 274.569 15.8729 274.569C14.2557 274.569 12.7264 275.348 11.285 276.906C9.8436 278.465 8.65415 280.639 7.71665 283.428C6.79087 286.217 6.32798 288.625 6.32798 290.653Z" fill="white"/>
<path d="M32.4315 306.596H31.2186C27.3045 301.733 25.3475 296.172 25.3475 289.914C25.3475 283.996 27.2401 278.67 31.0252 273.936H32.2381C30.3749 275.987 28.9393 278.406 27.9315 281.196C26.9354 283.985 26.4374 286.85 26.4374 289.791C26.4374 293.436 27.0174 296.723 28.1776 299.653C29.3495 302.594 30.7674 304.908 32.4315 306.596Z" fill="white"/>
<path d="M41.9237 274.393H42.6971V293.061C42.6971 294.596 42.7147 295.563 42.7499 295.961C42.7967 296.36 42.9666 296.664 43.2596 296.875C43.5526 297.086 44.0741 297.192 44.8241 297.192H45.5096V298H37.5995V297.192H38.1795C39.0233 297.192 39.5682 297.074 39.8143 296.84C40.0721 296.594 40.2186 296.307 40.2538 295.979C40.3006 295.639 40.3241 294.666 40.3241 293.061V280.545C40.3241 278.963 40.3065 278.008 40.2713 277.68C40.2362 277.34 40.0838 277.047 39.8143 276.801C39.5565 276.543 39.0116 276.414 38.1795 276.414H37.4237V275.606C39.451 275.571 40.951 275.166 41.9237 274.393Z" fill="white"/>
<path d="M50.0799 306.596C51.7323 304.908 53.1385 302.594 54.2987 299.653C55.4706 296.723 56.0565 293.436 56.0565 289.791C56.0565 286.99 55.5819 284.19 54.6327 281.389C53.6834 278.588 52.2245 276.104 50.2557 273.936H51.4862C55.2713 278.67 57.1639 283.996 57.1639 289.914C57.1639 296.172 55.2069 301.733 51.2928 306.596H50.0799Z" fill="white"/>
</svg>
