<svg width="210" height="307" viewBox="0 0 210 307" fill="none" xmlns="http://www.w3.org/2000/svg">
<path d="M0.84 10.0002V2.17623H3.468C4.012 2.17623 4.5 2.23623 4.932 2.35623C5.364 2.46823 5.704 2.66423 5.952 2.94423C6.208 3.22423 6.336 3.61623 6.336 4.12023C6.336 4.47223 6.228 4.81223 6.012 5.14023C5.796 5.46823 5.456 5.69223 4.992 5.81223V5.86023C5.552 5.95623 5.976 6.15623 6.264 6.46023C6.552 6.75623 6.696 7.16823 6.696 7.69623C6.696 8.22423 6.564 8.66023 6.3 9.00423C6.036 9.34023 5.676 9.59223 5.22 9.76023C4.772 9.92023 4.264 10.0002 3.696 10.0002H0.84ZM2.604 5.32023H3.384C3.816 5.32023 4.128 5.23623 4.32 5.06823C4.512 4.89223 4.608 4.65623 4.608 4.36023C4.608 4.07223 4.508 3.86823 4.308 3.74823C4.116 3.62023 3.812 3.55623 3.396 3.55623H2.604V5.32023ZM2.604 8.62023H3.552C4.032 8.62023 4.388 8.53223 4.62 8.35623C4.852 8.18023 4.968 7.91623 4.968 7.56423C4.968 7.22023 4.852 6.97223 4.62 6.82023C4.388 6.66823 4.032 6.59223 3.552 6.59223H2.604V8.62023Z" fill="white"/>
<path d="M11.1073 10.1442C10.4913 10.1442 9.93131 10.0242 9.42731 9.78423C8.93131 9.53623 8.53531 9.18023 8.23931 8.71623C7.95131 8.24423 7.80731 7.68023 7.80731 7.02423C7.80731 6.37623 7.95531 5.82023 8.25131 5.35623C8.54731 4.88423 8.93131 4.52423 9.40331 4.27623C9.87531 4.02823 10.3753 3.90423 10.9033 3.90423C11.5193 3.90423 12.0353 4.03223 12.4513 4.28823C12.8673 4.53623 13.1793 4.87623 13.3873 5.30823C13.6033 5.73223 13.7113 6.21623 13.7113 6.76023C13.7113 6.92023 13.6993 7.07623 13.6753 7.22823C13.6593 7.37223 13.6433 7.48023 13.6273 7.55223H9.11531V6.36423H12.4393L12.1633 6.70023C12.1633 6.22023 12.0593 5.86023 11.8513 5.62023C11.6513 5.37223 11.3553 5.24823 10.9633 5.24823C10.6753 5.24823 10.4233 5.31223 10.2073 5.44023C9.99131 5.56823 9.82331 5.76423 9.70331 6.02823C9.58331 6.29223 9.52331 6.62423 9.52331 7.02423C9.52331 7.43223 9.59531 7.76823 9.73931 8.03223C9.88331 8.28823 10.0913 8.48023 10.3633 8.60823C10.6353 8.73623 10.9633 8.80023 11.3473 8.80023C11.6193 8.80023 11.8753 8.76423 12.1153 8.69223C12.3633 8.62023 12.6193 8.51623 12.8833 8.38023L13.4713 9.44823C13.1273 9.66423 12.7473 9.83623 12.3313 9.96423C11.9153 10.0842 11.5073 10.1442 11.1073 10.1442Z" fill="white"/>
<path d="M17.8946 10.1442C17.3666 10.1442 16.8426 10.0562 16.3226 9.88023C15.8026 9.69623 15.3546 9.48023 14.9786 9.23223L15.7346 8.12823C16.0946 8.36023 16.4746 8.53623 16.8746 8.65623C17.2826 8.77623 17.7026 8.83623 18.1346 8.83623C18.4626 8.83623 18.7026 8.78823 18.8546 8.69223C19.0066 8.58823 19.0826 8.46823 19.0826 8.33223C19.0826 8.24423 19.0586 8.17223 19.0106 8.11623C18.9706 8.05223 18.8946 7.99623 18.7826 7.94823C18.6786 7.89223 18.5306 7.84023 18.3386 7.79223C18.1546 7.74423 17.9146 7.68823 17.6186 7.62423C16.8106 7.44823 16.2306 7.20823 15.8786 6.90423C15.5266 6.60023 15.3506 6.22023 15.3506 5.76423C15.3506 5.20423 15.5946 4.75623 16.0826 4.42023C16.5706 4.07623 17.2386 3.90423 18.0866 3.90423C18.6226 3.90423 19.1066 3.99223 19.5386 4.16823C19.9786 4.33623 20.3546 4.52023 20.6666 4.72023L19.8746 5.77623C19.5786 5.59223 19.2626 5.45223 18.9266 5.35623C18.5906 5.26023 18.2586 5.21223 17.9306 5.21223C17.7466 5.21223 17.5946 5.23223 17.4746 5.27223C17.3546 5.30423 17.2626 5.36023 17.1986 5.44023C17.1346 5.51223 17.1026 5.59223 17.1026 5.68023C17.1026 5.84023 17.2066 5.96023 17.4146 6.04023C17.6226 6.11223 17.9786 6.20423 18.4826 6.31623C19.0906 6.45223 19.5666 6.60823 19.9106 6.78423C20.2546 6.96023 20.4906 7.16423 20.6186 7.39623C20.7546 7.62023 20.8226 7.89623 20.8226 8.22423C20.8226 8.58423 20.7106 8.90823 20.4866 9.19623C20.2706 9.48423 19.9426 9.71623 19.5026 9.89223C19.0706 10.0602 18.5346 10.1442 17.8946 10.1442Z" fill="white"/>
<path d="M26.1939 10.1442C25.5619 10.1442 25.0579 10.0362 24.6819 9.82023C24.3139 9.59623 24.0459 9.28823 23.8779 8.89623C23.7099 8.50423 23.6259 8.04823 23.6259 7.52823V5.42823H22.1379V4.12023L23.7099 4.04823L23.9379 2.22423H25.3899V4.04823H27.9099V5.42823H25.3899V7.51623C25.3899 7.81223 25.4339 8.05223 25.5219 8.23623C25.6099 8.42023 25.7459 8.55623 25.9299 8.64423C26.1139 8.72423 26.3499 8.76423 26.6379 8.76423C26.8699 8.76423 27.0819 8.74423 27.2739 8.70423C27.4659 8.66423 27.6499 8.61223 27.8259 8.54823L28.1379 9.82023C27.8739 9.90023 27.5819 9.97223 27.2619 10.0362C26.9499 10.1082 26.5939 10.1442 26.1939 10.1442Z" fill="white"/>
<path d="M40.2006 10.1442C39.7126 10.1442 39.2486 10.0602 38.8086 9.89223C38.3766 9.72423 37.9926 9.47223 37.6566 9.13623C37.3206 8.79223 37.0566 8.37223 36.8646 7.87623C36.6726 7.37223 36.5766 6.79223 36.5766 6.13623C36.5766 5.27223 36.7406 4.53623 37.0686 3.92823C37.4046 3.31223 37.8526 2.84423 38.4126 2.52423C38.9806 2.19623 39.6126 2.03223 40.3086 2.03223C40.8046 2.03223 41.2526 2.13623 41.6526 2.34423C42.0526 2.54423 42.3846 2.77223 42.6486 3.02823L41.6766 4.12023C41.4926 3.94423 41.2886 3.80823 41.0646 3.71223C40.8486 3.60823 40.5966 3.55623 40.3086 3.55623C39.9406 3.55623 39.6126 3.66023 39.3246 3.86823C39.0366 4.06823 38.8086 4.35623 38.6406 4.73223C38.4726 5.10823 38.3886 5.55623 38.3886 6.07623C38.3886 6.61223 38.4726 7.07223 38.6406 7.45623C38.8086 7.83223 39.0406 8.12023 39.3366 8.32023C39.6406 8.52023 39.9886 8.62023 40.3806 8.62023C40.6686 8.62023 40.9286 8.55623 41.1606 8.42823C41.3926 8.30023 41.6046 8.13223 41.7966 7.92423L42.7686 8.99223C42.4486 9.36823 42.0726 9.65623 41.6406 9.85623C41.2086 10.0482 40.7286 10.1442 40.2006 10.1442Z" fill="white"/>
<path d="M45.8119 10.1442C45.4119 10.1442 45.0639 10.0642 44.7679 9.90423C44.4799 9.74423 44.2559 9.52823 44.0959 9.25623C43.9359 8.98423 43.8559 8.68023 43.8559 8.34423C43.8559 7.68023 44.1559 7.17223 44.7559 6.82023C45.3639 6.46823 46.3719 6.25223 47.7799 6.17223C47.7559 5.98823 47.6959 5.83223 47.5999 5.70423C47.5039 5.57623 47.3639 5.48023 47.1799 5.41623C47.0039 5.34423 46.7799 5.30823 46.5079 5.30823C46.3159 5.30823 46.1239 5.33223 45.9319 5.38023C45.7399 5.42023 45.5399 5.48423 45.3319 5.57223C45.1319 5.65223 44.9199 5.74823 44.6959 5.86023L44.0719 4.70823C44.3439 4.54823 44.6279 4.40823 44.9239 4.28823C45.2279 4.16823 45.5399 4.07623 45.8599 4.01223C46.1879 3.94023 46.5199 3.90423 46.8559 3.90423C47.4159 3.90423 47.8959 4.00423 48.2959 4.20423C48.6959 4.39623 49.0039 4.69223 49.2199 5.09223C49.4359 5.48423 49.5439 5.98423 49.5439 6.59223V10.0002H48.1039L47.9719 9.32823H47.9239C47.6279 9.55223 47.2999 9.74423 46.9399 9.90423C46.5799 10.0642 46.2039 10.1442 45.8119 10.1442ZM46.3759 8.77623C46.6399 8.77623 46.8879 8.72423 47.1199 8.62023C47.3519 8.50823 47.5719 8.37223 47.7799 8.21223V7.22823C47.1959 7.26023 46.7399 7.32023 46.4119 7.40823C46.0919 7.49623 45.8679 7.60823 45.7399 7.74423C45.6119 7.88023 45.5479 8.03623 45.5479 8.21223C45.5479 8.33223 45.5799 8.43623 45.6439 8.52423C45.7159 8.61223 45.8119 8.67623 45.9319 8.71623C46.0599 8.75623 46.2079 8.77623 46.3759 8.77623Z" fill="white"/>
<path d="M53.8712 10.1442C53.3432 10.1442 52.8192 10.0562 52.2992 9.88023C51.7792 9.69623 51.3312 9.48023 50.9552 9.23223L51.7112 8.12823C52.0712 8.36023 52.4512 8.53623 52.8512 8.65623C53.2592 8.77623 53.6792 8.83623 54.1112 8.83623C54.4392 8.83623 54.6792 8.78823 54.8312 8.69223C54.9832 8.58823 55.0592 8.46823 55.0592 8.33223C55.0592 8.24423 55.0352 8.17223 54.9872 8.11623C54.9472 8.05223 54.8712 7.99623 54.7592 7.94823C54.6552 7.89223 54.5072 7.84023 54.3152 7.79223C54.1312 7.74423 53.8912 7.68823 53.5952 7.62423C52.7872 7.44823 52.2072 7.20823 51.8552 6.90423C51.5032 6.60023 51.3272 6.22023 51.3272 5.76423C51.3272 5.20423 51.5712 4.75623 52.0592 4.42023C52.5472 4.07623 53.2152 3.90423 54.0632 3.90423C54.5992 3.90423 55.0832 3.99223 55.5152 4.16823C55.9552 4.33623 56.3312 4.52023 56.6432 4.72023L55.8512 5.77623C55.5552 5.59223 55.2392 5.45223 54.9032 5.35623C54.5672 5.26023 54.2352 5.21223 53.9072 5.21223C53.7232 5.21223 53.5712 5.23223 53.4512 5.27223C53.3312 5.30423 53.2392 5.36023 53.1752 5.44023C53.1112 5.51223 53.0792 5.59223 53.0792 5.68023C53.0792 5.84023 53.1832 5.96023 53.3912 6.04023C53.5992 6.11223 53.9552 6.20423 54.4592 6.31623C55.0672 6.45223 55.5432 6.60823 55.8872 6.78423C56.2312 6.96023 56.4672 7.16423 56.5952 7.39623C56.7312 7.62023 56.7992 7.89623 56.7992 8.22423C56.7992 8.58423 56.6872 8.90823 56.4632 9.19623C56.2472 9.48423 55.9192 9.71623 55.4792 9.89223C55.0472 10.0602 54.5112 10.1442 53.8712 10.1442Z" fill="white"/>
<path d="M61.4745 10.1442C60.8585 10.1442 60.2985 10.0242 59.7945 9.78423C59.2985 9.53623 58.9025 9.18023 58.6065 8.71623C58.3185 8.24423 58.1745 7.68023 58.1745 7.02423C58.1745 6.37623 58.3225 5.82023 58.6185 5.35623C58.9145 4.88423 59.2985 4.52423 59.7705 4.27623C60.2425 4.02823 60.7425 3.90423 61.2705 3.90423C61.8865 3.90423 62.4025 4.03223 62.8185 4.28823C63.2345 4.53623 63.5465 4.87623 63.7545 5.30823C63.9705 5.73223 64.0785 6.21623 64.0785 6.76023C64.0785 6.92023 64.0665 7.07623 64.0425 7.22823C64.0265 7.37223 64.0105 7.48023 63.9945 7.55223H59.4825V6.36423H62.8065L62.5305 6.70023C62.5305 6.22023 62.4265 5.86023 62.2185 5.62023C62.0185 5.37223 61.7225 5.24823 61.3305 5.24823C61.0425 5.24823 60.7905 5.31223 60.5745 5.44023C60.3585 5.56823 60.1905 5.76423 60.0705 6.02823C59.9505 6.29223 59.8905 6.62423 59.8905 7.02423C59.8905 7.43223 59.9625 7.76823 60.1065 8.03223C60.2505 8.28823 60.4585 8.48023 60.7305 8.60823C61.0025 8.73623 61.3305 8.80023 61.7145 8.80023C61.9865 8.80023 62.2425 8.76423 62.4825 8.69223C62.7305 8.62023 62.9865 8.51623 63.2505 8.38023L63.8385 9.44823C63.4945 9.66423 63.1145 9.83623 62.6985 9.96423C62.2825 10.0842 61.8745 10.1442 61.4745 10.1442Z" fill="white"/>
<path d="M3.13364 36.8772C3.13364 34.6506 3.79575 32.2541 5.11997 29.6877C6.45591 27.1096 8.11997 25.1409 10.1122 23.7815C12.1043 22.4221 14.0321 21.7424 15.8954 21.7424C16.868 21.7424 17.9403 22.0002 19.1122 22.5159C20.2957 23.0315 21.3211 24.051 22.1883 25.5744C23.0672 27.0979 23.5067 28.9494 23.5067 31.1291C23.5067 34.926 22.2118 38.4241 19.6219 41.6233C17.0321 44.8225 14.202 46.4221 11.1317 46.4221C8.84653 46.4221 6.94223 45.5901 5.4188 43.926C3.89536 42.2619 3.13364 39.9123 3.13364 36.8772ZM6.28013 38.6526C6.28013 40.3166 6.43833 41.5998 6.75473 42.5022C7.07114 43.4045 7.60434 44.1545 8.35434 44.7522C9.10434 45.3498 10.0067 45.6487 11.0614 45.6487C12.7137 45.6487 14.2489 44.8342 15.6668 43.2053C17.0965 41.5764 18.2684 39.303 19.1825 36.385C20.0965 33.467 20.5536 30.9768 20.5536 28.9143C20.5536 26.8049 20.1082 25.2229 19.2176 24.1682C18.3387 23.1018 17.2079 22.5686 15.825 22.5686C14.2079 22.5686 12.6786 23.3479 11.2372 24.9065C9.79575 26.4651 8.6063 28.6389 7.6688 31.428C6.74302 34.217 6.28013 36.6252 6.28013 38.6526Z" fill="white"/>
<path d="M32.3836 54.5959H31.1707C27.2567 49.7327 25.2997 44.1721 25.2997 37.9143C25.2997 31.9963 27.1922 26.6701 30.9774 21.9358H32.1903C30.327 23.9866 28.8915 26.4065 27.8836 29.1955C26.8875 31.9846 26.3895 34.8498 26.3895 37.7912C26.3895 41.4358 26.9696 44.7229 28.1297 47.6526C29.3016 50.594 30.7196 52.9084 32.3836 54.5959Z" fill="white"/>
<path d="M46.077 42.6955H46.9735C46.2704 43.9612 45.5497 44.9104 44.8114 45.5432C44.0848 46.176 43.3407 46.4924 42.579 46.4924C42.0516 46.4924 41.5946 46.3284 41.2079 46.0002C40.8329 45.6838 40.6454 45.2092 40.6454 44.5764C40.6454 44.0491 40.9149 43.0061 41.454 41.4475L43.3348 36.0862C43.8387 34.6213 44.0907 33.6721 44.0907 33.2385C44.0907 32.8518 44.0028 32.5647 43.827 32.3772C43.6629 32.1897 43.4051 32.0959 43.0536 32.0959C42.1629 32.0959 40.9969 33.1448 39.5555 35.2424C38.1258 37.3284 36.8954 40.0647 35.8641 43.4514L35.0028 46.2639H32.8582L35.952 36.2795C36.5145 34.4397 36.7957 33.385 36.7957 33.1155C36.7957 32.9162 36.7606 32.7698 36.6903 32.676C36.62 32.5823 36.5086 32.5354 36.3563 32.5354C35.6649 32.5354 34.8446 33.3909 33.8954 35.1018H33.0868C34.5516 32.4416 35.9403 31.1116 37.2528 31.1116C37.7098 31.1116 38.0497 31.2522 38.2723 31.5334C38.5067 31.803 38.6239 32.219 38.6239 32.7815C38.6239 33.7893 38.2313 35.3479 37.4461 37.4573C39.5672 33.2268 41.6297 31.1116 43.6336 31.1116C44.2782 31.1116 44.8407 31.3284 45.3211 31.7619C45.8016 32.1838 46.0418 32.8049 46.0418 33.6252C46.0418 34.1526 45.8016 35.1369 45.3211 36.5784L43.4403 42.1858C42.9364 43.6975 42.6844 44.5412 42.6844 44.717C42.6844 44.9397 42.7372 45.1096 42.8426 45.2268C42.9598 45.3323 43.1239 45.385 43.3348 45.385C43.7332 45.385 44.161 45.1623 44.618 44.717C45.075 44.26 45.5614 43.5862 46.077 42.6955Z" fill="white"/>
<path d="M47.4305 54.5959C49.0829 52.9084 50.4891 50.594 51.6493 47.6526C52.8211 44.7229 53.4071 41.4358 53.4071 37.7912C53.4071 34.9905 52.9325 32.1897 51.9832 29.3889C51.034 26.5881 49.575 24.1037 47.6063 21.9358H48.8368C52.6219 26.6701 54.5145 31.9963 54.5145 37.9143C54.5145 44.1721 52.5575 49.7327 48.6434 54.5959H47.4305Z" fill="white"/>
<path d="M0.06 94.0002L2.496 86.1762H4.608L7.044 94.0002H5.172L4.164 90.0402C4.068 89.6482 3.964 89.2322 3.852 88.7922C3.74 88.3522 3.636 87.9282 3.54 87.5202H3.492C3.396 87.9282 3.296 88.3522 3.192 88.7922C3.088 89.2322 2.984 89.6482 2.88 90.0402L1.86 94.0002H0.06ZM1.668 92.1402V90.7602H5.412V92.1402H1.668Z" fill="white"/>
<path d="M9.76331 94.0002L7.51931 88.0482H9.29531L10.2313 90.8562C10.3273 91.1522 10.4193 91.4522 10.5073 91.7562C10.5953 92.0602 10.6833 92.3722 10.7713 92.6922H10.8193C10.9073 92.3722 10.9913 92.0602 11.0713 91.7562C11.1593 91.4522 11.2513 91.1522 11.3473 90.8562L12.2833 88.0482H13.9753L11.7913 94.0002H9.76331Z" fill="white"/>
<path d="M18.3026 94.1442C17.6866 94.1442 17.1266 94.0242 16.6226 93.7842C16.1266 93.5362 15.7306 93.1802 15.4346 92.7162C15.1466 92.2442 15.0026 91.6802 15.0026 91.0242C15.0026 90.3762 15.1506 89.8202 15.4466 89.3562C15.7426 88.8842 16.1266 88.5242 16.5986 88.2762C17.0706 88.0282 17.5706 87.9042 18.0986 87.9042C18.7146 87.9042 19.2306 88.0322 19.6466 88.2882C20.0626 88.5362 20.3746 88.8762 20.5826 89.3082C20.7986 89.7322 20.9066 90.2162 20.9066 90.7602C20.9066 90.9202 20.8946 91.0762 20.8706 91.2282C20.8546 91.3722 20.8386 91.4802 20.8226 91.5522H16.3106V90.3642H19.6346L19.3586 90.7002C19.3586 90.2202 19.2546 89.8602 19.0466 89.6202C18.8466 89.3722 18.5506 89.2482 18.1586 89.2482C17.8706 89.2482 17.6186 89.3122 17.4026 89.4402C17.1866 89.5682 17.0186 89.7642 16.8986 90.0282C16.7786 90.2922 16.7186 90.6242 16.7186 91.0242C16.7186 91.4322 16.7906 91.7682 16.9346 92.0322C17.0786 92.2882 17.2866 92.4802 17.5586 92.6082C17.8306 92.7362 18.1586 92.8002 18.5426 92.8002C18.8146 92.8002 19.0706 92.7642 19.3106 92.6922C19.5586 92.6202 19.8146 92.5162 20.0786 92.3802L20.6666 93.4482C20.3226 93.6642 19.9426 93.8362 19.5266 93.9642C19.1106 94.0842 18.7026 94.1442 18.3026 94.1442Z" fill="white"/>
<path d="M22.9299 94.0002V88.0482H24.3699L24.5139 89.3442H24.5499C24.8459 88.8562 25.2019 88.4962 25.6179 88.2642C26.0419 88.0242 26.4899 87.9042 26.9619 87.9042C27.2259 87.9042 27.4379 87.9242 27.5979 87.9642C27.7659 88.0042 27.9379 88.0642 28.1139 88.1442L27.7539 89.6202C27.5699 89.5642 27.4019 89.5242 27.2499 89.5002C27.1059 89.4682 26.9219 89.4522 26.6979 89.4522C26.3299 89.4522 25.9659 89.5602 25.6059 89.7762C25.2539 89.9922 24.9499 90.3682 24.6939 90.9042V94.0002H22.9299Z" fill="white"/>
<path d="M31.4212 94.1442C31.0212 94.1442 30.6733 94.0642 30.3773 93.9042C30.0893 93.7442 29.8652 93.5282 29.7052 93.2562C29.5452 92.9842 29.4653 92.6802 29.4653 92.3442C29.4653 91.6802 29.7652 91.1722 30.3652 90.8202C30.9732 90.4682 31.9812 90.2522 33.3892 90.1722C33.3652 89.9882 33.3053 89.8322 33.2093 89.7042C33.1133 89.5762 32.9732 89.4802 32.7892 89.4162C32.6132 89.3442 32.3892 89.3082 32.1172 89.3082C31.9252 89.3082 31.7333 89.3322 31.5413 89.3802C31.3493 89.4202 31.1492 89.4842 30.9412 89.5722C30.7412 89.6522 30.5293 89.7482 30.3053 89.8602L29.6812 88.7082C29.9532 88.5482 30.2372 88.4082 30.5332 88.2882C30.8372 88.1682 31.1492 88.0762 31.4692 88.0122C31.7972 87.9402 32.1292 87.9042 32.4652 87.9042C33.0252 87.9042 33.5053 88.0042 33.9053 88.2042C34.3053 88.3962 34.6133 88.6922 34.8293 89.0922C35.0453 89.4842 35.1533 89.9842 35.1533 90.5922V94.0002H33.7132L33.5812 93.3282H33.5332C33.2372 93.5522 32.9093 93.7442 32.5493 93.9042C32.1893 94.0642 31.8132 94.1442 31.4212 94.1442ZM31.9852 92.7762C32.2492 92.7762 32.4972 92.7242 32.7292 92.6202C32.9612 92.5082 33.1812 92.3722 33.3892 92.2122V91.2282C32.8052 91.2602 32.3493 91.3202 32.0213 91.4082C31.7013 91.4962 31.4772 91.6082 31.3492 91.7442C31.2212 91.8802 31.1572 92.0362 31.1572 92.2122C31.1572 92.3322 31.1893 92.4362 31.2533 92.5242C31.3253 92.6122 31.4213 92.6762 31.5413 92.7162C31.6693 92.7562 31.8172 92.7762 31.9852 92.7762Z" fill="white"/>
<path d="M39.2526 96.5322C38.7326 96.5322 38.2686 96.4762 37.8606 96.3642C37.4606 96.2602 37.1406 96.0962 36.9006 95.8722C36.6686 95.6482 36.5526 95.3602 36.5526 95.0082C36.5526 94.7682 36.6286 94.5482 36.7806 94.3482C36.9406 94.1482 37.1726 93.9722 37.4766 93.8202V93.7722C37.3086 93.6602 37.1646 93.5242 37.0446 93.3642C36.9326 93.2042 36.8766 93.0002 36.8766 92.7522C36.8766 92.5522 36.9406 92.3522 37.0686 92.1522C37.2046 91.9522 37.3766 91.7802 37.5846 91.6362V91.5882C37.3686 91.4442 37.1846 91.2402 37.0326 90.9762C36.8806 90.7122 36.8046 90.4082 36.8046 90.0642C36.8046 89.5842 36.9206 89.1842 37.1526 88.8642C37.3926 88.5442 37.7046 88.3042 38.0886 88.1442C38.4806 87.9842 38.9006 87.9042 39.3486 87.9042C39.7166 87.9042 40.0446 87.9522 40.3326 88.0482H42.7446V89.3442H41.5446C41.6166 89.4322 41.6766 89.5482 41.7246 89.6922C41.7806 89.8282 41.8086 89.9722 41.8086 90.1242C41.8086 90.5802 41.6966 90.9562 41.4726 91.2522C41.2566 91.5402 40.9646 91.7562 40.5966 91.9002C40.2286 92.0442 39.8126 92.1162 39.3486 92.1162C39.2366 92.1162 39.1086 92.1082 38.9646 92.0922C38.8206 92.0682 38.6766 92.0362 38.5326 91.9962C38.4366 92.0602 38.3686 92.1242 38.3286 92.1882C38.2886 92.2522 38.2686 92.3362 38.2686 92.4402C38.2686 92.5922 38.3486 92.7042 38.5086 92.7762C38.6766 92.8482 38.9326 92.8842 39.2766 92.8842H40.3806C41.1646 92.8842 41.7606 93.0002 42.1686 93.2322C42.5846 93.4642 42.7926 93.8482 42.7926 94.3842C42.7926 94.8002 42.6486 95.1682 42.3606 95.4882C42.0726 95.8162 41.6606 96.0722 41.1246 96.2562C40.5966 96.4402 39.9726 96.5322 39.2526 96.5322ZM39.3486 91.0482C39.5166 91.0482 39.6686 91.0122 39.8046 90.9402C39.9406 90.8682 40.0486 90.7602 40.1286 90.6162C40.2086 90.4642 40.2486 90.2802 40.2486 90.0642C40.2486 89.8562 40.2086 89.6802 40.1286 89.5362C40.0486 89.3922 39.9406 89.2842 39.8046 89.2122C39.6686 89.1322 39.5166 89.0922 39.3486 89.0922C39.1886 89.0922 39.0406 89.1322 38.9046 89.2122C38.7686 89.2842 38.6606 89.3922 38.5806 89.5362C38.5006 89.6802 38.4606 89.8562 38.4606 90.0642C38.4606 90.2802 38.5006 90.4642 38.5806 90.6162C38.6606 90.7602 38.7686 90.8682 38.9046 90.9402C39.0406 91.0122 39.1886 91.0482 39.3486 91.0482ZM39.5046 95.4162C39.8246 95.4162 40.1046 95.3842 40.3446 95.3202C40.5846 95.2562 40.7726 95.1682 40.9086 95.0562C41.0446 94.9522 41.1126 94.8322 41.1126 94.6962C41.1126 94.4962 41.0246 94.3682 40.8486 94.3122C40.6726 94.2642 40.4126 94.2402 40.0686 94.2402H39.3246C39.1086 94.2402 38.9286 94.2322 38.7846 94.2162C38.6486 94.2002 38.5246 94.1802 38.4126 94.1562C38.2606 94.2522 38.1526 94.3442 38.0886 94.4322C38.0246 94.5282 37.9926 94.6322 37.9926 94.7442C37.9926 94.9602 38.1286 95.1242 38.4006 95.2362C38.6726 95.3562 39.0406 95.4162 39.5046 95.4162Z" fill="white"/>
<path d="M47.0839 94.1442C46.4679 94.1442 45.9079 94.0242 45.4039 93.7842C44.9079 93.5362 44.5119 93.1802 44.2159 92.7162C43.9279 92.2442 43.7839 91.6802 43.7839 91.0242C43.7839 90.3762 43.9319 89.8202 44.2279 89.3562C44.5239 88.8842 44.9079 88.5242 45.3799 88.2762C45.8519 88.0282 46.3519 87.9042 46.8799 87.9042C47.4959 87.9042 48.0119 88.0322 48.4279 88.2882C48.8439 88.5362 49.1559 88.8762 49.3639 89.3082C49.5799 89.7322 49.6879 90.2162 49.6879 90.7602C49.6879 90.9202 49.6759 91.0762 49.6519 91.2282C49.6359 91.3722 49.6199 91.4802 49.6039 91.5522H45.0919V90.3642H48.4159L48.1399 90.7002C48.1399 90.2202 48.0359 89.8602 47.8279 89.6202C47.6279 89.3722 47.3319 89.2482 46.9399 89.2482C46.6519 89.2482 46.3999 89.3122 46.1839 89.4402C45.9679 89.5682 45.7999 89.7642 45.6799 90.0282C45.5599 90.2922 45.4999 90.6242 45.4999 91.0242C45.4999 91.4322 45.5719 91.7682 45.7159 92.0322C45.8599 92.2882 46.0679 92.4802 46.3399 92.6082C46.6119 92.7362 46.9399 92.8002 47.3239 92.8002C47.5959 92.8002 47.8519 92.7642 48.0919 92.6922C48.3399 92.6202 48.5959 92.5162 48.8599 92.3802L49.4479 93.4482C49.1039 93.6642 48.7239 93.8362 48.3079 93.9642C47.8919 94.0842 47.4839 94.1442 47.0839 94.1442Z" fill="white"/>
<path d="M61.7865 94.1442C61.2985 94.1442 60.8345 94.0602 60.3945 93.8922C59.9625 93.7242 59.5785 93.4722 59.2425 93.1362C58.9065 92.7922 58.6425 92.3722 58.4505 91.8762C58.2585 91.3722 58.1625 90.7922 58.1625 90.1362C58.1625 89.2722 58.3265 88.5362 58.6545 87.9282C58.9905 87.3122 59.4385 86.8442 59.9985 86.5242C60.5665 86.1962 61.1985 86.0322 61.8945 86.0322C62.3905 86.0322 62.8385 86.1362 63.2385 86.3442C63.6385 86.5442 63.9705 86.7722 64.2345 87.0282L63.2625 88.1202C63.0785 87.9442 62.8745 87.8082 62.6505 87.7122C62.4345 87.6082 62.1825 87.5562 61.8945 87.5562C61.5265 87.5562 61.1985 87.6602 60.9105 87.8682C60.6225 88.0682 60.3945 88.3562 60.2265 88.7322C60.0585 89.1082 59.9745 89.5562 59.9745 90.0762C59.9745 90.6122 60.0585 91.0722 60.2265 91.4562C60.3945 91.8322 60.6265 92.1202 60.9225 92.3202C61.2265 92.5202 61.5745 92.6202 61.9665 92.6202C62.2545 92.6202 62.5145 92.5562 62.7465 92.4282C62.9785 92.3002 63.1905 92.1322 63.3825 91.9242L64.3545 92.9922C64.0345 93.3682 63.6585 93.6562 63.2265 93.8562C62.7945 94.0482 62.3145 94.1442 61.7865 94.1442Z" fill="white"/>
<path d="M67.3978 94.1442C66.9978 94.1442 66.6498 94.0642 66.3538 93.9042C66.0658 93.7442 65.8418 93.5282 65.6818 93.2562C65.5218 92.9842 65.4418 92.6802 65.4418 92.3442C65.4418 91.6802 65.7418 91.1722 66.3418 90.8202C66.9498 90.4682 67.9578 90.2522 69.3658 90.1722C69.3418 89.9882 69.2818 89.8322 69.1858 89.7042C69.0898 89.5762 68.9498 89.4802 68.7658 89.4162C68.5898 89.3442 68.3658 89.3082 68.0938 89.3082C67.9018 89.3082 67.7098 89.3322 67.5178 89.3802C67.3258 89.4202 67.1258 89.4842 66.9178 89.5722C66.7178 89.6522 66.5058 89.7482 66.2818 89.8602L65.6578 88.7082C65.9298 88.5482 66.2138 88.4082 66.5098 88.2882C66.8138 88.1682 67.1258 88.0762 67.4458 88.0122C67.7738 87.9402 68.1058 87.9042 68.4418 87.9042C69.0018 87.9042 69.4818 88.0042 69.8818 88.2042C70.2818 88.3962 70.5898 88.6922 70.8058 89.0922C71.0218 89.4842 71.1298 89.9842 71.1298 90.5922V94.0002H69.6898L69.5578 93.3282H69.5098C69.2138 93.5522 68.8858 93.7442 68.5258 93.9042C68.1658 94.0642 67.7898 94.1442 67.3978 94.1442ZM67.9618 92.7762C68.2258 92.7762 68.4738 92.7242 68.7058 92.6202C68.9378 92.5082 69.1578 92.3722 69.3658 92.2122V91.2282C68.7818 91.2602 68.3258 91.3202 67.9978 91.4082C67.6778 91.4962 67.4538 91.6082 67.3258 91.7442C67.1978 91.8802 67.1338 92.0362 67.1338 92.2122C67.1338 92.3322 67.1658 92.4362 67.2298 92.5242C67.3018 92.6122 67.3978 92.6762 67.5178 92.7162C67.6458 92.7562 67.7938 92.7762 67.9618 92.7762Z" fill="white"/>
<path d="M75.4571 94.1442C74.9291 94.1442 74.4051 94.0562 73.8851 93.8802C73.3651 93.6962 72.9171 93.4802 72.5411 93.2322L73.2971 92.1282C73.6571 92.3602 74.0371 92.5362 74.4371 92.6562C74.8451 92.7762 75.2651 92.8362 75.6971 92.8362C76.0251 92.8362 76.2651 92.7882 76.4171 92.6922C76.5691 92.5882 76.6451 92.4682 76.6451 92.3322C76.6451 92.2442 76.6211 92.1722 76.5731 92.1162C76.5331 92.0522 76.4571 91.9962 76.3451 91.9482C76.2411 91.8922 76.0931 91.8402 75.9011 91.7922C75.7171 91.7442 75.4771 91.6882 75.1811 91.6242C74.3731 91.4482 73.7931 91.2082 73.4411 90.9042C73.0891 90.6002 72.9131 90.2202 72.9131 89.7642C72.9131 89.2042 73.1571 88.7562 73.6451 88.4202C74.1331 88.0762 74.8011 87.9042 75.6491 87.9042C76.1851 87.9042 76.6691 87.9922 77.1011 88.1682C77.5411 88.3362 77.9171 88.5202 78.2291 88.7202L77.4371 89.7762C77.1411 89.5922 76.8251 89.4522 76.4891 89.3562C76.1531 89.2602 75.8211 89.2122 75.4931 89.2122C75.3091 89.2122 75.1571 89.2322 75.0371 89.2722C74.9171 89.3042 74.8251 89.3602 74.7611 89.4402C74.6971 89.5122 74.6651 89.5922 74.6651 89.6802C74.6651 89.8402 74.7691 89.9602 74.9771 90.0402C75.1851 90.1122 75.5411 90.2042 76.0451 90.3162C76.6531 90.4522 77.1291 90.6082 77.4731 90.7842C77.8171 90.9602 78.0531 91.1642 78.1811 91.3962C78.3171 91.6202 78.3851 91.8962 78.3851 92.2242C78.3851 92.5842 78.2731 92.9082 78.0491 93.1962C77.8331 93.4842 77.5051 93.7162 77.0651 93.8922C76.6331 94.0602 76.0971 94.1442 75.4571 94.1442Z" fill="white"/>
<path d="M83.0604 94.1442C82.4444 94.1442 81.8844 94.0242 81.3804 93.7842C80.8844 93.5362 80.4884 93.1802 80.1924 92.7162C79.9044 92.2442 79.7604 91.6802 79.7604 91.0242C79.7604 90.3762 79.9084 89.8202 80.2044 89.3562C80.5004 88.8842 80.8844 88.5242 81.3564 88.2762C81.8284 88.0282 82.3284 87.9042 82.8564 87.9042C83.4724 87.9042 83.9884 88.0322 84.4044 88.2882C84.8204 88.5362 85.1324 88.8762 85.3404 89.3082C85.5564 89.7322 85.6644 90.2162 85.6644 90.7602C85.6644 90.9202 85.6524 91.0762 85.6284 91.2282C85.6124 91.3722 85.5964 91.4802 85.5804 91.5522H81.0684V90.3642H84.3924L84.1164 90.7002C84.1164 90.2202 84.0124 89.8602 83.8044 89.6202C83.6044 89.3722 83.3084 89.2482 82.9164 89.2482C82.6284 89.2482 82.3764 89.3122 82.1604 89.4402C81.9444 89.5682 81.7764 89.7642 81.6564 90.0282C81.5364 90.2922 81.4764 90.6242 81.4764 91.0242C81.4764 91.4322 81.5484 91.7682 81.6924 92.0322C81.8364 92.2882 82.0444 92.4802 82.3164 92.6082C82.5884 92.7362 82.9164 92.8002 83.3004 92.8002C83.5724 92.8002 83.8284 92.7642 84.0684 92.6922C84.3164 92.6202 84.5724 92.5162 84.8364 92.3802L85.4244 93.4482C85.0804 93.6642 84.7004 93.8362 84.2844 93.9642C83.8684 94.0842 83.4604 94.1442 83.0604 94.1442Z" fill="white"/>
<path d="M3.13364 120.877C3.13364 118.651 3.79575 116.254 5.11997 113.688C6.45591 111.11 8.11997 109.141 10.1122 107.781C12.1043 106.422 14.0321 105.742 15.8954 105.742C16.868 105.742 17.9403 106 19.1122 106.516C20.2957 107.031 21.3211 108.051 22.1883 109.574C23.0672 111.098 23.5067 112.949 23.5067 115.129C23.5067 118.926 22.2118 122.424 19.6219 125.623C17.0321 128.822 14.202 130.422 11.1317 130.422C8.84653 130.422 6.94223 129.59 5.4188 127.926C3.89536 126.262 3.13364 123.912 3.13364 120.877ZM6.28013 122.653C6.28013 124.317 6.43833 125.6 6.75473 126.502C7.07114 127.405 7.60434 128.155 8.35434 128.752C9.10434 129.35 10.0067 129.649 11.0614 129.649C12.7137 129.649 14.2489 128.834 15.6668 127.205C17.0965 125.576 18.2684 123.303 19.1825 120.385C20.0965 117.467 20.5536 114.977 20.5536 112.914C20.5536 110.805 20.1082 109.223 19.2176 108.168C18.3387 107.102 17.2079 106.569 15.825 106.569C14.2079 106.569 12.6786 107.348 11.2372 108.906C9.79575 110.465 8.6063 112.639 7.6688 115.428C6.74302 118.217 6.28013 120.625 6.28013 122.653Z" fill="white"/>
<path d="M32.3836 138.596H31.1707C27.2567 133.733 25.2997 128.172 25.2997 121.914C25.2997 115.996 27.1922 110.67 30.9774 105.936H32.1903C30.327 107.987 28.8915 110.406 27.8836 113.196C26.8875 115.985 26.3895 118.85 26.3895 121.791C26.3895 125.436 26.9696 128.723 28.1297 131.653C29.3016 134.594 30.7196 136.908 32.3836 138.596Z" fill="white"/>
<path d="M46.077 126.696H46.9735C46.2704 127.961 45.5497 128.91 44.8114 129.543C44.0848 130.176 43.3407 130.492 42.579 130.492C42.0516 130.492 41.5946 130.328 41.2079 130C40.8329 129.684 40.6454 129.209 40.6454 128.576C40.6454 128.049 40.9149 127.006 41.454 125.447L43.3348 120.086C43.8387 118.621 44.0907 117.672 44.0907 117.239C44.0907 116.852 44.0028 116.565 43.827 116.377C43.6629 116.19 43.4051 116.096 43.0536 116.096C42.1629 116.096 40.9969 117.145 39.5555 119.242C38.1258 121.328 36.8954 124.065 35.8641 127.451L35.0028 130.264H32.8582L35.952 120.28C36.5145 118.44 36.7957 117.385 36.7957 117.115C36.7957 116.916 36.7606 116.77 36.6903 116.676C36.62 116.582 36.5086 116.535 36.3563 116.535C35.6649 116.535 34.8446 117.391 33.8954 119.102H33.0868C34.5516 116.442 35.9403 115.112 37.2528 115.112C37.7098 115.112 38.0497 115.252 38.2723 115.533C38.5067 115.803 38.6239 116.219 38.6239 116.781C38.6239 117.789 38.2313 119.348 37.4461 121.457C39.5672 117.227 41.6297 115.112 43.6336 115.112C44.2782 115.112 44.8407 115.328 45.3211 115.762C45.8016 116.184 46.0418 116.805 46.0418 117.625C46.0418 118.153 45.8016 119.137 45.3211 120.578L43.4403 126.186C42.9364 127.697 42.6844 128.541 42.6844 128.717C42.6844 128.94 42.7372 129.11 42.8426 129.227C42.9598 129.332 43.1239 129.385 43.3348 129.385C43.7332 129.385 44.161 129.162 44.618 128.717C45.075 128.26 45.5614 127.586 46.077 126.696Z" fill="white"/>
<path d="M56.0234 105.83V125.061C56.0234 126.596 56.041 127.563 56.0761 127.961C56.123 128.36 56.2929 128.664 56.5859 128.875C56.8789 129.086 57.4004 129.192 58.1504 129.192H58.5722V130H50.873V129.192H51.3652C52.0683 129.192 52.5664 129.098 52.8593 128.91C53.164 128.711 53.3457 128.436 53.4043 128.084C53.4629 127.733 53.4922 126.725 53.4922 125.061V110.822C53.4922 109.311 53.3574 108.362 53.0879 107.975C52.8183 107.576 52.1621 107.377 51.1191 107.377V106.569C51.834 106.569 52.6718 106.487 53.6328 106.322C54.6054 106.158 55.2734 105.994 55.6367 105.83H56.0234Z" fill="white"/>
<path d="M60.4883 122.776C60.4883 120.572 61.2265 118.733 62.7031 117.256C64.1797 115.768 65.9961 115.024 68.1523 115.024C70.3203 115.024 72.1426 115.768 73.6191 117.256C75.0957 118.744 75.834 120.584 75.834 122.776C75.834 125.201 75.084 127.112 73.584 128.506C72.084 129.889 70.2734 130.58 68.1523 130.58C66.0312 130.58 64.2207 129.877 62.7207 128.471C61.2324 127.053 60.4883 125.155 60.4883 122.776ZM63.4062 122.864C63.4062 125.418 63.8222 127.211 64.6543 128.242C65.4863 129.262 66.6523 129.772 68.1523 129.772C69.6875 129.772 70.8594 129.262 71.6679 128.242C72.4883 127.211 72.8984 125.418 72.8984 122.864C72.8984 120.332 72.4941 118.528 71.6855 117.449C70.8769 116.371 69.6992 115.832 68.1523 115.832C66.6172 115.832 65.4394 116.371 64.6191 117.449C63.8105 118.516 63.4062 120.321 63.4062 122.864Z" fill="white"/>
<path d="M89.4922 116.869C90.4883 115.744 91.4961 115.182 92.5156 115.182C93.0781 115.182 93.5117 115.334 93.8164 115.639C94.1328 115.944 94.291 116.278 94.291 116.641C94.291 117.414 93.9394 117.801 93.2363 117.801C92.8496 117.801 92.5156 117.561 92.2343 117.08C91.9765 116.635 91.707 116.412 91.4258 116.412C90.9804 116.412 90.4883 116.717 89.9492 117.326C90.5586 118.287 90.8633 119.307 90.8633 120.385C90.8633 121.791 90.3593 123.033 89.3515 124.112C88.3437 125.201 86.6445 125.787 84.2539 125.869C81.7695 125.951 80.5273 126.455 80.5273 127.381C80.5273 127.815 80.8086 128.119 81.3711 128.295C81.9218 128.483 83.082 128.623 84.8515 128.717C86.7851 128.811 88.2734 128.992 89.3164 129.262C90.3593 129.52 91.1914 130.047 91.8125 130.844C92.4336 131.641 92.7441 132.59 92.7441 133.692C92.7441 135.239 92.1113 136.487 90.8457 137.436C89.58 138.385 87.7578 138.86 85.3789 138.86C83.1992 138.86 81.4531 138.438 80.1406 137.594C78.8281 136.75 78.1718 135.684 78.1718 134.395C78.1718 133.68 78.3593 133.094 78.7343 132.637C79.1093 132.18 79.6425 131.951 80.334 131.951C80.5215 131.951 80.6914 131.981 80.8437 132.039C80.1172 132.836 79.7539 133.68 79.7539 134.571C79.7539 135.602 80.2343 136.451 81.1953 137.119C82.1679 137.799 83.6152 138.139 85.5371 138.139C87.248 138.139 88.5781 137.793 89.5273 137.102C90.4883 136.422 90.9687 135.549 90.9687 134.483C90.9687 133.311 90.541 132.485 89.6855 132.004C88.83 131.535 87.3066 131.254 85.1152 131.16C82.5957 131.055 80.9609 130.744 80.2109 130.229C79.4609 129.725 79.0859 129.074 79.0859 128.278C79.0859 126.742 80.1582 125.776 82.3027 125.377C81.1894 124.721 80.3515 123.971 79.789 123.127C79.2265 122.283 78.9453 121.34 78.9453 120.297C78.9453 118.832 79.5195 117.59 80.6679 116.571C81.8281 115.539 83.1992 115.024 84.7812 115.024C86.7383 115.024 88.3086 115.639 89.4922 116.869ZM81.582 120.701C81.582 122.213 81.8925 123.321 82.5136 124.024C83.1347 124.727 83.9258 125.078 84.8867 125.078C85.7773 125.078 86.539 124.733 87.1718 124.041C87.8164 123.338 88.1386 122.125 88.1386 120.403C88.1386 118.668 87.7988 117.473 87.1191 116.817C86.4394 116.16 85.6718 115.832 84.8164 115.832C83.7383 115.832 82.9297 116.237 82.3906 117.045C81.8515 117.854 81.582 119.072 81.582 120.701Z" fill="white"/>
<path d="M110.759 126.696H111.655C110.952 127.961 110.232 128.91 109.493 129.543C108.767 130.176 108.023 130.492 107.261 130.492C106.733 130.492 106.276 130.328 105.89 130C105.515 129.684 105.327 129.209 105.327 128.576C105.327 128.049 105.597 127.006 106.136 125.447L108.017 120.086C108.521 118.621 108.773 117.672 108.773 117.239C108.773 116.852 108.685 116.565 108.509 116.377C108.345 116.19 108.087 116.096 107.735 116.096C106.845 116.096 105.679 117.145 104.237 119.242C102.808 121.328 101.577 124.065 100.546 127.451L99.6847 130.264H97.5401L100.634 120.28C101.196 118.44 101.478 117.385 101.478 117.115C101.478 116.916 101.442 116.77 101.372 116.676C101.302 116.582 101.191 116.535 101.038 116.535C100.347 116.535 99.5265 117.391 98.5772 119.102H97.7686C99.2335 116.442 100.622 115.112 101.935 115.112C102.392 115.112 102.732 115.252 102.954 115.533C103.189 115.803 103.306 116.219 103.306 116.781C103.306 117.789 102.913 119.348 102.128 121.457C104.249 117.227 106.312 115.112 108.316 115.112C108.96 115.112 109.523 115.328 110.003 115.762C110.483 116.184 110.724 116.805 110.724 117.625C110.724 118.153 110.483 119.137 110.003 120.578L108.122 126.186C107.618 127.697 107.366 128.541 107.366 128.717C107.366 128.94 107.419 129.11 107.525 129.227C107.642 129.332 107.806 129.385 108.017 129.385C108.415 129.385 108.843 129.162 109.3 128.717C109.757 128.26 110.243 127.586 110.759 126.696Z" fill="white"/>
<path d="M112.112 138.596C113.765 136.908 115.171 134.594 116.331 131.653C117.503 128.723 118.089 125.436 118.089 121.791C118.089 118.99 117.614 116.19 116.665 113.389C115.716 110.588 114.257 108.104 112.288 105.936H113.519C117.304 110.67 119.196 115.996 119.196 121.914C119.196 128.172 117.239 133.733 113.325 138.596H112.112Z" fill="white"/>
<path d="M1.044 178L0 170.176H1.836L2.076 174.34C2.076 174.564 2.08 174.784 2.088 175C2.096 175.208 2.1 175.42 2.1 175.636C2.108 175.844 2.112 176.068 2.112 176.308H2.16C2.192 176.068 2.228 175.844 2.268 175.636C2.316 175.42 2.364 175.204 2.412 174.988C2.46 174.772 2.504 174.556 2.544 174.34L3.072 172.156H4.2L4.692 174.34C4.74 174.556 4.784 174.768 4.824 174.976C4.864 175.184 4.908 175.4 4.956 175.624C5.004 175.84 5.044 176.068 5.076 176.308H5.124C5.132 176.068 5.136 175.84 5.136 175.624C5.144 175.4 5.148 175.184 5.148 174.976C5.156 174.768 5.164 174.556 5.172 174.34L5.388 170.176H7.104L6.144 178H4.248L3.792 175.576C3.744 175.328 3.7 175.076 3.66 174.82C3.62 174.564 3.592 174.32 3.576 174.088H3.54C3.516 174.32 3.488 174.564 3.456 174.82C3.424 175.076 3.384 175.328 3.336 175.576L2.88 178H1.044Z" fill="white"/>
<path d="M10.7473 178.144C10.2273 178.144 9.73531 178.024 9.27131 177.784C8.80731 177.536 8.43131 177.18 8.14331 176.716C7.85531 176.244 7.71131 175.68 7.71131 175.024C7.71131 174.368 7.85531 173.808 8.14331 173.344C8.43131 172.872 8.80731 172.516 9.27131 172.276C9.73531 172.028 10.2273 171.904 10.7473 171.904C11.2673 171.904 11.7593 172.028 12.2233 172.276C12.6873 172.516 13.0633 172.872 13.3513 173.344C13.6393 173.808 13.7833 174.368 13.7833 175.024C13.7833 175.68 13.6393 176.244 13.3513 176.716C13.0633 177.18 12.6873 177.536 12.2233 177.784C11.7593 178.024 11.2673 178.144 10.7473 178.144ZM10.7473 176.716C11.0193 176.716 11.2433 176.648 11.4193 176.512C11.6033 176.376 11.7393 176.18 11.8273 175.924C11.9233 175.668 11.9713 175.368 11.9713 175.024C11.9713 174.68 11.9233 174.38 11.8273 174.124C11.7393 173.868 11.6033 173.672 11.4193 173.536C11.2433 173.4 11.0193 173.332 10.7473 173.332C10.4753 173.332 10.2473 173.4 10.0633 173.536C9.88731 173.672 9.75131 173.868 9.65531 174.124C9.56731 174.38 9.52331 174.68 9.52331 175.024C9.52331 175.368 9.56731 175.668 9.65531 175.924C9.75131 176.18 9.88731 176.376 10.0633 176.512C10.2473 176.648 10.4753 176.716 10.7473 176.716Z" fill="white"/>
<path d="M15.7346 178V172.048H17.1746L17.3186 173.344H17.3546C17.6506 172.856 18.0066 172.496 18.4226 172.264C18.8466 172.024 19.2946 171.904 19.7666 171.904C20.0306 171.904 20.2426 171.924 20.4026 171.964C20.5706 172.004 20.7426 172.064 20.9186 172.144L20.5586 173.62C20.3746 173.564 20.2066 173.524 20.0546 173.5C19.9106 173.468 19.7266 173.452 19.5026 173.452C19.1346 173.452 18.7706 173.56 18.4106 173.776C18.0586 173.992 17.7546 174.368 17.4986 174.904V178H15.7346Z" fill="white"/>
<path d="M25.0899 178.144C24.5619 178.144 24.0379 178.056 23.5179 177.88C22.9979 177.696 22.5499 177.48 22.1739 177.232L22.9299 176.128C23.2899 176.36 23.6699 176.536 24.0699 176.656C24.4779 176.776 24.8979 176.836 25.3299 176.836C25.6579 176.836 25.8979 176.788 26.0499 176.692C26.2019 176.588 26.2779 176.468 26.2779 176.332C26.2779 176.244 26.2539 176.172 26.2059 176.116C26.1659 176.052 26.0899 175.996 25.9779 175.948C25.8739 175.892 25.7259 175.84 25.5339 175.792C25.3499 175.744 25.1099 175.688 24.8139 175.624C24.0059 175.448 23.4259 175.208 23.0739 174.904C22.7219 174.6 22.5459 174.22 22.5459 173.764C22.5459 173.204 22.7899 172.756 23.2779 172.42C23.7659 172.076 24.4339 171.904 25.2819 171.904C25.8179 171.904 26.3019 171.992 26.7339 172.168C27.1739 172.336 27.5499 172.52 27.8619 172.72L27.0699 173.776C26.7739 173.592 26.4579 173.452 26.1219 173.356C25.7859 173.26 25.4539 173.212 25.1259 173.212C24.9419 173.212 24.7899 173.232 24.6699 173.272C24.5499 173.304 24.4579 173.36 24.3939 173.44C24.3299 173.512 24.2979 173.592 24.2979 173.68C24.2979 173.84 24.4019 173.96 24.6099 174.04C24.8179 174.112 25.1739 174.204 25.6779 174.316C26.2859 174.452 26.7619 174.608 27.1059 174.784C27.4499 174.96 27.6859 175.164 27.8139 175.396C27.9499 175.62 28.0179 175.896 28.0179 176.224C28.0179 176.584 27.9059 176.908 27.6819 177.196C27.4659 177.484 27.1379 177.716 26.6979 177.892C26.2659 178.06 25.7299 178.144 25.0899 178.144Z" fill="white"/>
<path d="M33.3892 178.144C32.7572 178.144 32.2533 178.036 31.8773 177.82C31.5093 177.596 31.2412 177.288 31.0732 176.896C30.9052 176.504 30.8212 176.048 30.8212 175.528V173.428H29.3333V172.12L30.9053 172.048L31.1332 170.224H32.5853V172.048H35.1053V173.428H32.5853V175.516C32.5853 175.812 32.6293 176.052 32.7173 176.236C32.8053 176.42 32.9413 176.556 33.1253 176.644C33.3093 176.724 33.5452 176.764 33.8332 176.764C34.0652 176.764 34.2772 176.744 34.4692 176.704C34.6612 176.664 34.8453 176.612 35.0213 176.548L35.3332 177.82C35.0692 177.9 34.7772 177.972 34.4572 178.036C34.1452 178.108 33.7892 178.144 33.3892 178.144Z" fill="white"/>
<path d="M47.3959 178.144C46.9079 178.144 46.4439 178.06 46.0039 177.892C45.5719 177.724 45.1879 177.472 44.8519 177.136C44.5159 176.792 44.2519 176.372 44.0599 175.876C43.8679 175.372 43.7719 174.792 43.7719 174.136C43.7719 173.272 43.9359 172.536 44.2639 171.928C44.5999 171.312 45.0479 170.844 45.6079 170.524C46.1759 170.196 46.8079 170.032 47.5039 170.032C47.9999 170.032 48.4479 170.136 48.8479 170.344C49.2479 170.544 49.5799 170.772 49.8439 171.028L48.8719 172.12C48.6879 171.944 48.4839 171.808 48.2599 171.712C48.0439 171.608 47.7919 171.556 47.5039 171.556C47.1359 171.556 46.8079 171.66 46.5199 171.868C46.2319 172.068 46.0039 172.356 45.8359 172.732C45.6679 173.108 45.5839 173.556 45.5839 174.076C45.5839 174.612 45.6679 175.072 45.8359 175.456C46.0039 175.832 46.2359 176.12 46.5319 176.32C46.8359 176.52 47.1839 176.62 47.5759 176.62C47.8639 176.62 48.1239 176.556 48.3559 176.428C48.5879 176.3 48.7999 176.132 48.9919 175.924L49.9639 176.992C49.6439 177.368 49.2679 177.656 48.8359 177.856C48.4039 178.048 47.9239 178.144 47.3959 178.144Z" fill="white"/>
<path d="M53.0072 178.144C52.6072 178.144 52.2592 178.064 51.9632 177.904C51.6752 177.744 51.4512 177.528 51.2912 177.256C51.1312 176.984 51.0512 176.68 51.0512 176.344C51.0512 175.68 51.3512 175.172 51.9512 174.82C52.5592 174.468 53.5672 174.252 54.9752 174.172C54.9512 173.988 54.8912 173.832 54.7952 173.704C54.6992 173.576 54.5592 173.48 54.3752 173.416C54.1992 173.344 53.9752 173.308 53.7032 173.308C53.5112 173.308 53.3192 173.332 53.1272 173.38C52.9352 173.42 52.7352 173.484 52.5272 173.572C52.3272 173.652 52.1152 173.748 51.8912 173.86L51.2672 172.708C51.5392 172.548 51.8232 172.408 52.1192 172.288C52.4232 172.168 52.7352 172.076 53.0552 172.012C53.3832 171.94 53.7152 171.904 54.0512 171.904C54.6112 171.904 55.0912 172.004 55.4912 172.204C55.8912 172.396 56.1992 172.692 56.4152 173.092C56.6312 173.484 56.7392 173.984 56.7392 174.592V178H55.2992L55.1672 177.328H55.1192C54.8232 177.552 54.4952 177.744 54.1352 177.904C53.7752 178.064 53.3992 178.144 53.0072 178.144ZM53.5712 176.776C53.8352 176.776 54.0832 176.724 54.3152 176.62C54.5472 176.508 54.7672 176.372 54.9752 176.212V175.228C54.3912 175.26 53.9352 175.32 53.6072 175.408C53.2872 175.496 53.0632 175.608 52.9352 175.744C52.8072 175.88 52.7432 176.036 52.7432 176.212C52.7432 176.332 52.7752 176.436 52.8392 176.524C52.9112 176.612 53.0072 176.676 53.1272 176.716C53.2552 176.756 53.4032 176.776 53.5712 176.776Z" fill="white"/>
<path d="M61.0665 178.144C60.5385 178.144 60.0145 178.056 59.4945 177.88C58.9745 177.696 58.5265 177.48 58.1505 177.232L58.9065 176.128C59.2665 176.36 59.6465 176.536 60.0465 176.656C60.4545 176.776 60.8745 176.836 61.3065 176.836C61.6345 176.836 61.8745 176.788 62.0265 176.692C62.1785 176.588 62.2545 176.468 62.2545 176.332C62.2545 176.244 62.2305 176.172 62.1825 176.116C62.1425 176.052 62.0665 175.996 61.9545 175.948C61.8505 175.892 61.7025 175.84 61.5105 175.792C61.3265 175.744 61.0865 175.688 60.7905 175.624C59.9825 175.448 59.4025 175.208 59.0505 174.904C58.6985 174.6 58.5225 174.22 58.5225 173.764C58.5225 173.204 58.7665 172.756 59.2545 172.42C59.7425 172.076 60.4105 171.904 61.2585 171.904C61.7945 171.904 62.2785 171.992 62.7105 172.168C63.1505 172.336 63.5265 172.52 63.8385 172.72L63.0465 173.776C62.7505 173.592 62.4345 173.452 62.0985 173.356C61.7625 173.26 61.4305 173.212 61.1025 173.212C60.9185 173.212 60.7665 173.232 60.6465 173.272C60.5265 173.304 60.4345 173.36 60.3705 173.44C60.3065 173.512 60.2745 173.592 60.2745 173.68C60.2745 173.84 60.3785 173.96 60.5865 174.04C60.7945 174.112 61.1505 174.204 61.6545 174.316C62.2625 174.452 62.7385 174.608 63.0825 174.784C63.4265 174.96 63.6625 175.164 63.7905 175.396C63.9265 175.62 63.9945 175.896 63.9945 176.224C63.9945 176.584 63.8825 176.908 63.6585 177.196C63.4425 177.484 63.1145 177.716 62.6745 177.892C62.2425 178.06 61.7065 178.144 61.0665 178.144Z" fill="white"/>
<path d="M68.6698 178.144C68.0538 178.144 67.4938 178.024 66.9898 177.784C66.4938 177.536 66.0978 177.18 65.8018 176.716C65.5138 176.244 65.3698 175.68 65.3698 175.024C65.3698 174.376 65.5178 173.82 65.8138 173.356C66.1098 172.884 66.4938 172.524 66.9658 172.276C67.4378 172.028 67.9378 171.904 68.4658 171.904C69.0818 171.904 69.5978 172.032 70.0138 172.288C70.4298 172.536 70.7418 172.876 70.9498 173.308C71.1658 173.732 71.2738 174.216 71.2738 174.76C71.2738 174.92 71.2618 175.076 71.2378 175.228C71.2218 175.372 71.2058 175.48 71.1898 175.552H66.6778V174.364H70.0018L69.7258 174.7C69.7258 174.22 69.6218 173.86 69.4138 173.62C69.2138 173.372 68.9178 173.248 68.5258 173.248C68.2378 173.248 67.9858 173.312 67.7698 173.44C67.5538 173.568 67.3858 173.764 67.2658 174.028C67.1458 174.292 67.0858 174.624 67.0858 175.024C67.0858 175.432 67.1578 175.768 67.3018 176.032C67.4458 176.288 67.6538 176.48 67.9258 176.608C68.1978 176.736 68.5258 176.8 68.9098 176.8C69.1818 176.8 69.4378 176.764 69.6778 176.692C69.9258 176.62 70.1818 176.516 70.4458 176.38L71.0338 177.448C70.6898 177.664 70.3098 177.836 69.8938 177.964C69.4778 178.084 69.0698 178.144 68.6698 178.144Z" fill="white"/>
<path d="M3.13364 204.877C3.13364 202.651 3.79575 200.254 5.11997 197.688C6.45591 195.11 8.11997 193.141 10.1122 191.781C12.1043 190.422 14.0321 189.742 15.8954 189.742C16.868 189.742 17.9403 190 19.1122 190.516C20.2957 191.031 21.3211 192.051 22.1883 193.574C23.0672 195.098 23.5067 196.949 23.5067 199.129C23.5067 202.926 22.2118 206.424 19.6219 209.623C17.0321 212.822 14.202 214.422 11.1317 214.422C8.84653 214.422 6.94223 213.59 5.4188 211.926C3.89536 210.262 3.13364 207.912 3.13364 204.877ZM6.28013 206.653C6.28013 208.317 6.43833 209.6 6.75473 210.502C7.07114 211.405 7.60434 212.155 8.35434 212.752C9.10434 213.35 10.0067 213.649 11.0614 213.649C12.7137 213.649 14.2489 212.834 15.6668 211.205C17.0965 209.576 18.2684 207.303 19.1825 204.385C20.0965 201.467 20.5536 198.977 20.5536 196.914C20.5536 194.805 20.1082 193.223 19.2176 192.168C18.3387 191.102 17.2079 190.569 15.825 190.569C14.2079 190.569 12.6786 191.348 11.2372 192.906C9.79575 194.465 8.6063 196.639 7.6688 199.428C6.74302 202.217 6.28013 204.625 6.28013 206.653Z" fill="white"/>
<path d="M32.3836 222.596H31.1707C27.2567 217.733 25.2997 212.172 25.2997 205.914C25.2997 199.996 27.1922 194.67 30.9774 189.936H32.1903C30.327 191.987 28.8915 194.406 27.8836 197.196C26.8875 199.985 26.3895 202.85 26.3895 205.791C26.3895 209.436 26.9696 212.723 28.1297 215.653C29.3016 218.594 30.7196 220.908 32.3836 222.596Z" fill="white"/>
<path d="M46.077 210.696H46.9735C46.2704 211.961 45.5497 212.91 44.8114 213.543C44.0848 214.176 43.3407 214.492 42.579 214.492C42.0516 214.492 41.5946 214.328 41.2079 214C40.8329 213.684 40.6454 213.209 40.6454 212.576C40.6454 212.049 40.9149 211.006 41.454 209.447L43.3348 204.086C43.8387 202.621 44.0907 201.672 44.0907 201.239C44.0907 200.852 44.0028 200.565 43.827 200.377C43.6629 200.19 43.4051 200.096 43.0536 200.096C42.1629 200.096 40.9969 201.145 39.5555 203.242C38.1258 205.328 36.8954 208.065 35.8641 211.451L35.0028 214.264H32.8582L35.952 204.28C36.5145 202.44 36.7957 201.385 36.7957 201.115C36.7957 200.916 36.7606 200.77 36.6903 200.676C36.62 200.582 36.5086 200.535 36.3563 200.535C35.6649 200.535 34.8446 201.391 33.8954 203.102H33.0868C34.5516 200.442 35.9403 199.112 37.2528 199.112C37.7098 199.112 38.0497 199.252 38.2723 199.533C38.5067 199.803 38.6239 200.219 38.6239 200.781C38.6239 201.789 38.2313 203.348 37.4461 205.457C39.5672 201.227 41.6297 199.112 43.6336 199.112C44.2782 199.112 44.8407 199.328 45.3211 199.762C45.8016 200.184 46.0418 200.805 46.0418 201.625C46.0418 202.153 45.8016 203.137 45.3211 204.578L43.4403 210.186C42.9364 211.697 42.6844 212.541 42.6844 212.717C42.6844 212.94 42.7372 213.11 42.8426 213.227C42.9598 213.332 43.1239 213.385 43.3348 213.385C43.7332 213.385 44.161 213.162 44.618 212.717C45.075 212.26 45.5614 211.586 46.077 210.696Z" fill="white"/>
<path d="M56.0234 189.83V209.061C56.0234 210.596 56.041 211.563 56.0761 211.961C56.123 212.36 56.2929 212.664 56.5859 212.875C56.8789 213.086 57.4004 213.192 58.1504 213.192H58.5722V214H50.873V213.192H51.3652C52.0683 213.192 52.5664 213.098 52.8593 212.91C53.164 212.711 53.3457 212.436 53.4043 212.084C53.4629 211.733 53.4922 210.725 53.4922 209.061V194.822C53.4922 193.311 53.3574 192.362 53.0879 191.975C52.8183 191.576 52.1621 191.377 51.1191 191.377V190.569C51.834 190.569 52.6718 190.487 53.6328 190.322C54.6054 190.158 55.2734 189.994 55.6367 189.83H56.0234Z" fill="white"/>
<path d="M60.4883 206.776C60.4883 204.572 61.2265 202.733 62.7031 201.256C64.1797 199.768 65.9961 199.024 68.1523 199.024C70.3203 199.024 72.1426 199.768 73.6191 201.256C75.0957 202.744 75.834 204.584 75.834 206.776C75.834 209.201 75.084 211.112 73.584 212.506C72.084 213.889 70.2734 214.58 68.1523 214.58C66.0312 214.58 64.2207 213.877 62.7207 212.471C61.2324 211.053 60.4883 209.155 60.4883 206.776ZM63.4062 206.864C63.4062 209.418 63.8222 211.211 64.6543 212.242C65.4863 213.262 66.6523 213.772 68.1523 213.772C69.6875 213.772 70.8594 213.262 71.6679 212.242C72.4883 211.211 72.8984 209.418 72.8984 206.864C72.8984 204.332 72.4941 202.528 71.6855 201.449C70.8769 200.371 69.6992 199.832 68.1523 199.832C66.6172 199.832 65.4394 200.371 64.6191 201.449C63.8105 202.516 63.4062 204.321 63.4062 206.864Z" fill="white"/>
<path d="M89.4922 200.869C90.4883 199.744 91.4961 199.182 92.5156 199.182C93.0781 199.182 93.5117 199.334 93.8164 199.639C94.1328 199.944 94.291 200.278 94.291 200.641C94.291 201.414 93.9394 201.801 93.2363 201.801C92.8496 201.801 92.5156 201.561 92.2343 201.08C91.9765 200.635 91.707 200.412 91.4258 200.412C90.9804 200.412 90.4883 200.717 89.9492 201.326C90.5586 202.287 90.8633 203.307 90.8633 204.385C90.8633 205.791 90.3593 207.033 89.3515 208.112C88.3437 209.201 86.6445 209.787 84.2539 209.869C81.7695 209.951 80.5273 210.455 80.5273 211.381C80.5273 211.815 80.8086 212.119 81.3711 212.295C81.9218 212.483 83.082 212.623 84.8515 212.717C86.7851 212.811 88.2734 212.992 89.3164 213.262C90.3593 213.52 91.1914 214.047 91.8125 214.844C92.4336 215.641 92.7441 216.59 92.7441 217.692C92.7441 219.239 92.1113 220.487 90.8457 221.436C89.58 222.385 87.7578 222.86 85.3789 222.86C83.1992 222.86 81.4531 222.438 80.1406 221.594C78.8281 220.75 78.1718 219.684 78.1718 218.395C78.1718 217.68 78.3593 217.094 78.7343 216.637C79.1093 216.18 79.6425 215.951 80.334 215.951C80.5215 215.951 80.6914 215.981 80.8437 216.039C80.1172 216.836 79.7539 217.68 79.7539 218.571C79.7539 219.602 80.2343 220.451 81.1953 221.119C82.1679 221.799 83.6152 222.139 85.5371 222.139C87.248 222.139 88.5781 221.793 89.5273 221.102C90.4883 220.422 90.9687 219.549 90.9687 218.483C90.9687 217.311 90.541 216.485 89.6855 216.004C88.83 215.535 87.3066 215.254 85.1152 215.16C82.5957 215.055 80.9609 214.744 80.2109 214.229C79.4609 213.725 79.0859 213.074 79.0859 212.278C79.0859 210.742 80.1582 209.776 82.3027 209.377C81.1894 208.721 80.3515 207.971 79.789 207.127C79.2265 206.283 78.9453 205.34 78.9453 204.297C78.9453 202.832 79.5195 201.59 80.6679 200.571C81.8281 199.539 83.1992 199.024 84.7812 199.024C86.7383 199.024 88.3086 199.639 89.4922 200.869ZM81.582 204.701C81.582 206.213 81.8925 207.321 82.5136 208.024C83.1347 208.727 83.9258 209.078 84.8867 209.078C85.7773 209.078 86.539 208.733 87.1718 208.041C87.8164 207.338 88.1386 206.125 88.1386 204.403C88.1386 202.668 87.7988 201.473 87.1191 200.817C86.4394 200.16 85.6718 199.832 84.8164 199.832C83.7383 199.832 82.9297 200.237 82.3906 201.045C81.8515 201.854 81.582 203.072 81.582 204.701Z" fill="white"/>
<path d="M110.759 210.696H111.655C110.952 211.961 110.232 212.91 109.493 213.543C108.767 214.176 108.023 214.492 107.261 214.492C106.733 214.492 106.276 214.328 105.89 214C105.515 213.684 105.327 213.209 105.327 212.576C105.327 212.049 105.597 211.006 106.136 209.447L108.017 204.086C108.521 202.621 108.773 201.672 108.773 201.239C108.773 200.852 108.685 200.565 108.509 200.377C108.345 200.19 108.087 200.096 107.735 200.096C106.845 200.096 105.679 201.145 104.237 203.242C102.808 205.328 101.577 208.065 100.546 211.451L99.6847 214.264H97.5401L100.634 204.28C101.196 202.44 101.478 201.385 101.478 201.115C101.478 200.916 101.442 200.77 101.372 200.676C101.302 200.582 101.191 200.535 101.038 200.535C100.347 200.535 99.5265 201.391 98.5772 203.102H97.7686C99.2335 200.442 100.622 199.112 101.935 199.112C102.392 199.112 102.732 199.252 102.954 199.533C103.189 199.803 103.306 200.219 103.306 200.781C103.306 201.789 102.913 203.348 102.128 205.457C104.249 201.227 106.312 199.112 108.316 199.112C108.96 199.112 109.523 199.328 110.003 199.762C110.483 200.184 110.724 200.805 110.724 201.625C110.724 202.153 110.483 203.137 110.003 204.578L108.122 210.186C107.618 211.697 107.366 212.541 107.366 212.717C107.366 212.94 107.419 213.11 107.525 213.227C107.642 213.332 107.806 213.385 108.017 213.385C108.415 213.385 108.843 213.162 109.3 212.717C109.757 212.26 110.243 211.586 110.759 210.696Z" fill="white"/>
<path d="M112.112 222.596C113.765 220.908 115.171 218.594 116.331 215.653C117.503 212.723 118.089 209.436 118.089 205.791C118.089 202.99 117.614 200.19 116.665 197.389C115.716 194.588 114.257 192.104 112.288 189.936H113.519C117.304 194.67 119.196 199.996 119.196 205.914C119.196 212.172 117.239 217.733 113.325 222.596H112.112Z" fill="white"/>
<path d="M3.528 262.144C3 262.144 2.476 262.048 1.956 261.856C1.444 261.664 0.976 261.384 0.552 261.016L1.572 259.804C1.868 260.044 2.192 260.24 2.544 260.392C2.904 260.544 3.272 260.62 3.648 260.62C4.024 260.62 4.3 260.556 4.476 260.428C4.66 260.3 4.752 260.136 4.752 259.936C4.752 259.752 4.704 259.608 4.608 259.504C4.512 259.392 4.372 259.296 4.188 259.216C4.004 259.128 3.788 259.032 3.54 258.928L2.532 258.496C2.244 258.384 1.972 258.236 1.716 258.052C1.46 257.86 1.252 257.628 1.092 257.356C0.94 257.076 0.864 256.744 0.864 256.36C0.864 255.928 0.984 255.54 1.224 255.196C1.472 254.844 1.808 254.564 2.232 254.356C2.664 254.14 3.164 254.032 3.732 254.032C4.204 254.032 4.668 254.12 5.124 254.296C5.58 254.472 5.984 254.728 6.336 255.064L5.436 256.18C5.164 255.98 4.892 255.828 4.62 255.724C4.348 255.612 4.02 255.556 3.636 255.556C3.348 255.556 3.112 255.616 2.928 255.736C2.744 255.856 2.652 256.032 2.652 256.264C2.652 256.416 2.708 256.544 2.82 256.648C2.932 256.752 3.084 256.844 3.276 256.924C3.468 257.004 3.688 257.092 3.936 257.188L4.884 257.596C5.236 257.724 5.536 257.884 5.784 258.076C6.032 258.26 6.224 258.488 6.36 258.76C6.496 259.032 6.564 259.352 6.564 259.72C6.564 260.152 6.444 260.552 6.204 260.92C5.972 261.288 5.628 261.584 5.172 261.808C4.724 262.032 4.176 262.144 3.528 262.144Z" fill="white"/>
<path d="M8.01131 264.208V256.048H9.45131L9.58331 256.648H9.61931C9.86731 256.432 10.1433 256.256 10.4473 256.12C10.7593 255.976 11.0753 255.904 11.3953 255.904C11.8913 255.904 12.3153 256.028 12.6673 256.276C13.0273 256.524 13.3033 256.876 13.4953 257.332C13.6873 257.788 13.7833 258.32 13.7833 258.928C13.7833 259.608 13.6593 260.188 13.4113 260.668C13.1713 261.148 12.8553 261.516 12.4633 261.772C12.0713 262.02 11.6513 262.144 11.2033 262.144C10.9393 262.144 10.6793 262.088 10.4233 261.976C10.1753 261.864 9.94731 261.704 9.73931 261.496H9.69131L9.77531 262.468V264.208H8.01131ZM10.7953 260.704C11.0193 260.704 11.2193 260.644 11.3953 260.524C11.5713 260.404 11.7113 260.216 11.8153 259.96C11.9193 259.696 11.9713 259.36 11.9713 258.952C11.9713 258.592 11.9313 258.296 11.8513 258.064C11.7713 257.824 11.6513 257.644 11.4913 257.524C11.3393 257.404 11.1353 257.344 10.8793 257.344C10.6873 257.344 10.4993 257.388 10.3153 257.476C10.1393 257.556 9.95931 257.696 9.77531 257.896V260.308C9.94331 260.444 10.1153 260.544 10.2913 260.608C10.4753 260.672 10.6433 260.704 10.7953 260.704Z" fill="white"/>
<path d="M17.0306 262.144C16.6306 262.144 16.2826 262.064 15.9866 261.904C15.6986 261.744 15.4746 261.528 15.3146 261.256C15.1546 260.984 15.0746 260.68 15.0746 260.344C15.0746 259.68 15.3746 259.172 15.9746 258.82C16.5826 258.468 17.5906 258.252 18.9986 258.172C18.9746 257.988 18.9146 257.832 18.8186 257.704C18.7226 257.576 18.5826 257.48 18.3986 257.416C18.2226 257.344 17.9986 257.308 17.7266 257.308C17.5346 257.308 17.3426 257.332 17.1506 257.38C16.9586 257.42 16.7586 257.484 16.5506 257.572C16.3506 257.652 16.1386 257.748 15.9146 257.86L15.2906 256.708C15.5626 256.548 15.8466 256.408 16.1426 256.288C16.4466 256.168 16.7586 256.076 17.0786 256.012C17.4066 255.94 17.7386 255.904 18.0746 255.904C18.6346 255.904 19.1146 256.004 19.5146 256.204C19.9146 256.396 20.2226 256.692 20.4386 257.092C20.6546 257.484 20.7626 257.984 20.7626 258.592V262H19.3226L19.1906 261.328H19.1426C18.8466 261.552 18.5186 261.744 18.1586 261.904C17.7986 262.064 17.4226 262.144 17.0306 262.144ZM17.5946 260.776C17.8586 260.776 18.1066 260.724 18.3386 260.62C18.5706 260.508 18.7906 260.372 18.9986 260.212V259.228C18.4146 259.26 17.9586 259.32 17.6306 259.408C17.3106 259.496 17.0866 259.608 16.9586 259.744C16.8306 259.88 16.7666 260.036 16.7666 260.212C16.7666 260.332 16.7986 260.436 16.8626 260.524C16.9346 260.612 17.0306 260.676 17.1506 260.716C17.2786 260.756 17.4266 260.776 17.5946 260.776Z" fill="white"/>
<path d="M25.6539 262.144C25.0299 262.144 24.4659 262.024 23.9619 261.784C23.4659 261.536 23.0699 261.18 22.7739 260.716C22.4859 260.244 22.3419 259.68 22.3419 259.024C22.3419 258.368 22.5019 257.808 22.8219 257.344C23.1419 256.872 23.5619 256.516 24.0819 256.276C24.6099 256.028 25.1779 255.904 25.7859 255.904C26.2579 255.904 26.6859 255.98 27.0699 256.132C27.4539 256.276 27.7699 256.468 28.0179 256.708L27.2019 257.8C26.9699 257.64 26.7459 257.524 26.5299 257.452C26.3219 257.372 26.1059 257.332 25.8819 257.332C25.5459 257.332 25.2459 257.4 24.9819 257.536C24.7179 257.672 24.5139 257.868 24.3699 258.124C24.2259 258.38 24.1539 258.68 24.1539 259.024C24.1539 259.368 24.2219 259.668 24.3579 259.924C24.5019 260.18 24.6979 260.376 24.9459 260.512C25.2019 260.648 25.4939 260.716 25.8219 260.716C26.1339 260.716 26.4179 260.66 26.6739 260.548C26.9379 260.436 27.1779 260.304 27.3939 260.152L28.1019 261.268C27.7499 261.564 27.3539 261.784 26.9139 261.928C26.4819 262.072 26.0619 262.144 25.6539 262.144Z" fill="white"/>
<path d="M32.6932 262.144C32.0772 262.144 31.5173 262.024 31.0133 261.784C30.5173 261.536 30.1213 261.18 29.8253 260.716C29.5373 260.244 29.3932 259.68 29.3932 259.024C29.3932 258.376 29.5412 257.82 29.8372 257.356C30.1332 256.884 30.5173 256.524 30.9893 256.276C31.4613 256.028 31.9613 255.904 32.4893 255.904C33.1053 255.904 33.6213 256.032 34.0373 256.288C34.4533 256.536 34.7653 256.876 34.9733 257.308C35.1893 257.732 35.2972 258.216 35.2972 258.76C35.2972 258.92 35.2852 259.076 35.2612 259.228C35.2452 259.372 35.2292 259.48 35.2132 259.552H30.7013V258.364H34.0252L33.7492 258.7C33.7492 258.22 33.6452 257.86 33.4372 257.62C33.2372 257.372 32.9413 257.248 32.5493 257.248C32.2613 257.248 32.0092 257.312 31.7932 257.44C31.5772 257.568 31.4092 257.764 31.2892 258.028C31.1692 258.292 31.1092 258.624 31.1092 259.024C31.1092 259.432 31.1813 259.768 31.3253 260.032C31.4693 260.288 31.6772 260.48 31.9492 260.608C32.2212 260.736 32.5493 260.8 32.9333 260.8C33.2053 260.8 33.4613 260.764 33.7013 260.692C33.9493 260.62 34.2052 260.516 34.4692 260.38L35.0573 261.448C34.7133 261.664 34.3333 261.836 33.9173 261.964C33.5013 262.084 33.0932 262.144 32.6932 262.144Z" fill="white"/>
<path d="M47.3959 262.144C46.9079 262.144 46.4439 262.06 46.0039 261.892C45.5719 261.724 45.1879 261.472 44.8519 261.136C44.5159 260.792 44.2519 260.372 44.0599 259.876C43.8679 259.372 43.7719 258.792 43.7719 258.136C43.7719 257.272 43.9359 256.536 44.2639 255.928C44.5999 255.312 45.0479 254.844 45.6079 254.524C46.1759 254.196 46.8079 254.032 47.5039 254.032C47.9999 254.032 48.4479 254.136 48.8479 254.344C49.2479 254.544 49.5799 254.772 49.8439 255.028L48.8719 256.12C48.6879 255.944 48.4839 255.808 48.2599 255.712C48.0439 255.608 47.7919 255.556 47.5039 255.556C47.1359 255.556 46.8079 255.66 46.5199 255.868C46.2319 256.068 46.0039 256.356 45.8359 256.732C45.6679 257.108 45.5839 257.556 45.5839 258.076C45.5839 258.612 45.6679 259.072 45.8359 259.456C46.0039 259.832 46.2359 260.12 46.5319 260.32C46.8359 260.52 47.1839 260.62 47.5759 260.62C47.8639 260.62 48.1239 260.556 48.3559 260.428C48.5879 260.3 48.7999 260.132 48.9919 259.924L49.9639 260.992C49.6439 261.368 49.2679 261.656 48.8359 261.856C48.4039 262.048 47.9239 262.144 47.3959 262.144Z" fill="white"/>
<path d="M53.9192 262.144C53.3992 262.144 52.9072 262.024 52.4432 261.784C51.9792 261.536 51.6032 261.18 51.3152 260.716C51.0272 260.244 50.8832 259.68 50.8832 259.024C50.8832 258.368 51.0272 257.808 51.3152 257.344C51.6032 256.872 51.9792 256.516 52.4432 256.276C52.9072 256.028 53.3992 255.904 53.9192 255.904C54.4392 255.904 54.9312 256.028 55.3952 256.276C55.8592 256.516 56.2352 256.872 56.5232 257.344C56.8112 257.808 56.9552 258.368 56.9552 259.024C56.9552 259.68 56.8112 260.244 56.5232 260.716C56.2352 261.18 55.8592 261.536 55.3952 261.784C54.9312 262.024 54.4392 262.144 53.9192 262.144ZM53.9192 260.716C54.1912 260.716 54.4152 260.648 54.5912 260.512C54.7752 260.376 54.9112 260.18 54.9992 259.924C55.0952 259.668 55.1432 259.368 55.1432 259.024C55.1432 258.68 55.0952 258.38 54.9992 258.124C54.9112 257.868 54.7752 257.672 54.5912 257.536C54.4152 257.4 54.1912 257.332 53.9192 257.332C53.6472 257.332 53.4192 257.4 53.2352 257.536C53.0592 257.672 52.9232 257.868 52.8272 258.124C52.7392 258.38 52.6952 258.68 52.6952 259.024C52.6952 259.368 52.7392 259.668 52.8272 259.924C52.9232 260.18 53.0592 260.376 53.2352 260.512C53.4192 260.648 53.6472 260.716 53.9192 260.716Z" fill="white"/>
<path d="M57.9345 262V256.048H59.2665L59.3865 256.78H59.4345C59.5465 256.54 59.7025 256.336 59.9025 256.168C60.1025 255.992 60.3745 255.904 60.7185 255.904C60.9745 255.904 61.1945 255.988 61.3785 256.156C61.5625 256.316 61.6865 256.556 61.7505 256.876C61.8625 256.604 62.0225 256.376 62.2305 256.192C62.4465 256 62.7265 255.904 63.0705 255.904C63.4945 255.904 63.8225 256.076 64.0545 256.42C64.2865 256.764 64.4025 257.232 64.4025 257.824V262H62.7225V257.944C62.7225 257.584 62.6145 257.404 62.3985 257.404C62.2865 257.404 62.1865 257.452 62.0985 257.548C62.0185 257.636 61.9385 257.78 61.8585 257.98V262H60.4785V257.944C60.4785 257.76 60.4505 257.624 60.3945 257.536C60.3385 257.448 60.2545 257.404 60.1425 257.404C60.0305 257.404 59.9345 257.452 59.8545 257.548C59.7745 257.636 59.6945 257.78 59.6145 257.98V262H57.9345Z" fill="white"/>
<path d="M65.5738 264.208V256.048H67.0138L67.1458 256.648H67.1818C67.4298 256.432 67.7058 256.256 68.0098 256.12C68.3218 255.976 68.6378 255.904 68.9578 255.904C69.4538 255.904 69.8778 256.028 70.2298 256.276C70.5898 256.524 70.8658 256.876 71.0578 257.332C71.2498 257.788 71.3458 258.32 71.3458 258.928C71.3458 259.608 71.2218 260.188 70.9738 260.668C70.7338 261.148 70.4178 261.516 70.0258 261.772C69.6338 262.02 69.2138 262.144 68.7658 262.144C68.5018 262.144 68.2418 262.088 67.9858 261.976C67.7378 261.864 67.5098 261.704 67.3018 261.496H67.2538L67.3378 262.468V264.208H65.5738ZM68.3578 260.704C68.5818 260.704 68.7818 260.644 68.9578 260.524C69.1338 260.404 69.2738 260.216 69.3778 259.96C69.4818 259.696 69.5338 259.36 69.5338 258.952C69.5338 258.592 69.4938 258.296 69.4138 258.064C69.3338 257.824 69.2138 257.644 69.0538 257.524C68.9018 257.404 68.6978 257.344 68.4418 257.344C68.2498 257.344 68.0618 257.388 67.8778 257.476C67.7018 257.556 67.5218 257.696 67.3378 257.896V260.308C67.5058 260.444 67.6778 260.544 67.8538 260.608C68.0378 260.672 68.2058 260.704 68.3578 260.704Z" fill="white"/>
<path d="M76.6451 262.144C75.9011 262.144 75.3371 261.92 74.9531 261.472C74.5691 261.024 74.3771 260.424 74.3771 259.672V254.98H72.5171V253.6H76.1411V259.744C76.1411 260.112 76.2411 260.368 76.4411 260.512C76.6411 260.648 76.8611 260.716 77.1011 260.716C77.2451 260.716 77.3891 260.7 77.5331 260.668C77.6851 260.636 77.8531 260.588 78.0371 260.524L78.4211 261.82C78.1171 261.916 77.8371 261.992 77.5811 262.048C77.3331 262.112 77.0211 262.144 76.6451 262.144Z" fill="white"/>
<path d="M83.0604 262.144C82.4444 262.144 81.8844 262.024 81.3804 261.784C80.8844 261.536 80.4884 261.18 80.1924 260.716C79.9044 260.244 79.7604 259.68 79.7604 259.024C79.7604 258.376 79.9084 257.82 80.2044 257.356C80.5004 256.884 80.8844 256.524 81.3564 256.276C81.8284 256.028 82.3284 255.904 82.8564 255.904C83.4724 255.904 83.9884 256.032 84.4044 256.288C84.8204 256.536 85.1324 256.876 85.3404 257.308C85.5564 257.732 85.6644 258.216 85.6644 258.76C85.6644 258.92 85.6524 259.076 85.6284 259.228C85.6124 259.372 85.5964 259.48 85.5804 259.552H81.0684V258.364H84.3924L84.1164 258.7C84.1164 258.22 84.0124 257.86 83.8044 257.62C83.6044 257.372 83.3084 257.248 82.9164 257.248C82.6284 257.248 82.3764 257.312 82.1604 257.44C81.9444 257.568 81.7764 257.764 81.6564 258.028C81.5364 258.292 81.4764 258.624 81.4764 259.024C81.4764 259.432 81.5484 259.768 81.6924 260.032C81.8364 260.288 82.0444 260.48 82.3164 260.608C82.5884 260.736 82.9164 260.8 83.3004 260.8C83.5724 260.8 83.8284 260.764 84.0684 260.692C84.3164 260.62 84.5724 260.516 84.8364 260.38L85.4244 261.448C85.0804 261.664 84.7004 261.836 84.2844 261.964C83.8684 262.084 83.4604 262.144 83.0604 262.144Z" fill="white"/>
<path d="M86.7398 262L88.8038 258.904L86.8717 256.048H88.7678L89.3798 257.008C89.4758 257.176 89.5798 257.348 89.6918 257.524C89.8038 257.692 89.9078 257.86 90.0038 258.028H90.0518C90.1238 257.86 90.2038 257.688 90.2918 257.512C90.3878 257.336 90.4718 257.168 90.5438 257.008L91.0718 256.048H92.9198L90.9758 259.108L93.0398 262H91.1438L90.4598 261.016C90.3478 260.848 90.2318 260.676 90.1118 260.5C89.9998 260.324 89.8878 260.152 89.7758 259.984H89.7278C89.6398 260.152 89.5478 260.324 89.4518 260.5C89.3558 260.668 89.2638 260.84 89.1758 261.016L88.5878 262H86.7398Z" fill="white"/>
<path d="M96.8271 262V257.428H94.4271V256.048H98.5911V262H96.8271ZM97.6311 255.112C97.2951 255.112 97.0151 255.016 96.7911 254.824C96.5671 254.624 96.4551 254.364 96.4551 254.044C96.4551 253.716 96.5671 253.452 96.7911 253.252C97.0151 253.044 97.2951 252.94 97.6311 252.94C97.9751 252.94 98.2551 253.044 98.4711 253.252C98.6951 253.452 98.8071 253.716 98.8071 254.044C98.8071 254.364 98.6951 254.624 98.4711 254.824C98.2551 255.016 97.9751 255.112 97.6311 255.112Z" fill="white"/>
<path d="M105.342 262.144C104.71 262.144 104.206 262.036 103.83 261.82C103.462 261.596 103.194 261.288 103.026 260.896C102.858 260.504 102.774 260.048 102.774 259.528V257.428H101.286V256.12L102.858 256.048L103.086 254.224H104.538V256.048H107.058V257.428H104.538V259.516C104.538 259.812 104.582 260.052 104.67 260.236C104.758 260.42 104.894 260.556 105.078 260.644C105.262 260.724 105.498 260.764 105.786 260.764C106.018 260.764 106.23 260.744 106.422 260.704C106.614 260.664 106.798 260.612 106.974 260.548L107.286 261.82C107.022 261.9 106.73 261.972 106.41 262.036C106.098 262.108 105.742 262.144 105.342 262.144Z" fill="white"/>
<path d="M109.598 264.328C109.422 264.328 109.258 264.316 109.106 264.292C108.954 264.268 108.814 264.24 108.686 264.208L108.998 262.864C109.078 262.888 109.158 262.904 109.238 262.912C109.318 262.928 109.394 262.936 109.466 262.936C109.81 262.936 110.078 262.86 110.27 262.708C110.47 262.564 110.618 262.38 110.714 262.156L110.834 261.844L108.254 256.048H110.006L111.002 258.604C111.114 258.884 111.218 259.176 111.314 259.48C111.41 259.776 111.506 260.08 111.602 260.392H111.65C111.73 260.096 111.818 259.796 111.914 259.492C112.01 259.188 112.102 258.892 112.19 258.604L113.066 256.048H114.734L112.382 262.06C112.198 262.556 111.982 262.972 111.734 263.308C111.494 263.644 111.202 263.896 110.858 264.064C110.522 264.24 110.102 264.328 109.598 264.328Z" fill="white"/>
<path d="M3.13364 288.877C3.13364 286.651 3.79575 284.254 5.11997 281.688C6.45591 279.11 8.11997 277.141 10.1122 275.781C12.1043 274.422 14.0321 273.742 15.8954 273.742C16.868 273.742 17.9403 274 19.1122 274.516C20.2957 275.031 21.3211 276.051 22.1883 277.574C23.0672 279.098 23.5067 280.949 23.5067 283.129C23.5067 286.926 22.2118 290.424 19.6219 293.623C17.0321 296.822 14.202 298.422 11.1317 298.422C8.84653 298.422 6.94223 297.59 5.4188 295.926C3.89536 294.262 3.13364 291.912 3.13364 288.877ZM6.28013 290.653C6.28013 292.317 6.43833 293.6 6.75473 294.502C7.07114 295.405 7.60434 296.155 8.35434 296.752C9.10434 297.35 10.0067 297.649 11.0614 297.649C12.7137 297.649 14.2489 296.834 15.6668 295.205C17.0965 293.576 18.2684 291.303 19.1825 288.385C20.0965 285.467 20.5536 282.977 20.5536 280.914C20.5536 278.805 20.1082 277.223 19.2176 276.168C18.3387 275.102 17.2079 274.569 15.825 274.569C14.2079 274.569 12.6786 275.348 11.2372 276.906C9.79575 278.465 8.6063 280.639 7.6688 283.428C6.74302 286.217 6.28013 288.625 6.28013 290.653Z" fill="white"/>
<path d="M32.3836 306.596H31.1707C27.2567 301.733 25.2997 296.172 25.2997 289.914C25.2997 283.996 27.1922 278.67 30.9774 273.936H32.1903C30.327 275.987 28.8915 278.406 27.8836 281.196C26.8875 283.985 26.3895 286.85 26.3895 289.791C26.3895 293.436 26.9696 296.723 28.1297 299.653C29.3016 302.594 30.7196 304.908 32.3836 306.596Z" fill="white"/>
<path d="M46.077 294.696H46.9735C46.2704 295.961 45.5497 296.91 44.8114 297.543C44.0848 298.176 43.3407 298.492 42.579 298.492C42.0516 298.492 41.5946 298.328 41.2079 298C40.8329 297.684 40.6454 297.209 40.6454 296.576C40.6454 296.049 40.9149 295.006 41.454 293.447L43.3348 288.086C43.8387 286.621 44.0907 285.672 44.0907 285.238C44.0907 284.852 44.0028 284.565 43.827 284.377C43.6629 284.19 43.4051 284.096 43.0536 284.096C42.1629 284.096 40.9969 285.145 39.5555 287.242C38.1258 289.328 36.8954 292.065 35.8641 295.451L35.0028 298.264H32.8582L35.952 288.28C36.5145 286.44 36.7957 285.385 36.7957 285.115C36.7957 284.916 36.7606 284.77 36.6903 284.676C36.62 284.582 36.5086 284.535 36.3563 284.535C35.6649 284.535 34.8446 285.391 33.8954 287.102H33.0868C34.5516 284.442 35.9403 283.112 37.2528 283.112C37.7098 283.112 38.0497 283.252 38.2723 283.533C38.5067 283.803 38.6239 284.219 38.6239 284.781C38.6239 285.789 38.2313 287.348 37.4461 289.457C39.5672 285.227 41.6297 283.112 43.6336 283.112C44.2782 283.112 44.8407 283.328 45.3211 283.762C45.8016 284.184 46.0418 284.805 46.0418 285.625C46.0418 286.153 45.8016 287.137 45.3211 288.578L43.4403 294.186C42.9364 295.697 42.6844 296.541 42.6844 296.717C42.6844 296.94 42.7372 297.11 42.8426 297.227C42.9598 297.332 43.1239 297.385 43.3348 297.385C43.7332 297.385 44.161 297.162 44.618 296.717C45.075 296.26 45.5614 295.586 46.077 294.696Z" fill="white"/>
<path d="M47.4305 306.596C49.0829 304.908 50.4891 302.594 51.6493 299.653C52.8211 296.723 53.4071 293.436 53.4071 289.791C53.4071 286.99 52.9325 284.19 51.9832 281.389C51.034 278.588 49.575 276.104 47.6063 273.936H48.8368C52.6219 278.67 54.5145 283.996 54.5145 289.914C54.5145 296.172 52.5575 301.733 48.6434 306.596H47.4305Z" fill="white"/>
</svg>
