<svg width="115" height="305" viewBox="0 0 115 305" fill="none" xmlns="http://www.w3.org/2000/svg">
<path d="M1.092 8L0.048 0.176H1.884L2.124 4.34C2.124 4.564 2.128 4.784 2.136 5C2.144 5.208 2.148 5.42 2.148 5.636C2.156 5.844 2.16 6.068 2.16 6.308H2.208C2.24 6.068 2.276 5.844 2.316 5.636C2.364 5.42 2.412 5.204 2.46 4.988C2.508 4.772 2.552 4.556 2.592 4.34L3.12 2.156H4.248L4.74 4.34C4.788 4.556 4.832 4.768 4.872 4.976C4.912 5.184 4.956 5.4 5.004 5.624C5.052 5.84 5.092 6.068 5.124 6.308H5.172C5.18 6.068 5.184 5.84 5.184 5.624C5.192 5.4 5.196 5.184 5.196 4.976C5.204 4.768 5.212 4.556 5.22 4.34L5.436 0.176H7.152L6.192 8H4.296L3.84 5.576C3.792 5.328 3.748 5.076 3.708 4.82C3.668 4.564 3.64 4.32 3.624 4.088H3.588C3.564 4.32 3.536 4.564 3.504 4.82C3.472 5.076 3.432 5.328 3.384 5.576L2.928 8H1.092ZM10.7953 8.144C10.2753 8.144 9.78331 8.024 9.31931 7.784C8.85531 7.536 8.47931 7.18 8.19131 6.716C7.90331 6.244 7.75931 5.68 7.75931 5.024C7.75931 4.368 7.90331 3.808 8.19131 3.344C8.47931 2.872 8.85531 2.516 9.31931 2.276C9.78331 2.028 10.2753 1.904 10.7953 1.904C11.3153 1.904 11.8073 2.028 12.2713 2.276C12.7353 2.516 13.1113 2.872 13.3993 3.344C13.6873 3.808 13.8313 4.368 13.8313 5.024C13.8313 5.68 13.6873 6.244 13.3993 6.716C13.1113 7.18 12.7353 7.536 12.2713 7.784C11.8073 8.024 11.3153 8.144 10.7953 8.144ZM10.7953 6.716C11.0673 6.716 11.2913 6.648 11.4673 6.512C11.6513 6.376 11.7873 6.18 11.8753 5.924C11.9713 5.668 12.0193 5.368 12.0193 5.024C12.0193 4.68 11.9713 4.38 11.8753 4.124C11.7873 3.868 11.6513 3.672 11.4673 3.536C11.2913 3.4 11.0673 3.332 10.7953 3.332C10.5233 3.332 10.2953 3.4 10.1113 3.536C9.93531 3.672 9.79931 3.868 9.70331 4.124C9.61531 4.38 9.57131 4.68 9.57131 5.024C9.57131 5.368 9.61531 5.668 9.70331 5.924C9.79931 6.18 9.93531 6.376 10.1113 6.512C10.2953 6.648 10.5233 6.716 10.7953 6.716ZM15.7826 8V2.048H17.2226L17.3666 3.344H17.4026C17.6986 2.856 18.0546 2.496 18.4706 2.264C18.8946 2.024 19.3426 1.904 19.8146 1.904C20.0786 1.904 20.2906 1.924 20.4506 1.964C20.6186 2.004 20.7906 2.064 20.9666 2.144L20.6066 3.62C20.4226 3.564 20.2546 3.524 20.1026 3.5C19.9586 3.468 19.7746 3.452 19.5506 3.452C19.1826 3.452 18.8186 3.56 18.4586 3.776C18.1066 3.992 17.8026 4.368 17.5466 4.904V8H15.7826ZM25.1379 8.144C24.6099 8.144 24.0859 8.056 23.5659 7.88C23.0459 7.696 22.5979 7.48 22.2219 7.232L22.9779 6.128C23.3379 6.36 23.7179 6.536 24.1179 6.656C24.5259 6.776 24.9459 6.836 25.3779 6.836C25.7059 6.836 25.9459 6.788 26.0979 6.692C26.2499 6.588 26.3259 6.468 26.3259 6.332C26.3259 6.244 26.3019 6.172 26.2539 6.116C26.2139 6.052 26.1379 5.996 26.0259 5.948C25.9219 5.892 25.7739 5.84 25.5819 5.792C25.3979 5.744 25.1579 5.688 24.8619 5.624C24.0539 5.448 23.4739 5.208 23.1219 4.904C22.7699 4.6 22.5939 4.22 22.5939 3.764C22.5939 3.204 22.8379 2.756 23.3259 2.42C23.8139 2.076 24.4819 1.904 25.3299 1.904C25.8659 1.904 26.3499 1.992 26.7819 2.168C27.2219 2.336 27.5979 2.52 27.9099 2.72L27.1179 3.776C26.8219 3.592 26.5059 3.452 26.1699 3.356C25.8339 3.26 25.5019 3.212 25.1739 3.212C24.9899 3.212 24.8379 3.232 24.7179 3.272C24.5979 3.304 24.5059 3.36 24.4419 3.44C24.3779 3.512 24.3459 3.592 24.3459 3.68C24.3459 3.84 24.4499 3.96 24.6579 4.04C24.8659 4.112 25.2219 4.204 25.7259 4.316C26.3339 4.452 26.8099 4.608 27.1539 4.784C27.4979 4.96 27.7339 5.164 27.8619 5.396C27.9979 5.62 28.0659 5.896 28.0659 6.224C28.0659 6.584 27.9539 6.908 27.7299 7.196C27.5139 7.484 27.1859 7.716 26.7459 7.892C26.3139 8.06 25.7779 8.144 25.1379 8.144ZM33.4373 8.144C32.8053 8.144 32.3013 8.036 31.9253 7.82C31.5573 7.596 31.2893 7.288 31.1213 6.896C30.9533 6.504 30.8693 6.048 30.8693 5.528V3.428H29.3813V2.12L30.9533 2.048L31.1813 0.224H32.6333V2.048H35.1533V3.428H32.6333V5.516C32.6333 5.812 32.6773 6.052 32.7653 6.236C32.8533 6.42 32.9893 6.556 33.1733 6.644C33.3573 6.724 33.5933 6.764 33.8813 6.764C34.1133 6.764 34.3253 6.744 34.5173 6.704C34.7093 6.664 34.8933 6.612 35.0693 6.548L35.3813 7.82C35.1173 7.9 34.8253 7.972 34.5053 8.036C34.1933 8.108 33.8373 8.144 33.4373 8.144ZM47.4439 8.144C46.9559 8.144 46.4919 8.06 46.0519 7.892C45.6199 7.724 45.2359 7.472 44.8999 7.136C44.5639 6.792 44.2999 6.372 44.1079 5.876C43.9159 5.372 43.8199 4.792 43.8199 4.136C43.8199 3.272 43.9839 2.536 44.3119 1.928C44.6479 1.312 45.0959 0.844 45.6559 0.524C46.2239 0.196 46.8559 0.0319996 47.5519 0.0319996C48.0479 0.0319996 48.4959 0.136 48.8959 0.344C49.2959 0.544 49.6279 0.772 49.8919 1.028L48.9199 2.12C48.7359 1.944 48.5319 1.808 48.3079 1.712C48.0919 1.608 47.8399 1.556 47.5519 1.556C47.1839 1.556 46.8559 1.66 46.5679 1.868C46.2799 2.068 46.0519 2.356 45.8839 2.732C45.7159 3.108 45.6319 3.556 45.6319 4.076C45.6319 4.612 45.7159 5.072 45.8839 5.456C46.0519 5.832 46.2839 6.12 46.5799 6.32C46.8839 6.52 47.2319 6.62 47.6239 6.62C47.9119 6.62 48.1719 6.556 48.4039 6.428C48.6359 6.3 48.8479 6.132 49.0399 5.924L50.0119 6.992C49.6919 7.368 49.3159 7.656 48.8839 7.856C48.4519 8.048 47.9719 8.144 47.4439 8.144ZM53.0552 8.144C52.6552 8.144 52.3072 8.064 52.0112 7.904C51.7232 7.744 51.4992 7.528 51.3392 7.256C51.1792 6.984 51.0992 6.68 51.0992 6.344C51.0992 5.68 51.3992 5.172 51.9992 4.82C52.6072 4.468 53.6152 4.252 55.0232 4.172C54.9992 3.988 54.9392 3.832 54.8432 3.704C54.7472 3.576 54.6072 3.48 54.4232 3.416C54.2472 3.344 54.0232 3.308 53.7512 3.308C53.5592 3.308 53.3672 3.332 53.1752 3.38C52.9832 3.42 52.7832 3.484 52.5752 3.572C52.3752 3.652 52.1632 3.748 51.9392 3.86L51.3152 2.708C51.5872 2.548 51.8712 2.408 52.1672 2.288C52.4712 2.168 52.7832 2.076 53.1032 2.012C53.4312 1.94 53.7632 1.904 54.0992 1.904C54.6592 1.904 55.1392 2.004 55.5392 2.204C55.9392 2.396 56.2472 2.692 56.4632 3.092C56.6792 3.484 56.7872 3.984 56.7872 4.592V8H55.3472L55.2152 7.328H55.1672C54.8712 7.552 54.5432 7.744 54.1832 7.904C53.8232 8.064 53.4472 8.144 53.0552 8.144ZM53.6192 6.776C53.8832 6.776 54.1312 6.724 54.3632 6.62C54.5952 6.508 54.8152 6.372 55.0232 6.212V5.228C54.4392 5.26 53.9832 5.32 53.6552 5.408C53.3352 5.496 53.1112 5.608 52.9832 5.744C52.8552 5.88 52.7912 6.036 52.7912 6.212C52.7912 6.332 52.8232 6.436 52.8872 6.524C52.9592 6.612 53.0552 6.676 53.1752 6.716C53.3032 6.756 53.4512 6.776 53.6192 6.776ZM61.1145 8.144C60.5865 8.144 60.0625 8.056 59.5425 7.88C59.0225 7.696 58.5745 7.48 58.1985 7.232L58.9545 6.128C59.3145 6.36 59.6945 6.536 60.0945 6.656C60.5025 6.776 60.9225 6.836 61.3545 6.836C61.6825 6.836 61.9225 6.788 62.0745 6.692C62.2265 6.588 62.3025 6.468 62.3025 6.332C62.3025 6.244 62.2785 6.172 62.2305 6.116C62.1905 6.052 62.1145 5.996 62.0025 5.948C61.8985 5.892 61.7505 5.84 61.5585 5.792C61.3745 5.744 61.1345 5.688 60.8385 5.624C60.0305 5.448 59.4505 5.208 59.0985 4.904C58.7465 4.6 58.5705 4.22 58.5705 3.764C58.5705 3.204 58.8145 2.756 59.3025 2.42C59.7905 2.076 60.4585 1.904 61.3065 1.904C61.8425 1.904 62.3265 1.992 62.7585 2.168C63.1985 2.336 63.5745 2.52 63.8865 2.72L63.0945 3.776C62.7985 3.592 62.4825 3.452 62.1465 3.356C61.8105 3.26 61.4785 3.212 61.1505 3.212C60.9665 3.212 60.8145 3.232 60.6945 3.272C60.5745 3.304 60.4825 3.36 60.4185 3.44C60.3545 3.512 60.3225 3.592 60.3225 3.68C60.3225 3.84 60.4265 3.96 60.6345 4.04C60.8425 4.112 61.1985 4.204 61.7025 4.316C62.3105 4.452 62.7865 4.608 63.1305 4.784C63.4745 4.96 63.7105 5.164 63.8385 5.396C63.9745 5.62 64.0425 5.896 64.0425 6.224C64.0425 6.584 63.9305 6.908 63.7065 7.196C63.4905 7.484 63.1625 7.716 62.7225 7.892C62.2905 8.06 61.7545 8.144 61.1145 8.144ZM68.7178 8.144C68.1018 8.144 67.5418 8.024 67.0378 7.784C66.5418 7.536 66.1458 7.18 65.8498 6.716C65.5618 6.244 65.4178 5.68 65.4178 5.024C65.4178 4.376 65.5658 3.82 65.8618 3.356C66.1578 2.884 66.5418 2.524 67.0138 2.276C67.4858 2.028 67.9858 1.904 68.5138 1.904C69.1298 1.904 69.6458 2.032 70.0618 2.288C70.4778 2.536 70.7898 2.876 70.9978 3.308C71.2138 3.732 71.3218 4.216 71.3218 4.76C71.3218 4.92 71.3098 5.076 71.2858 5.228C71.2698 5.372 71.2538 5.48 71.2378 5.552H66.7258V4.364H70.0498L69.7738 4.7C69.7738 4.22 69.6698 3.86 69.4618 3.62C69.2618 3.372 68.9658 3.248 68.5738 3.248C68.2858 3.248 68.0338 3.312 67.8178 3.44C67.6018 3.568 67.4338 3.764 67.3138 4.028C67.1938 4.292 67.1338 4.624 67.1338 5.024C67.1338 5.432 67.2058 5.768 67.3498 6.032C67.4938 6.288 67.7018 6.48 67.9738 6.608C68.2458 6.736 68.5738 6.8 68.9578 6.8C69.2298 6.8 69.4858 6.764 69.7258 6.692C69.9738 6.62 70.2298 6.516 70.4938 6.38L71.0818 7.448C70.7378 7.664 70.3578 7.836 69.9418 7.964C69.5258 8.084 69.1178 8.144 68.7178 8.144ZM3.18164 34.877C3.18164 32.6504 3.84375 30.2539 5.16797 27.6875C6.50391 25.1094 8.16797 23.1406 10.1602 21.7812C12.1523 20.4219 14.0801 19.7422 15.9434 19.7422C16.916 19.7422 17.9883 20 19.1602 20.5156C20.3438 21.0312 21.3691 22.0508 22.2363 23.5742C23.1152 25.0977 23.5547 26.9492 23.5547 29.1289C23.5547 32.9258 22.2598 36.4238 19.6699 39.623C17.0801 42.8223 14.25 44.4219 11.1797 44.4219C8.89453 44.4219 6.99023 43.5898 5.4668 41.9258C3.94336 40.2617 3.18164 37.9121 3.18164 34.877ZM6.32812 36.6523C6.32812 38.3164 6.48633 39.5996 6.80273 40.502C7.11914 41.4043 7.65234 42.1543 8.40234 42.752C9.15234 43.3496 10.0547 43.6484 11.1094 43.6484C12.7617 43.6484 14.2969 42.834 15.7148 41.2051C17.1445 39.5762 18.3164 37.3027 19.2305 34.3848C20.1445 31.4668 20.6016 28.9766 20.6016 26.9141C20.6016 24.8047 20.1562 23.2227 19.2656 22.168C18.3867 21.1016 17.2559 20.5684 15.873 20.5684C14.2559 20.5684 12.7266 21.3477 11.2852 22.9062C9.84375 24.4648 8.6543 26.6387 7.7168 29.4277C6.79102 32.2168 6.32812 34.625 6.32812 36.6523ZM32.4316 52.5957H31.2188C27.3047 47.7324 25.3477 42.1719 25.3477 35.9141C25.3477 29.9961 27.2402 24.6699 31.0254 19.9355H32.2383C30.375 21.9863 28.9395 24.4062 27.9316 27.1953C26.9355 29.9844 26.4375 32.8496 26.4375 35.791C26.4375 39.4355 27.0176 42.7227 28.1777 45.6523C29.3496 48.5938 30.7676 50.9082 32.4316 52.5957ZM46.125 40.6953H47.0215C46.3184 41.9609 45.5977 42.9102 44.8594 43.543C44.1328 44.1758 43.3887 44.4922 42.627 44.4922C42.0996 44.4922 41.6426 44.3281 41.2559 44C40.8809 43.6836 40.6934 43.209 40.6934 42.5762C40.6934 42.0488 40.9629 41.0059 41.502 39.4473L43.3828 34.0859C43.8867 32.6211 44.1387 31.6719 44.1387 31.2383C44.1387 30.8516 44.0508 30.5645 43.875 30.377C43.7109 30.1895 43.4531 30.0957 43.1016 30.0957C42.2109 30.0957 41.0449 31.1445 39.6035 33.2422C38.1738 35.3281 36.9434 38.0645 35.9121 41.4512L35.0508 44.2637H32.9062L36 34.2793C36.5625 32.4395 36.8438 31.3848 36.8438 31.1152C36.8438 30.916 36.8086 30.7695 36.7383 30.6758C36.668 30.582 36.5566 30.5352 36.4043 30.5352C35.7129 30.5352 34.8926 31.3906 33.9434 33.1016H33.1348C34.5996 30.4414 35.9883 29.1113 37.3008 29.1113C37.7578 29.1113 38.0977 29.252 38.3203 29.5332C38.5547 29.8027 38.6719 30.2188 38.6719 30.7812C38.6719 31.7891 38.2793 33.3477 37.4941 35.457C39.6152 31.2266 41.6777 29.1113 43.6816 29.1113C44.3262 29.1113 44.8887 29.3281 45.3691 29.7617C45.8496 30.1836 46.0898 30.8047 46.0898 31.625C46.0898 32.1523 45.8496 33.1367 45.3691 34.5781L43.4883 40.1855C42.9844 41.6973 42.7324 42.541 42.7324 42.7168C42.7324 42.9395 42.7852 43.1094 42.8906 43.2266C43.0078 43.332 43.1719 43.3848 43.3828 43.3848C43.7812 43.3848 44.209 43.1621 44.666 42.7168C45.123 42.2598 45.6094 41.5859 46.125 40.6953ZM55.9828 30.0172H56.5207C56.0988 30.7766 55.6664 31.3461 55.2234 31.7258C54.7875 32.1055 54.341 32.2953 53.884 32.2953C53.5676 32.2953 53.2934 32.1969 53.0613 32C52.8363 31.8102 52.7238 31.5254 52.7238 31.1457C52.7238 30.8293 52.8855 30.2035 53.209 29.2684L54.3375 26.0516C54.6398 25.1727 54.791 24.6031 54.791 24.343C54.791 24.1109 54.7383 23.9387 54.6328 23.8262C54.5344 23.7137 54.3797 23.6574 54.1688 23.6574C53.6344 23.6574 52.9348 24.2867 52.0699 25.5453C51.2121 26.7969 50.4738 28.4387 49.8551 30.4707L49.3383 32.1582H48.0516L49.9078 26.1676C50.2453 25.0637 50.4141 24.4309 50.4141 24.2691C50.4141 24.1496 50.393 24.0617 50.3508 24.0055C50.3086 23.9492 50.2418 23.9211 50.1504 23.9211C49.7355 23.9211 49.2434 24.4344 48.6738 25.4609H48.1887C49.0676 23.8648 49.9008 23.0668 50.6883 23.0668C50.9625 23.0668 51.1664 23.1512 51.3 23.3199C51.4406 23.4816 51.5109 23.7312 51.5109 24.0687C51.5109 24.6734 51.2754 25.6086 50.8043 26.8742C52.077 24.3359 53.3145 23.0668 54.5168 23.0668C54.9035 23.0668 55.241 23.1969 55.5293 23.457C55.8176 23.7102 55.9617 24.0828 55.9617 24.575C55.9617 24.8914 55.8176 25.482 55.5293 26.3469L54.4008 29.7113C54.0984 30.6184 53.9473 31.1246 53.9473 31.2301C53.9473 31.3637 53.9789 31.4656 54.0422 31.5359C54.1125 31.5992 54.2109 31.6309 54.3375 31.6309C54.5766 31.6309 54.8332 31.4973 55.1074 31.2301C55.3816 30.9559 55.6734 30.5516 55.9828 30.0172ZM57.3656 52.5957C59.0179 50.9082 60.4242 48.5938 61.5843 45.6523C62.7562 42.7227 63.3421 39.4355 63.3421 35.791C63.3421 32.9902 62.8675 30.1895 61.9183 27.3887C60.9691 24.5879 59.5101 22.1035 57.5414 19.9355H58.7718C62.557 24.6699 64.4496 29.9961 64.4496 35.9141C64.4496 42.1719 62.4925 47.7324 58.5785 52.5957H57.3656ZM0.888 92V84.176H3.516C4.06 84.176 4.548 84.236 4.98 84.356C5.412 84.468 5.752 84.664 6 84.944C6.256 85.224 6.384 85.616 6.384 86.12C6.384 86.472 6.276 86.812 6.06 87.14C5.844 87.468 5.504 87.692 5.04 87.812V87.86C5.6 87.956 6.024 88.156 6.312 88.46C6.6 88.756 6.744 89.168 6.744 89.696C6.744 90.224 6.612 90.66 6.348 91.004C6.084 91.34 5.724 91.592 5.268 91.76C4.82 91.92 4.312 92 3.744 92H0.888ZM2.652 87.32H3.432C3.864 87.32 4.176 87.236 4.368 87.068C4.56 86.892 4.656 86.656 4.656 86.36C4.656 86.072 4.556 85.868 4.356 85.748C4.164 85.62 3.86 85.556 3.444 85.556H2.652V87.32ZM2.652 90.62H3.6C4.08 90.62 4.436 90.532 4.668 90.356C4.9 90.18 5.016 89.916 5.016 89.564C5.016 89.22 4.9 88.972 4.668 88.82C4.436 88.668 4.08 88.592 3.6 88.592H2.652V90.62ZM11.1553 92.144C10.5393 92.144 9.97931 92.024 9.47531 91.784C8.97931 91.536 8.58331 91.18 8.28731 90.716C7.99931 90.244 7.85531 89.68 7.85531 89.024C7.85531 88.376 8.00331 87.82 8.29931 87.356C8.59531 86.884 8.97931 86.524 9.45131 86.276C9.92331 86.028 10.4233 85.904 10.9513 85.904C11.5673 85.904 12.0833 86.032 12.4993 86.288C12.9153 86.536 13.2273 86.876 13.4353 87.308C13.6513 87.732 13.7593 88.216 13.7593 88.76C13.7593 88.92 13.7473 89.076 13.7233 89.228C13.7073 89.372 13.6913 89.48 13.6753 89.552H9.16331V88.364H12.4873L12.2113 88.7C12.2113 88.22 12.1073 87.86 11.8993 87.62C11.6993 87.372 11.4033 87.248 11.0113 87.248C10.7233 87.248 10.4713 87.312 10.2553 87.44C10.0393 87.568 9.87131 87.764 9.75131 88.028C9.63131 88.292 9.57131 88.624 9.57131 89.024C9.57131 89.432 9.64331 89.768 9.78731 90.032C9.93131 90.288 10.1393 90.48 10.4113 90.608C10.6833 90.736 11.0113 90.8 11.3953 90.8C11.6673 90.8 11.9233 90.764 12.1633 90.692C12.4113 90.62 12.6673 90.516 12.9313 90.38L13.5193 91.448C13.1753 91.664 12.7953 91.836 12.3793 91.964C11.9633 92.084 11.5553 92.144 11.1553 92.144ZM17.9426 92.144C17.4146 92.144 16.8906 92.056 16.3706 91.88C15.8506 91.696 15.4026 91.48 15.0266 91.232L15.7826 90.128C16.1426 90.36 16.5226 90.536 16.9226 90.656C17.3306 90.776 17.7506 90.836 18.1826 90.836C18.5106 90.836 18.7506 90.788 18.9026 90.692C19.0546 90.588 19.1306 90.468 19.1306 90.332C19.1306 90.244 19.1066 90.172 19.0586 90.116C19.0186 90.052 18.9426 89.996 18.8306 89.948C18.7266 89.892 18.5786 89.84 18.3866 89.792C18.2026 89.744 17.9626 89.688 17.6666 89.624C16.8586 89.448 16.2786 89.208 15.9266 88.904C15.5746 88.6 15.3986 88.22 15.3986 87.764C15.3986 87.204 15.6426 86.756 16.1306 86.42C16.6186 86.076 17.2866 85.904 18.1346 85.904C18.6706 85.904 19.1546 85.992 19.5866 86.168C20.0266 86.336 20.4026 86.52 20.7146 86.72L19.9226 87.776C19.6266 87.592 19.3106 87.452 18.9746 87.356C18.6386 87.26 18.3066 87.212 17.9786 87.212C17.7946 87.212 17.6426 87.232 17.5226 87.272C17.4026 87.304 17.3106 87.36 17.2466 87.44C17.1826 87.512 17.1506 87.592 17.1506 87.68C17.1506 87.84 17.2546 87.96 17.4626 88.04C17.6706 88.112 18.0266 88.204 18.5306 88.316C19.1386 88.452 19.6146 88.608 19.9586 88.784C20.3026 88.96 20.5386 89.164 20.6666 89.396C20.8026 89.62 20.8706 89.896 20.8706 90.224C20.8706 90.584 20.7586 90.908 20.5346 91.196C20.3186 91.484 19.9906 91.716 19.5506 91.892C19.1186 92.06 18.5826 92.144 17.9426 92.144ZM26.2419 92.144C25.6099 92.144 25.1059 92.036 24.7299 91.82C24.3619 91.596 24.0939 91.288 23.9259 90.896C23.7579 90.504 23.6739 90.048 23.6739 89.528V87.428H22.1859V86.12L23.7579 86.048L23.9859 84.224H25.4379V86.048H27.9579V87.428H25.4379V89.516C25.4379 89.812 25.4819 90.052 25.5699 90.236C25.6579 90.42 25.7939 90.556 25.9779 90.644C26.1619 90.724 26.3979 90.764 26.6859 90.764C26.9179 90.764 27.1299 90.744 27.3219 90.704C27.5139 90.664 27.6979 90.612 27.8739 90.548L28.1859 91.82C27.9219 91.9 27.6299 91.972 27.3099 92.036C26.9979 92.108 26.6419 92.144 26.2419 92.144ZM40.2486 92.144C39.7606 92.144 39.2966 92.06 38.8566 91.892C38.4246 91.724 38.0406 91.472 37.7046 91.136C37.3686 90.792 37.1046 90.372 36.9126 89.876C36.7206 89.372 36.6246 88.792 36.6246 88.136C36.6246 87.272 36.7886 86.536 37.1166 85.928C37.4526 85.312 37.9006 84.844 38.4606 84.524C39.0286 84.196 39.6606 84.032 40.3566 84.032C40.8526 84.032 41.3006 84.136 41.7006 84.344C42.1006 84.544 42.4326 84.772 42.6966 85.028L41.7246 86.12C41.5406 85.944 41.3366 85.808 41.1126 85.712C40.8966 85.608 40.6446 85.556 40.3566 85.556C39.9886 85.556 39.6606 85.66 39.3726 85.868C39.0846 86.068 38.8566 86.356 38.6886 86.732C38.5206 87.108 38.4366 87.556 38.4366 88.076C38.4366 88.612 38.5206 89.072 38.6886 89.456C38.8566 89.832 39.0886 90.12 39.3846 90.32C39.6886 90.52 40.0366 90.62 40.4286 90.62C40.7166 90.62 40.9766 90.556 41.2086 90.428C41.4406 90.3 41.6526 90.132 41.8446 89.924L42.8166 90.992C42.4966 91.368 42.1206 91.656 41.6886 91.856C41.2566 92.048 40.7766 92.144 40.2486 92.144ZM45.8599 92.144C45.4599 92.144 45.1119 92.064 44.8159 91.904C44.5279 91.744 44.3039 91.528 44.1439 91.256C43.9839 90.984 43.9039 90.68 43.9039 90.344C43.9039 89.68 44.2039 89.172 44.8039 88.82C45.4119 88.468 46.4199 88.252 47.8279 88.172C47.8039 87.988 47.7439 87.832 47.6479 87.704C47.5519 87.576 47.4119 87.48 47.2279 87.416C47.0519 87.344 46.8279 87.308 46.5559 87.308C46.3639 87.308 46.1719 87.332 45.9799 87.38C45.7879 87.42 45.5879 87.484 45.3799 87.572C45.1799 87.652 44.9679 87.748 44.7439 87.86L44.1199 86.708C44.3919 86.548 44.6759 86.408 44.9719 86.288C45.2759 86.168 45.5879 86.076 45.9079 86.012C46.2359 85.94 46.5679 85.904 46.9039 85.904C47.4639 85.904 47.9439 86.004 48.3439 86.204C48.7439 86.396 49.0519 86.692 49.2679 87.092C49.4839 87.484 49.5919 87.984 49.5919 88.592V92H48.1519L48.0199 91.328H47.9719C47.6759 91.552 47.3479 91.744 46.9879 91.904C46.6279 92.064 46.2519 92.144 45.8599 92.144ZM46.4239 90.776C46.6879 90.776 46.9359 90.724 47.1679 90.62C47.3999 90.508 47.6199 90.372 47.8279 90.212V89.228C47.2439 89.26 46.7879 89.32 46.4599 89.408C46.1399 89.496 45.9159 89.608 45.7879 89.744C45.6599 89.88 45.5959 90.036 45.5959 90.212C45.5959 90.332 45.6279 90.436 45.6919 90.524C45.7639 90.612 45.8599 90.676 45.9799 90.716C46.1079 90.756 46.2559 90.776 46.4239 90.776ZM53.9192 92.144C53.3912 92.144 52.8672 92.056 52.3472 91.88C51.8272 91.696 51.3792 91.48 51.0032 91.232L51.7592 90.128C52.1192 90.36 52.4992 90.536 52.8992 90.656C53.3072 90.776 53.7272 90.836 54.1592 90.836C54.4872 90.836 54.7272 90.788 54.8792 90.692C55.0312 90.588 55.1072 90.468 55.1072 90.332C55.1072 90.244 55.0832 90.172 55.0352 90.116C54.9952 90.052 54.9192 89.996 54.8072 89.948C54.7032 89.892 54.5552 89.84 54.3632 89.792C54.1792 89.744 53.9392 89.688 53.6432 89.624C52.8352 89.448 52.2552 89.208 51.9032 88.904C51.5512 88.6 51.3752 88.22 51.3752 87.764C51.3752 87.204 51.6192 86.756 52.1072 86.42C52.5952 86.076 53.2632 85.904 54.1112 85.904C54.6472 85.904 55.1312 85.992 55.5632 86.168C56.0032 86.336 56.3792 86.52 56.6912 86.72L55.8992 87.776C55.6032 87.592 55.2872 87.452 54.9512 87.356C54.6152 87.26 54.2832 87.212 53.9552 87.212C53.7712 87.212 53.6192 87.232 53.4992 87.272C53.3792 87.304 53.2872 87.36 53.2232 87.44C53.1592 87.512 53.1272 87.592 53.1272 87.68C53.1272 87.84 53.2312 87.96 53.4392 88.04C53.6472 88.112 54.0032 88.204 54.5072 88.316C55.1152 88.452 55.5912 88.608 55.9352 88.784C56.2792 88.96 56.5152 89.164 56.6432 89.396C56.7792 89.62 56.8472 89.896 56.8472 90.224C56.8472 90.584 56.7352 90.908 56.5112 91.196C56.2952 91.484 55.9672 91.716 55.5272 91.892C55.0952 92.06 54.5592 92.144 53.9192 92.144ZM61.5225 92.144C60.9065 92.144 60.3465 92.024 59.8425 91.784C59.3465 91.536 58.9505 91.18 58.6545 90.716C58.3665 90.244 58.2225 89.68 58.2225 89.024C58.2225 88.376 58.3705 87.82 58.6665 87.356C58.9625 86.884 59.3465 86.524 59.8185 86.276C60.2905 86.028 60.7905 85.904 61.3185 85.904C61.9345 85.904 62.4505 86.032 62.8665 86.288C63.2825 86.536 63.5945 86.876 63.8025 87.308C64.0185 87.732 64.1265 88.216 64.1265 88.76C64.1265 88.92 64.1145 89.076 64.0905 89.228C64.0745 89.372 64.0585 89.48 64.0425 89.552H59.5305V88.364H62.8545L62.5785 88.7C62.5785 88.22 62.4745 87.86 62.2665 87.62C62.0665 87.372 61.7705 87.248 61.3785 87.248C61.0905 87.248 60.8385 87.312 60.6225 87.44C60.4065 87.568 60.2385 87.764 60.1185 88.028C59.9985 88.292 59.9385 88.624 59.9385 89.024C59.9385 89.432 60.0105 89.768 60.1545 90.032C60.2985 90.288 60.5065 90.48 60.7785 90.608C61.0505 90.736 61.3785 90.8 61.7625 90.8C62.0345 90.8 62.2905 90.764 62.5305 90.692C62.7785 90.62 63.0345 90.516 63.2985 90.38L63.8865 91.448C63.5425 91.664 63.1625 91.836 62.7465 91.964C62.3305 92.084 61.9225 92.144 61.5225 92.144ZM3.18164 118.877C3.18164 116.65 3.84375 114.254 5.16797 111.688C6.50391 109.109 8.16797 107.141 10.1602 105.781C12.1523 104.422 14.0801 103.742 15.9434 103.742C16.916 103.742 17.9883 104 19.1602 104.516C20.3438 105.031 21.3691 106.051 22.2363 107.574C23.1152 109.098 23.5547 110.949 23.5547 113.129C23.5547 116.926 22.2598 120.424 19.6699 123.623C17.0801 126.822 14.25 128.422 11.1797 128.422C8.89453 128.422 6.99023 127.59 5.4668 125.926C3.94336 124.262 3.18164 121.912 3.18164 118.877ZM6.32812 120.652C6.32812 122.316 6.48633 123.6 6.80273 124.502C7.11914 125.404 7.65234 126.154 8.40234 126.752C9.15234 127.35 10.0547 127.648 11.1094 127.648C12.7617 127.648 14.2969 126.834 15.7148 125.205C17.1445 123.576 18.3164 121.303 19.2305 118.385C20.1445 115.467 20.6016 112.977 20.6016 110.914C20.6016 108.805 20.1562 107.223 19.2656 106.168C18.3867 105.102 17.2559 104.568 15.873 104.568C14.2559 104.568 12.7266 105.348 11.2852 106.906C9.84375 108.465 8.6543 110.639 7.7168 113.428C6.79102 116.217 6.32812 118.625 6.32812 120.652ZM32.4316 136.596H31.2188C27.3047 131.732 25.3477 126.172 25.3477 119.914C25.3477 113.996 27.2402 108.67 31.0254 103.936H32.2383C30.375 105.986 28.9395 108.406 27.9316 111.195C26.9355 113.984 26.4375 116.85 26.4375 119.791C26.4375 123.436 27.0176 126.723 28.1777 129.652C29.3496 132.594 30.7676 134.908 32.4316 136.596ZM46.125 124.695H47.0215C46.3184 125.961 45.5977 126.91 44.8594 127.543C44.1328 128.176 43.3887 128.492 42.627 128.492C42.0996 128.492 41.6426 128.328 41.2559 128C40.8809 127.684 40.6934 127.209 40.6934 126.576C40.6934 126.049 40.9629 125.006 41.502 123.447L43.3828 118.086C43.8867 116.621 44.1387 115.672 44.1387 115.238C44.1387 114.852 44.0508 114.564 43.875 114.377C43.7109 114.189 43.4531 114.096 43.1016 114.096C42.2109 114.096 41.0449 115.145 39.6035 117.242C38.1738 119.328 36.9434 122.064 35.9121 125.451L35.0508 128.264H32.9062L36 118.279C36.5625 116.439 36.8438 115.385 36.8438 115.115C36.8438 114.916 36.8086 114.77 36.7383 114.676C36.668 114.582 36.5566 114.535 36.4043 114.535C35.7129 114.535 34.8926 115.391 33.9434 117.102H33.1348C34.5996 114.441 35.9883 113.111 37.3008 113.111C37.7578 113.111 38.0977 113.252 38.3203 113.533C38.5547 113.803 38.6719 114.219 38.6719 114.781C38.6719 115.789 38.2793 117.348 37.4941 119.457C39.6152 115.227 41.6777 113.111 43.6816 113.111C44.3262 113.111 44.8887 113.328 45.3691 113.762C45.8496 114.184 46.0898 114.805 46.0898 115.625C46.0898 116.152 45.8496 117.137 45.3691 118.578L43.4883 124.186C42.9844 125.697 42.7324 126.541 42.7324 126.717C42.7324 126.939 42.7852 127.109 42.8906 127.227C43.0078 127.332 43.1719 127.385 43.3828 127.385C43.7812 127.385 44.209 127.162 44.666 126.717C45.123 126.26 45.6094 125.586 46.125 124.695ZM47.4785 136.596C49.1309 134.908 50.5371 132.594 51.6973 129.652C52.8691 126.723 53.4551 123.436 53.4551 119.791C53.4551 116.99 52.9805 114.189 52.0312 111.389C51.082 108.588 49.623 106.104 47.6543 103.936H48.8848C52.6699 108.67 54.5625 113.996 54.5625 119.914C54.5625 126.172 52.6055 131.732 48.6914 136.596H47.4785ZM0.108 176L2.544 168.176H4.656L7.092 176H5.22L4.212 172.04C4.116 171.648 4.012 171.232 3.9 170.792C3.788 170.352 3.684 169.928 3.588 169.52H3.54C3.444 169.928 3.344 170.352 3.24 170.792C3.136 171.232 3.032 171.648 2.928 172.04L1.908 176H0.108ZM1.716 174.14V172.76H5.46V174.14H1.716ZM9.81131 176L7.56731 170.048H9.34331L10.2793 172.856C10.3753 173.152 10.4673 173.452 10.5553 173.756C10.6433 174.06 10.7313 174.372 10.8193 174.692H10.8673C10.9553 174.372 11.0393 174.06 11.1193 173.756C11.2073 173.452 11.2993 173.152 11.3953 172.856L12.3313 170.048H14.0233L11.8393 176H9.81131ZM18.3506 176.144C17.7346 176.144 17.1746 176.024 16.6706 175.784C16.1746 175.536 15.7786 175.18 15.4826 174.716C15.1946 174.244 15.0506 173.68 15.0506 173.024C15.0506 172.376 15.1986 171.82 15.4946 171.356C15.7906 170.884 16.1746 170.524 16.6466 170.276C17.1186 170.028 17.6186 169.904 18.1466 169.904C18.7626 169.904 19.2786 170.032 19.6946 170.288C20.1106 170.536 20.4226 170.876 20.6306 171.308C20.8466 171.732 20.9546 172.216 20.9546 172.76C20.9546 172.92 20.9426 173.076 20.9186 173.228C20.9026 173.372 20.8866 173.48 20.8706 173.552H16.3586V172.364H19.6826L19.4066 172.7C19.4066 172.22 19.3026 171.86 19.0946 171.62C18.8946 171.372 18.5986 171.248 18.2066 171.248C17.9186 171.248 17.6666 171.312 17.4506 171.44C17.2346 171.568 17.0666 171.764 16.9466 172.028C16.8266 172.292 16.7666 172.624 16.7666 173.024C16.7666 173.432 16.8386 173.768 16.9826 174.032C17.1266 174.288 17.3346 174.48 17.6066 174.608C17.8786 174.736 18.2066 174.8 18.5906 174.8C18.8626 174.8 19.1186 174.764 19.3586 174.692C19.6066 174.62 19.8626 174.516 20.1266 174.38L20.7146 175.448C20.3706 175.664 19.9906 175.836 19.5746 175.964C19.1586 176.084 18.7506 176.144 18.3506 176.144ZM22.9779 176V170.048H24.4179L24.5619 171.344H24.5979C24.8939 170.856 25.2499 170.496 25.6659 170.264C26.0899 170.024 26.5379 169.904 27.0099 169.904C27.2739 169.904 27.4859 169.924 27.6459 169.964C27.8139 170.004 27.9859 170.064 28.1619 170.144L27.8019 171.62C27.6179 171.564 27.4499 171.524 27.2979 171.5C27.1539 171.468 26.9699 171.452 26.7459 171.452C26.3779 171.452 26.0139 171.56 25.6539 171.776C25.3019 171.992 24.9979 172.368 24.7419 172.904V176H22.9779ZM31.4693 176.144C31.0693 176.144 30.7213 176.064 30.4253 175.904C30.1373 175.744 29.9133 175.528 29.7533 175.256C29.5933 174.984 29.5133 174.68 29.5133 174.344C29.5133 173.68 29.8133 173.172 30.4133 172.82C31.0213 172.468 32.0293 172.252 33.4373 172.172C33.4133 171.988 33.3533 171.832 33.2573 171.704C33.1613 171.576 33.0213 171.48 32.8373 171.416C32.6613 171.344 32.4373 171.308 32.1653 171.308C31.9733 171.308 31.7813 171.332 31.5893 171.38C31.3973 171.42 31.1973 171.484 30.9893 171.572C30.7893 171.652 30.5773 171.748 30.3533 171.86L29.7293 170.708C30.0013 170.548 30.2853 170.408 30.5813 170.288C30.8853 170.168 31.1973 170.076 31.5173 170.012C31.8453 169.94 32.1773 169.904 32.5133 169.904C33.0733 169.904 33.5533 170.004 33.9533 170.204C34.3533 170.396 34.6613 170.692 34.8773 171.092C35.0933 171.484 35.2013 171.984 35.2013 172.592V176H33.7613L33.6293 175.328H33.5813C33.2853 175.552 32.9573 175.744 32.5973 175.904C32.2373 176.064 31.8613 176.144 31.4693 176.144ZM32.0333 174.776C32.2973 174.776 32.5453 174.724 32.7773 174.62C33.0093 174.508 33.2293 174.372 33.4373 174.212V173.228C32.8533 173.26 32.3973 173.32 32.0693 173.408C31.7493 173.496 31.5253 173.608 31.3973 173.744C31.2693 173.88 31.2053 174.036 31.2053 174.212C31.2053 174.332 31.2373 174.436 31.3013 174.524C31.3733 174.612 31.4693 174.676 31.5893 174.716C31.7173 174.756 31.8653 174.776 32.0333 174.776ZM39.3006 178.532C38.7806 178.532 38.3166 178.476 37.9086 178.364C37.5086 178.26 37.1886 178.096 36.9486 177.872C36.7166 177.648 36.6006 177.36 36.6006 177.008C36.6006 176.768 36.6766 176.548 36.8286 176.348C36.9886 176.148 37.2206 175.972 37.5246 175.82V175.772C37.3566 175.66 37.2126 175.524 37.0926 175.364C36.9806 175.204 36.9246 175 36.9246 174.752C36.9246 174.552 36.9886 174.352 37.1166 174.152C37.2526 173.952 37.4246 173.78 37.6326 173.636V173.588C37.4166 173.444 37.2326 173.24 37.0806 172.976C36.9286 172.712 36.8526 172.408 36.8526 172.064C36.8526 171.584 36.9686 171.184 37.2006 170.864C37.4406 170.544 37.7526 170.304 38.1366 170.144C38.5286 169.984 38.9486 169.904 39.3966 169.904C39.7646 169.904 40.0926 169.952 40.3806 170.048H42.7926V171.344H41.5926C41.6646 171.432 41.7246 171.548 41.7726 171.692C41.8286 171.828 41.8566 171.972 41.8566 172.124C41.8566 172.58 41.7446 172.956 41.5206 173.252C41.3046 173.54 41.0126 173.756 40.6446 173.9C40.2766 174.044 39.8606 174.116 39.3966 174.116C39.2846 174.116 39.1566 174.108 39.0126 174.092C38.8686 174.068 38.7246 174.036 38.5806 173.996C38.4846 174.06 38.4166 174.124 38.3766 174.188C38.3366 174.252 38.3166 174.336 38.3166 174.44C38.3166 174.592 38.3966 174.704 38.5566 174.776C38.7246 174.848 38.9806 174.884 39.3246 174.884H40.4286C41.2126 174.884 41.8086 175 42.2166 175.232C42.6326 175.464 42.8406 175.848 42.8406 176.384C42.8406 176.8 42.6966 177.168 42.4086 177.488C42.1206 177.816 41.7086 178.072 41.1726 178.256C40.6446 178.44 40.0206 178.532 39.3006 178.532ZM39.3966 173.048C39.5646 173.048 39.7166 173.012 39.8526 172.94C39.9886 172.868 40.0966 172.76 40.1766 172.616C40.2566 172.464 40.2966 172.28 40.2966 172.064C40.2966 171.856 40.2566 171.68 40.1766 171.536C40.0966 171.392 39.9886 171.284 39.8526 171.212C39.7166 171.132 39.5646 171.092 39.3966 171.092C39.2366 171.092 39.0886 171.132 38.9526 171.212C38.8166 171.284 38.7086 171.392 38.6286 171.536C38.5486 171.68 38.5086 171.856 38.5086 172.064C38.5086 172.28 38.5486 172.464 38.6286 172.616C38.7086 172.76 38.8166 172.868 38.9526 172.94C39.0886 173.012 39.2366 173.048 39.3966 173.048ZM39.5526 177.416C39.8726 177.416 40.1526 177.384 40.3926 177.32C40.6326 177.256 40.8206 177.168 40.9566 177.056C41.0926 176.952 41.1606 176.832 41.1606 176.696C41.1606 176.496 41.0726 176.368 40.8966 176.312C40.7206 176.264 40.4606 176.24 40.1166 176.24H39.3726C39.1566 176.24 38.9766 176.232 38.8326 176.216C38.6966 176.2 38.5726 176.18 38.4606 176.156C38.3086 176.252 38.2006 176.344 38.1366 176.432C38.0726 176.528 38.0406 176.632 38.0406 176.744C38.0406 176.96 38.1766 177.124 38.4486 177.236C38.7206 177.356 39.0886 177.416 39.5526 177.416ZM47.1319 176.144C46.5159 176.144 45.9559 176.024 45.4519 175.784C44.9559 175.536 44.5599 175.18 44.2639 174.716C43.9759 174.244 43.8319 173.68 43.8319 173.024C43.8319 172.376 43.9799 171.82 44.2759 171.356C44.5719 170.884 44.9559 170.524 45.4279 170.276C45.8999 170.028 46.3999 169.904 46.9279 169.904C47.5439 169.904 48.0599 170.032 48.4759 170.288C48.8919 170.536 49.2039 170.876 49.4119 171.308C49.6279 171.732 49.7359 172.216 49.7359 172.76C49.7359 172.92 49.7239 173.076 49.6999 173.228C49.6839 173.372 49.6679 173.48 49.6519 173.552H45.1399V172.364H48.4639L48.1879 172.7C48.1879 172.22 48.0839 171.86 47.8759 171.62C47.6759 171.372 47.3799 171.248 46.9879 171.248C46.6999 171.248 46.4479 171.312 46.2319 171.44C46.0159 171.568 45.8479 171.764 45.7279 172.028C45.6079 172.292 45.5479 172.624 45.5479 173.024C45.5479 173.432 45.6199 173.768 45.7639 174.032C45.9079 174.288 46.1159 174.48 46.3879 174.608C46.6599 174.736 46.9879 174.8 47.3719 174.8C47.6439 174.8 47.8999 174.764 48.1399 174.692C48.3879 174.62 48.6439 174.516 48.9079 174.38L49.4959 175.448C49.1519 175.664 48.7719 175.836 48.3559 175.964C47.9399 176.084 47.5319 176.144 47.1319 176.144ZM61.8345 176.144C61.3465 176.144 60.8825 176.06 60.4425 175.892C60.0105 175.724 59.6265 175.472 59.2905 175.136C58.9545 174.792 58.6905 174.372 58.4985 173.876C58.3065 173.372 58.2105 172.792 58.2105 172.136C58.2105 171.272 58.3745 170.536 58.7025 169.928C59.0385 169.312 59.4865 168.844 60.0465 168.524C60.6145 168.196 61.2465 168.032 61.9425 168.032C62.4385 168.032 62.8865 168.136 63.2865 168.344C63.6865 168.544 64.0185 168.772 64.2825 169.028L63.3105 170.12C63.1265 169.944 62.9225 169.808 62.6985 169.712C62.4825 169.608 62.2305 169.556 61.9425 169.556C61.5745 169.556 61.2465 169.66 60.9585 169.868C60.6705 170.068 60.4425 170.356 60.2745 170.732C60.1065 171.108 60.0225 171.556 60.0225 172.076C60.0225 172.612 60.1065 173.072 60.2745 173.456C60.4425 173.832 60.6745 174.12 60.9705 174.32C61.2745 174.52 61.6225 174.62 62.0145 174.62C62.3025 174.62 62.5625 174.556 62.7945 174.428C63.0265 174.3 63.2385 174.132 63.4305 173.924L64.4025 174.992C64.0825 175.368 63.7065 175.656 63.2745 175.856C62.8425 176.048 62.3625 176.144 61.8345 176.144ZM67.4458 176.144C67.0458 176.144 66.6978 176.064 66.4018 175.904C66.1138 175.744 65.8898 175.528 65.7298 175.256C65.5698 174.984 65.4898 174.68 65.4898 174.344C65.4898 173.68 65.7898 173.172 66.3898 172.82C66.9978 172.468 68.0058 172.252 69.4138 172.172C69.3898 171.988 69.3298 171.832 69.2338 171.704C69.1378 171.576 68.9978 171.48 68.8138 171.416C68.6378 171.344 68.4138 171.308 68.1418 171.308C67.9498 171.308 67.7578 171.332 67.5658 171.38C67.3738 171.42 67.1738 171.484 66.9658 171.572C66.7658 171.652 66.5538 171.748 66.3298 171.86L65.7058 170.708C65.9778 170.548 66.2618 170.408 66.5578 170.288C66.8618 170.168 67.1738 170.076 67.4938 170.012C67.8218 169.94 68.1538 169.904 68.4898 169.904C69.0498 169.904 69.5298 170.004 69.9298 170.204C70.3298 170.396 70.6378 170.692 70.8538 171.092C71.0698 171.484 71.1778 171.984 71.1778 172.592V176H69.7378L69.6058 175.328H69.5578C69.2618 175.552 68.9338 175.744 68.5738 175.904C68.2138 176.064 67.8378 176.144 67.4458 176.144ZM68.0098 174.776C68.2738 174.776 68.5218 174.724 68.7538 174.62C68.9858 174.508 69.2058 174.372 69.4138 174.212V173.228C68.8298 173.26 68.3738 173.32 68.0458 173.408C67.7258 173.496 67.5018 173.608 67.3738 173.744C67.2458 173.88 67.1818 174.036 67.1818 174.212C67.1818 174.332 67.2138 174.436 67.2778 174.524C67.3498 174.612 67.4458 174.676 67.5658 174.716C67.6938 174.756 67.8418 174.776 68.0098 174.776ZM75.5051 176.144C74.9771 176.144 74.4531 176.056 73.9331 175.88C73.4131 175.696 72.9651 175.48 72.5891 175.232L73.3451 174.128C73.7051 174.36 74.0851 174.536 74.4851 174.656C74.8931 174.776 75.3131 174.836 75.7451 174.836C76.0731 174.836 76.3131 174.788 76.4651 174.692C76.6171 174.588 76.6931 174.468 76.6931 174.332C76.6931 174.244 76.6691 174.172 76.6211 174.116C76.5811 174.052 76.5051 173.996 76.3931 173.948C76.2891 173.892 76.1411 173.84 75.9491 173.792C75.7651 173.744 75.5251 173.688 75.2291 173.624C74.4211 173.448 73.8411 173.208 73.4891 172.904C73.1371 172.6 72.9611 172.22 72.9611 171.764C72.9611 171.204 73.2051 170.756 73.6931 170.42C74.1811 170.076 74.8491 169.904 75.6971 169.904C76.2331 169.904 76.7171 169.992 77.1491 170.168C77.5891 170.336 77.9651 170.52 78.2771 170.72L77.4851 171.776C77.1891 171.592 76.8731 171.452 76.5371 171.356C76.2011 171.26 75.8691 171.212 75.5411 171.212C75.3571 171.212 75.2051 171.232 75.0851 171.272C74.9651 171.304 74.8731 171.36 74.8091 171.44C74.7451 171.512 74.7131 171.592 74.7131 171.68C74.7131 171.84 74.8171 171.96 75.0251 172.04C75.2331 172.112 75.5891 172.204 76.0931 172.316C76.7011 172.452 77.1771 172.608 77.5211 172.784C77.8651 172.96 78.1011 173.164 78.2291 173.396C78.3651 173.62 78.4331 173.896 78.4331 174.224C78.4331 174.584 78.3211 174.908 78.0971 175.196C77.8811 175.484 77.5531 175.716 77.1131 175.892C76.6811 176.06 76.1451 176.144 75.5051 176.144ZM83.1084 176.144C82.4924 176.144 81.9324 176.024 81.4284 175.784C80.9324 175.536 80.5364 175.18 80.2404 174.716C79.9524 174.244 79.8084 173.68 79.8084 173.024C79.8084 172.376 79.9564 171.82 80.2524 171.356C80.5484 170.884 80.9324 170.524 81.4044 170.276C81.8764 170.028 82.3764 169.904 82.9044 169.904C83.5204 169.904 84.0364 170.032 84.4524 170.288C84.8684 170.536 85.1804 170.876 85.3884 171.308C85.6044 171.732 85.7124 172.216 85.7124 172.76C85.7124 172.92 85.7004 173.076 85.6764 173.228C85.6604 173.372 85.6444 173.48 85.6284 173.552H81.1164V172.364H84.4404L84.1644 172.7C84.1644 172.22 84.0604 171.86 83.8524 171.62C83.6524 171.372 83.3564 171.248 82.9644 171.248C82.6764 171.248 82.4244 171.312 82.2084 171.44C81.9924 171.568 81.8244 171.764 81.7044 172.028C81.5844 172.292 81.5244 172.624 81.5244 173.024C81.5244 173.432 81.5964 173.768 81.7404 174.032C81.8844 174.288 82.0924 174.48 82.3644 174.608C82.6364 174.736 82.9644 174.8 83.3484 174.8C83.6204 174.8 83.8764 174.764 84.1164 174.692C84.3644 174.62 84.6204 174.516 84.8844 174.38L85.4724 175.448C85.1284 175.664 84.7484 175.836 84.3324 175.964C83.9164 176.084 83.5084 176.144 83.1084 176.144ZM3.18164 202.877C3.18164 200.65 3.84375 198.254 5.16797 195.688C6.50391 193.109 8.16797 191.141 10.1602 189.781C12.1523 188.422 14.0801 187.742 15.9434 187.742C16.916 187.742 17.9883 188 19.1602 188.516C20.3438 189.031 21.3691 190.051 22.2363 191.574C23.1152 193.098 23.5547 194.949 23.5547 197.129C23.5547 200.926 22.2598 204.424 19.6699 207.623C17.0801 210.822 14.25 212.422 11.1797 212.422C8.89453 212.422 6.99023 211.59 5.4668 209.926C3.94336 208.262 3.18164 205.912 3.18164 202.877ZM6.32812 204.652C6.32812 206.316 6.48633 207.6 6.80273 208.502C7.11914 209.404 7.65234 210.154 8.40234 210.752C9.15234 211.35 10.0547 211.648 11.1094 211.648C12.7617 211.648 14.2969 210.834 15.7148 209.205C17.1445 207.576 18.3164 205.303 19.2305 202.385C20.1445 199.467 20.6016 196.977 20.6016 194.914C20.6016 192.805 20.1562 191.223 19.2656 190.168C18.3867 189.102 17.2559 188.568 15.873 188.568C14.2559 188.568 12.7266 189.348 11.2852 190.906C9.84375 192.465 8.6543 194.639 7.7168 197.428C6.79102 200.217 6.32812 202.625 6.32812 204.652ZM32.4316 220.596H31.2188C27.3047 215.732 25.3477 210.172 25.3477 203.914C25.3477 197.996 27.2402 192.67 31.0254 187.936H32.2383C30.375 189.986 28.9395 192.406 27.9316 195.195C26.9355 197.984 26.4375 200.85 26.4375 203.791C26.4375 207.436 27.0176 210.723 28.1777 213.652C29.3496 216.594 30.7676 218.908 32.4316 220.596ZM46.125 208.695H47.0215C46.3184 209.961 45.5977 210.91 44.8594 211.543C44.1328 212.176 43.3887 212.492 42.627 212.492C42.0996 212.492 41.6426 212.328 41.2559 212C40.8809 211.684 40.6934 211.209 40.6934 210.576C40.6934 210.049 40.9629 209.006 41.502 207.447L43.3828 202.086C43.8867 200.621 44.1387 199.672 44.1387 199.238C44.1387 198.852 44.0508 198.564 43.875 198.377C43.7109 198.189 43.4531 198.096 43.1016 198.096C42.2109 198.096 41.0449 199.145 39.6035 201.242C38.1738 203.328 36.9434 206.064 35.9121 209.451L35.0508 212.264H32.9062L36 202.279C36.5625 200.439 36.8438 199.385 36.8438 199.115C36.8438 198.916 36.8086 198.77 36.7383 198.676C36.668 198.582 36.5566 198.535 36.4043 198.535C35.7129 198.535 34.8926 199.391 33.9434 201.102H33.1348C34.5996 198.441 35.9883 197.111 37.3008 197.111C37.7578 197.111 38.0977 197.252 38.3203 197.533C38.5547 197.803 38.6719 198.219 38.6719 198.781C38.6719 199.789 38.2793 201.348 37.4941 203.457C39.6152 199.227 41.6777 197.111 43.6816 197.111C44.3262 197.111 44.8887 197.328 45.3691 197.762C45.8496 198.184 46.0898 198.805 46.0898 199.625C46.0898 200.152 45.8496 201.137 45.3691 202.578L43.4883 208.186C42.9844 209.697 42.7324 210.541 42.7324 210.717C42.7324 210.939 42.7852 211.109 42.8906 211.227C43.0078 211.332 43.1719 211.385 43.3828 211.385C43.7812 211.385 44.209 211.162 44.666 210.717C45.123 210.26 45.6094 209.586 46.125 208.695ZM53.1914 187.83V207.061C53.1914 208.596 53.209 209.562 53.2441 209.961C53.291 210.359 53.4609 210.664 53.7539 210.875C54.0469 211.086 54.5684 211.191 55.3184 211.191H55.7402V212H48.041V211.191H48.5332C49.2363 211.191 49.7344 211.098 50.0273 210.91C50.332 210.711 50.5137 210.436 50.5723 210.084C50.6309 209.732 50.6602 208.725 50.6602 207.061V192.822C50.6602 191.311 50.5254 190.361 50.2559 189.975C49.9863 189.576 49.3301 189.377 48.2871 189.377V188.568C49.002 188.568 49.8398 188.486 50.8008 188.322C51.7734 188.158 52.4414 187.994 52.8047 187.83H53.1914ZM57.6562 204.775C57.6562 202.572 58.3945 200.732 59.8711 199.256C61.3477 197.768 63.1641 197.023 65.3203 197.023C67.4883 197.023 69.3105 197.768 70.7871 199.256C72.2637 200.744 73.002 202.584 73.002 204.775C73.002 207.201 72.252 209.111 70.752 210.506C69.252 211.889 67.4414 212.58 65.3203 212.58C63.1992 212.58 61.3887 211.877 59.8887 210.471C58.4004 209.053 57.6562 207.154 57.6562 204.775ZM60.5742 204.863C60.5742 207.418 60.9902 209.211 61.8223 210.242C62.6543 211.262 63.8203 211.771 65.3203 211.771C66.8555 211.771 68.0273 211.262 68.8359 210.242C69.6562 209.211 70.0664 207.418 70.0664 204.863C70.0664 202.332 69.6621 200.527 68.8535 199.449C68.0449 198.371 66.8672 197.832 65.3203 197.832C63.7852 197.832 62.6074 198.371 61.7871 199.449C60.9785 200.516 60.5742 202.32 60.5742 204.863ZM86.6602 198.869C87.6562 197.744 88.6641 197.182 89.6836 197.182C90.2461 197.182 90.6797 197.334 90.9844 197.639C91.3008 197.943 91.459 198.277 91.459 198.641C91.459 199.414 91.1074 199.801 90.4043 199.801C90.0176 199.801 89.6836 199.561 89.4023 199.08C89.1445 198.635 88.875 198.412 88.5938 198.412C88.1484 198.412 87.6562 198.717 87.1172 199.326C87.7266 200.287 88.0312 201.307 88.0312 202.385C88.0312 203.791 87.5273 205.033 86.5195 206.111C85.5117 207.201 83.8125 207.787 81.4219 207.869C78.9375 207.951 77.6953 208.455 77.6953 209.381C77.6953 209.814 77.9766 210.119 78.5391 210.295C79.0898 210.482 80.25 210.623 82.0195 210.717C83.9531 210.811 85.4414 210.992 86.4844 211.262C87.5273 211.52 88.3594 212.047 88.9805 212.844C89.6016 213.641 89.9121 214.59 89.9121 215.691C89.9121 217.238 89.2793 218.486 88.0137 219.436C86.748 220.385 84.9258 220.859 82.5469 220.859C80.3672 220.859 78.6211 220.438 77.3086 219.594C75.9961 218.75 75.3398 217.684 75.3398 216.395C75.3398 215.68 75.5273 215.094 75.9023 214.637C76.2773 214.18 76.8105 213.951 77.502 213.951C77.6895 213.951 77.8594 213.98 78.0117 214.039C77.2852 214.836 76.9219 215.68 76.9219 216.57C76.9219 217.602 77.4023 218.451 78.3633 219.119C79.3359 219.799 80.7832 220.139 82.7051 220.139C84.416 220.139 85.7461 219.793 86.6953 219.102C87.6562 218.422 88.1367 217.549 88.1367 216.482C88.1367 215.311 87.709 214.484 86.8535 214.004C85.998 213.535 84.4746 213.254 82.2832 213.16C79.7637 213.055 78.1289 212.744 77.3789 212.229C76.6289 211.725 76.2539 211.074 76.2539 210.277C76.2539 208.742 77.3262 207.775 79.4707 207.377C78.3574 206.721 77.5195 205.971 76.957 205.127C76.3945 204.283 76.1133 203.34 76.1133 202.297C76.1133 200.832 76.6875 199.59 77.8359 198.57C78.9961 197.539 80.3672 197.023 81.9492 197.023C83.9062 197.023 85.4766 197.639 86.6602 198.869ZM78.75 202.701C78.75 204.213 79.0605 205.32 79.6816 206.023C80.3027 206.727 81.0938 207.078 82.0547 207.078C82.9453 207.078 83.707 206.732 84.3398 206.041C84.9844 205.338 85.3066 204.125 85.3066 202.402C85.3066 200.668 84.9668 199.473 84.2871 198.816C83.6074 198.16 82.8398 197.832 81.9844 197.832C80.9062 197.832 80.0977 198.236 79.5586 199.045C79.0195 199.854 78.75 201.072 78.75 202.701ZM105.047 208.695H105.943C105.24 209.961 104.52 210.91 103.781 211.543C103.055 212.176 102.311 212.492 101.549 212.492C101.021 212.492 100.564 212.328 100.178 212C99.8027 211.684 99.6152 211.209 99.6152 210.576C99.6152 210.049 99.8848 209.006 100.424 207.447L102.305 202.086C102.809 200.621 103.061 199.672 103.061 199.238C103.061 198.852 102.973 198.564 102.797 198.377C102.633 198.189 102.375 198.096 102.023 198.096C101.133 198.096 99.9668 199.145 98.5254 201.242C97.0957 203.328 95.8652 206.064 94.834 209.451L93.9727 212.264H91.8281L94.9219 202.279C95.4844 200.439 95.7656 199.385 95.7656 199.115C95.7656 198.916 95.7305 198.77 95.6602 198.676C95.5898 198.582 95.4785 198.535 95.3262 198.535C94.6348 198.535 93.8145 199.391 92.8652 201.102H92.0566C93.5215 198.441 94.9102 197.111 96.2227 197.111C96.6797 197.111 97.0195 197.252 97.2422 197.533C97.4766 197.803 97.5938 198.219 97.5938 198.781C97.5938 199.789 97.2012 201.348 96.416 203.457C98.5371 199.227 100.6 197.111 102.604 197.111C103.248 197.111 103.811 197.328 104.291 197.762C104.771 198.184 105.012 198.805 105.012 199.625C105.012 200.152 104.771 201.137 104.291 202.578L102.41 208.186C101.906 209.697 101.654 210.541 101.654 210.717C101.654 210.939 101.707 211.109 101.812 211.227C101.93 211.332 102.094 211.385 102.305 211.385C102.703 211.385 103.131 211.162 103.588 210.717C104.045 210.26 104.531 209.586 105.047 208.695ZM106.4 220.596C108.053 218.908 109.459 216.594 110.619 213.652C111.791 210.723 112.377 207.436 112.377 203.791C112.377 200.99 111.902 198.189 110.953 195.389C110.004 192.588 108.545 190.104 106.576 187.936H107.807C111.592 192.67 113.484 197.996 113.484 203.914C113.484 210.172 111.527 215.732 107.613 220.596H106.4ZM3.576 260.144C3.048 260.144 2.524 260.048 2.004 259.856C1.492 259.664 1.024 259.384 0.6 259.016L1.62 257.804C1.916 258.044 2.24 258.24 2.592 258.392C2.952 258.544 3.32 258.62 3.696 258.62C4.072 258.62 4.348 258.556 4.524 258.428C4.708 258.3 4.8 258.136 4.8 257.936C4.8 257.752 4.752 257.608 4.656 257.504C4.56 257.392 4.42 257.296 4.236 257.216C4.052 257.128 3.836 257.032 3.588 256.928L2.58 256.496C2.292 256.384 2.02 256.236 1.764 256.052C1.508 255.86 1.3 255.628 1.14 255.356C0.988 255.076 0.912 254.744 0.912 254.36C0.912 253.928 1.032 253.54 1.272 253.196C1.52 252.844 1.856 252.564 2.28 252.356C2.712 252.14 3.212 252.032 3.78 252.032C4.252 252.032 4.716 252.12 5.172 252.296C5.628 252.472 6.032 252.728 6.384 253.064L5.484 254.18C5.212 253.98 4.94 253.828 4.668 253.724C4.396 253.612 4.068 253.556 3.684 253.556C3.396 253.556 3.16 253.616 2.976 253.736C2.792 253.856 2.7 254.032 2.7 254.264C2.7 254.416 2.756 254.544 2.868 254.648C2.98 254.752 3.132 254.844 3.324 254.924C3.516 255.004 3.736 255.092 3.984 255.188L4.932 255.596C5.284 255.724 5.584 255.884 5.832 256.076C6.08 256.26 6.272 256.488 6.408 256.76C6.544 257.032 6.612 257.352 6.612 257.72C6.612 258.152 6.492 258.552 6.252 258.92C6.02 259.288 5.676 259.584 5.22 259.808C4.772 260.032 4.224 260.144 3.576 260.144ZM8.05931 262.208V254.048H9.49931L9.63131 254.648H9.66731C9.91531 254.432 10.1913 254.256 10.4953 254.12C10.8073 253.976 11.1233 253.904 11.4433 253.904C11.9393 253.904 12.3633 254.028 12.7153 254.276C13.0753 254.524 13.3513 254.876 13.5433 255.332C13.7353 255.788 13.8313 256.32 13.8313 256.928C13.8313 257.608 13.7073 258.188 13.4593 258.668C13.2193 259.148 12.9033 259.516 12.5113 259.772C12.1193 260.02 11.6993 260.144 11.2513 260.144C10.9873 260.144 10.7273 260.088 10.4713 259.976C10.2233 259.864 9.99531 259.704 9.78731 259.496H9.73931L9.82331 260.468V262.208H8.05931ZM10.8433 258.704C11.0673 258.704 11.2673 258.644 11.4433 258.524C11.6193 258.404 11.7593 258.216 11.8633 257.96C11.9673 257.696 12.0193 257.36 12.0193 256.952C12.0193 256.592 11.9793 256.296 11.8993 256.064C11.8193 255.824 11.6993 255.644 11.5393 255.524C11.3873 255.404 11.1833 255.344 10.9273 255.344C10.7353 255.344 10.5473 255.388 10.3633 255.476C10.1873 255.556 10.0073 255.696 9.82331 255.896V258.308C9.99131 258.444 10.1633 258.544 10.3393 258.608C10.5233 258.672 10.6913 258.704 10.8433 258.704ZM17.0786 260.144C16.6786 260.144 16.3306 260.064 16.0346 259.904C15.7466 259.744 15.5226 259.528 15.3626 259.256C15.2026 258.984 15.1226 258.68 15.1226 258.344C15.1226 257.68 15.4226 257.172 16.0226 256.82C16.6306 256.468 17.6386 256.252 19.0466 256.172C19.0226 255.988 18.9626 255.832 18.8666 255.704C18.7706 255.576 18.6306 255.48 18.4466 255.416C18.2706 255.344 18.0466 255.308 17.7746 255.308C17.5826 255.308 17.3906 255.332 17.1986 255.38C17.0066 255.42 16.8066 255.484 16.5986 255.572C16.3986 255.652 16.1866 255.748 15.9626 255.86L15.3386 254.708C15.6106 254.548 15.8946 254.408 16.1906 254.288C16.4946 254.168 16.8066 254.076 17.1266 254.012C17.4546 253.94 17.7866 253.904 18.1226 253.904C18.6826 253.904 19.1626 254.004 19.5626 254.204C19.9626 254.396 20.2706 254.692 20.4866 255.092C20.7026 255.484 20.8106 255.984 20.8106 256.592V260H19.3706L19.2386 259.328H19.1906C18.8946 259.552 18.5666 259.744 18.2066 259.904C17.8466 260.064 17.4706 260.144 17.0786 260.144ZM17.6426 258.776C17.9066 258.776 18.1546 258.724 18.3866 258.62C18.6186 258.508 18.8386 258.372 19.0466 258.212V257.228C18.4626 257.26 18.0066 257.32 17.6786 257.408C17.3586 257.496 17.1346 257.608 17.0066 257.744C16.8786 257.88 16.8146 258.036 16.8146 258.212C16.8146 258.332 16.8466 258.436 16.9106 258.524C16.9826 258.612 17.0786 258.676 17.1986 258.716C17.3266 258.756 17.4746 258.776 17.6426 258.776ZM25.7019 260.144C25.0779 260.144 24.5139 260.024 24.0099 259.784C23.5139 259.536 23.1179 259.18 22.8219 258.716C22.5339 258.244 22.3899 257.68 22.3899 257.024C22.3899 256.368 22.5499 255.808 22.8699 255.344C23.1899 254.872 23.6099 254.516 24.1299 254.276C24.6579 254.028 25.2259 253.904 25.8339 253.904C26.3059 253.904 26.7339 253.98 27.1179 254.132C27.5019 254.276 27.8179 254.468 28.0659 254.708L27.2499 255.8C27.0179 255.64 26.7939 255.524 26.5779 255.452C26.3699 255.372 26.1539 255.332 25.9299 255.332C25.5939 255.332 25.2939 255.4 25.0299 255.536C24.7659 255.672 24.5619 255.868 24.4179 256.124C24.2739 256.38 24.2019 256.68 24.2019 257.024C24.2019 257.368 24.2699 257.668 24.4059 257.924C24.5499 258.18 24.7459 258.376 24.9939 258.512C25.2499 258.648 25.5419 258.716 25.8699 258.716C26.1819 258.716 26.4659 258.66 26.7219 258.548C26.9859 258.436 27.2259 258.304 27.4419 258.152L28.1499 259.268C27.7979 259.564 27.4019 259.784 26.9619 259.928C26.5299 260.072 26.1099 260.144 25.7019 260.144ZM32.7413 260.144C32.1253 260.144 31.5653 260.024 31.0613 259.784C30.5653 259.536 30.1693 259.18 29.8733 258.716C29.5853 258.244 29.4413 257.68 29.4413 257.024C29.4413 256.376 29.5893 255.82 29.8853 255.356C30.1813 254.884 30.5653 254.524 31.0373 254.276C31.5093 254.028 32.0093 253.904 32.5373 253.904C33.1533 253.904 33.6693 254.032 34.0853 254.288C34.5013 254.536 34.8133 254.876 35.0213 255.308C35.2373 255.732 35.3453 256.216 35.3453 256.76C35.3453 256.92 35.3333 257.076 35.3093 257.228C35.2933 257.372 35.2773 257.48 35.2613 257.552H30.7493V256.364H34.0733L33.7973 256.7C33.7973 256.22 33.6933 255.86 33.4853 255.62C33.2853 255.372 32.9893 255.248 32.5973 255.248C32.3093 255.248 32.0573 255.312 31.8413 255.44C31.6253 255.568 31.4573 255.764 31.3373 256.028C31.2173 256.292 31.1573 256.624 31.1573 257.024C31.1573 257.432 31.2293 257.768 31.3733 258.032C31.5173 258.288 31.7253 258.48 31.9973 258.608C32.2693 258.736 32.5973 258.8 32.9813 258.8C33.2533 258.8 33.5093 258.764 33.7493 258.692C33.9973 258.62 34.2533 258.516 34.5173 258.38L35.1053 259.448C34.7613 259.664 34.3813 259.836 33.9653 259.964C33.5493 260.084 33.1413 260.144 32.7413 260.144ZM47.4439 260.144C46.9559 260.144 46.4919 260.06 46.0519 259.892C45.6199 259.724 45.2359 259.472 44.8999 259.136C44.5639 258.792 44.2999 258.372 44.1079 257.876C43.9159 257.372 43.8199 256.792 43.8199 256.136C43.8199 255.272 43.9839 254.536 44.3119 253.928C44.6479 253.312 45.0959 252.844 45.6559 252.524C46.2239 252.196 46.8559 252.032 47.5519 252.032C48.0479 252.032 48.4959 252.136 48.8959 252.344C49.2959 252.544 49.6279 252.772 49.8919 253.028L48.9199 254.12C48.7359 253.944 48.5319 253.808 48.3079 253.712C48.0919 253.608 47.8399 253.556 47.5519 253.556C47.1839 253.556 46.8559 253.66 46.5679 253.868C46.2799 254.068 46.0519 254.356 45.8839 254.732C45.7159 255.108 45.6319 255.556 45.6319 256.076C45.6319 256.612 45.7159 257.072 45.8839 257.456C46.0519 257.832 46.2839 258.12 46.5799 258.32C46.8839 258.52 47.2319 258.62 47.6239 258.62C47.9119 258.62 48.1719 258.556 48.4039 258.428C48.6359 258.3 48.8479 258.132 49.0399 257.924L50.0119 258.992C49.6919 259.368 49.3159 259.656 48.8839 259.856C48.4519 260.048 47.9719 260.144 47.4439 260.144ZM53.9672 260.144C53.4472 260.144 52.9552 260.024 52.4912 259.784C52.0272 259.536 51.6512 259.18 51.3632 258.716C51.0752 258.244 50.9312 257.68 50.9312 257.024C50.9312 256.368 51.0752 255.808 51.3632 255.344C51.6512 254.872 52.0272 254.516 52.4912 254.276C52.9552 254.028 53.4472 253.904 53.9672 253.904C54.4872 253.904 54.9792 254.028 55.4432 254.276C55.9072 254.516 56.2832 254.872 56.5712 255.344C56.8592 255.808 57.0032 256.368 57.0032 257.024C57.0032 257.68 56.8592 258.244 56.5712 258.716C56.2832 259.18 55.9072 259.536 55.4432 259.784C54.9792 260.024 54.4872 260.144 53.9672 260.144ZM53.9672 258.716C54.2392 258.716 54.4632 258.648 54.6392 258.512C54.8232 258.376 54.9592 258.18 55.0472 257.924C55.1432 257.668 55.1912 257.368 55.1912 257.024C55.1912 256.68 55.1432 256.38 55.0472 256.124C54.9592 255.868 54.8232 255.672 54.6392 255.536C54.4632 255.4 54.2392 255.332 53.9672 255.332C53.6952 255.332 53.4672 255.4 53.2832 255.536C53.1072 255.672 52.9712 255.868 52.8752 256.124C52.7872 256.38 52.7432 256.68 52.7432 257.024C52.7432 257.368 52.7872 257.668 52.8752 257.924C52.9712 258.18 53.1072 258.376 53.2832 258.512C53.4672 258.648 53.6952 258.716 53.9672 258.716ZM57.9825 260V254.048H59.3145L59.4345 254.78H59.4825C59.5945 254.54 59.7505 254.336 59.9505 254.168C60.1505 253.992 60.4225 253.904 60.7665 253.904C61.0225 253.904 61.2425 253.988 61.4265 254.156C61.6105 254.316 61.7345 254.556 61.7985 254.876C61.9105 254.604 62.0705 254.376 62.2785 254.192C62.4945 254 62.7745 253.904 63.1185 253.904C63.5425 253.904 63.8705 254.076 64.1025 254.42C64.3345 254.764 64.4505 255.232 64.4505 255.824V260H62.7705V255.944C62.7705 255.584 62.6625 255.404 62.4465 255.404C62.3345 255.404 62.2345 255.452 62.1465 255.548C62.0665 255.636 61.9865 255.78 61.9065 255.98V260H60.5265V255.944C60.5265 255.76 60.4985 255.624 60.4425 255.536C60.3865 255.448 60.3025 255.404 60.1905 255.404C60.0785 255.404 59.9825 255.452 59.9025 255.548C59.8225 255.636 59.7425 255.78 59.6625 255.98V260H57.9825ZM65.6218 262.208V254.048H67.0618L67.1938 254.648H67.2298C67.4778 254.432 67.7538 254.256 68.0578 254.12C68.3698 253.976 68.6858 253.904 69.0058 253.904C69.5018 253.904 69.9258 254.028 70.2778 254.276C70.6378 254.524 70.9138 254.876 71.1058 255.332C71.2978 255.788 71.3938 256.32 71.3938 256.928C71.3938 257.608 71.2698 258.188 71.0218 258.668C70.7818 259.148 70.4658 259.516 70.0738 259.772C69.6818 260.02 69.2618 260.144 68.8138 260.144C68.5498 260.144 68.2898 260.088 68.0338 259.976C67.7858 259.864 67.5578 259.704 67.3498 259.496H67.3018L67.3858 260.468V262.208H65.6218ZM68.4058 258.704C68.6298 258.704 68.8298 258.644 69.0058 258.524C69.1818 258.404 69.3218 258.216 69.4258 257.96C69.5298 257.696 69.5818 257.36 69.5818 256.952C69.5818 256.592 69.5418 256.296 69.4618 256.064C69.3818 255.824 69.2618 255.644 69.1018 255.524C68.9498 255.404 68.7458 255.344 68.4898 255.344C68.2978 255.344 68.1098 255.388 67.9258 255.476C67.7498 255.556 67.5698 255.696 67.3858 255.896V258.308C67.5538 258.444 67.7258 258.544 67.9018 258.608C68.0858 258.672 68.2538 258.704 68.4058 258.704ZM76.6931 260.144C75.9491 260.144 75.3851 259.92 75.0011 259.472C74.6171 259.024 74.4251 258.424 74.4251 257.672V252.98H72.5651V251.6H76.1891V257.744C76.1891 258.112 76.2891 258.368 76.4891 258.512C76.6891 258.648 76.9091 258.716 77.1491 258.716C77.2931 258.716 77.4371 258.7 77.5811 258.668C77.7331 258.636 77.9011 258.588 78.0851 258.524L78.4691 259.82C78.1651 259.916 77.8851 259.992 77.6291 260.048C77.3811 260.112 77.0691 260.144 76.6931 260.144ZM83.1084 260.144C82.4924 260.144 81.9324 260.024 81.4284 259.784C80.9324 259.536 80.5364 259.18 80.2404 258.716C79.9524 258.244 79.8084 257.68 79.8084 257.024C79.8084 256.376 79.9564 255.82 80.2524 255.356C80.5484 254.884 80.9324 254.524 81.4044 254.276C81.8764 254.028 82.3764 253.904 82.9044 253.904C83.5204 253.904 84.0364 254.032 84.4524 254.288C84.8684 254.536 85.1804 254.876 85.3884 255.308C85.6044 255.732 85.7124 256.216 85.7124 256.76C85.7124 256.92 85.7004 257.076 85.6764 257.228C85.6604 257.372 85.6444 257.48 85.6284 257.552H81.1164V256.364H84.4404L84.1644 256.7C84.1644 256.22 84.0604 255.86 83.8524 255.62C83.6524 255.372 83.3564 255.248 82.9644 255.248C82.6764 255.248 82.4244 255.312 82.2084 255.44C81.9924 255.568 81.8244 255.764 81.7044 256.028C81.5844 256.292 81.5244 256.624 81.5244 257.024C81.5244 257.432 81.5964 257.768 81.7404 258.032C81.8844 258.288 82.0924 258.48 82.3644 258.608C82.6364 258.736 82.9644 258.8 83.3484 258.8C83.6204 258.8 83.8764 258.764 84.1164 258.692C84.3644 258.62 84.6204 258.516 84.8844 258.38L85.4724 259.448C85.1284 259.664 84.7484 259.836 84.3324 259.964C83.9164 260.084 83.5084 260.144 83.1084 260.144ZM86.7878 260L88.8518 256.904L86.9198 254.048H88.8158L89.4277 255.008C89.5238 255.176 89.6278 255.348 89.7398 255.524C89.8518 255.692 89.9558 255.86 90.0518 256.028H90.0998C90.1718 255.86 90.2518 255.688 90.3398 255.512C90.4358 255.336 90.5198 255.168 90.5918 255.008L91.1198 254.048H92.9678L91.0238 257.108L93.0878 260H91.1918L90.5078 259.016C90.3958 258.848 90.2798 258.676 90.1598 258.5C90.0478 258.324 89.9358 258.152 89.8238 257.984H89.7758C89.6878 258.152 89.5958 258.324 89.4998 258.5C89.4038 258.668 89.3118 258.84 89.2238 259.016L88.6358 260H86.7878ZM96.8751 260V255.428H94.4751V254.048H98.6391V260H96.8751ZM97.6791 253.112C97.3431 253.112 97.0631 253.016 96.8391 252.824C96.6151 252.624 96.5031 252.364 96.5031 252.044C96.5031 251.716 96.6151 251.452 96.8391 251.252C97.0631 251.044 97.3431 250.94 97.6791 250.94C98.0231 250.94 98.3031 251.044 98.5191 251.252C98.7431 251.452 98.8551 251.716 98.8551 252.044C98.8551 252.364 98.7431 252.624 98.5191 252.824C98.3031 253.016 98.0231 253.112 97.6791 253.112ZM105.39 260.144C104.758 260.144 104.254 260.036 103.878 259.82C103.51 259.596 103.242 259.288 103.074 258.896C102.906 258.504 102.822 258.048 102.822 257.528V255.428H101.334V254.12L102.906 254.048L103.134 252.224H104.586V254.048H107.106V255.428H104.586V257.516C104.586 257.812 104.63 258.052 104.718 258.236C104.806 258.42 104.942 258.556 105.126 258.644C105.31 258.724 105.546 258.764 105.834 258.764C106.066 258.764 106.278 258.744 106.47 258.704C106.662 258.664 106.846 258.612 107.022 258.548L107.334 259.82C107.07 259.9 106.778 259.972 106.458 260.036C106.146 260.108 105.79 260.144 105.39 260.144ZM109.646 262.328C109.47 262.328 109.306 262.316 109.154 262.292C109.002 262.268 108.862 262.24 108.734 262.208L109.046 260.864C109.126 260.888 109.206 260.904 109.286 260.912C109.366 260.928 109.442 260.936 109.514 260.936C109.858 260.936 110.126 260.86 110.318 260.708C110.518 260.564 110.666 260.38 110.762 260.156L110.882 259.844L108.302 254.048H110.054L111.05 256.604C111.162 256.884 111.266 257.176 111.362 257.48C111.458 257.776 111.554 258.08 111.65 258.392H111.698C111.778 258.096 111.866 257.796 111.962 257.492C112.058 257.188 112.15 256.892 112.238 256.604L113.114 254.048H114.782L112.43 260.06C112.246 260.556 112.03 260.972 111.782 261.308C111.542 261.644 111.25 261.896 110.906 262.064C110.57 262.24 110.15 262.328 109.646 262.328ZM3.18164 286.877C3.18164 284.65 3.84375 282.254 5.16797 279.688C6.50391 277.109 8.16797 275.141 10.1602 273.781C12.1523 272.422 14.0801 271.742 15.9434 271.742C16.916 271.742 17.9883 272 19.1602 272.516C20.3438 273.031 21.3691 274.051 22.2363 275.574C23.1152 277.098 23.5547 278.949 23.5547 281.129C23.5547 284.926 22.2598 288.424 19.6699 291.623C17.0801 294.822 14.25 296.422 11.1797 296.422C8.89453 296.422 6.99023 295.59 5.4668 293.926C3.94336 292.262 3.18164 289.912 3.18164 286.877ZM6.32812 288.652C6.32812 290.316 6.48633 291.6 6.80273 292.502C7.11914 293.404 7.65234 294.154 8.40234 294.752C9.15234 295.35 10.0547 295.648 11.1094 295.648C12.7617 295.648 14.2969 294.834 15.7148 293.205C17.1445 291.576 18.3164 289.303 19.2305 286.385C20.1445 283.467 20.6016 280.977 20.6016 278.914C20.6016 276.805 20.1562 275.223 19.2656 274.168C18.3867 273.102 17.2559 272.568 15.873 272.568C14.2559 272.568 12.7266 273.348 11.2852 274.906C9.84375 276.465 8.6543 278.639 7.7168 281.428C6.79102 284.217 6.32812 286.625 6.32812 288.652ZM32.4316 304.596H31.2188C27.3047 299.732 25.3477 294.172 25.3477 287.914C25.3477 281.996 27.2402 276.67 31.0254 271.936H32.2383C30.375 273.986 28.9395 276.406 27.9316 279.195C26.9355 281.984 26.4375 284.85 26.4375 287.791C26.4375 291.436 27.0176 294.723 28.1777 297.652C29.3496 300.594 30.7676 302.908 32.4316 304.596ZM46.125 292.695H47.0215C46.3184 293.961 45.5977 294.91 44.8594 295.543C44.1328 296.176 43.3887 296.492 42.627 296.492C42.0996 296.492 41.6426 296.328 41.2559 296C40.8809 295.684 40.6934 295.209 40.6934 294.576C40.6934 294.049 40.9629 293.006 41.502 291.447L43.3828 286.086C43.8867 284.621 44.1387 283.672 44.1387 283.238C44.1387 282.852 44.0508 282.564 43.875 282.377C43.7109 282.189 43.4531 282.096 43.1016 282.096C42.2109 282.096 41.0449 283.145 39.6035 285.242C38.1738 287.328 36.9434 290.064 35.9121 293.451L35.0508 296.264H32.9062L36 286.279C36.5625 284.439 36.8438 283.385 36.8438 283.115C36.8438 282.916 36.8086 282.77 36.7383 282.676C36.668 282.582 36.5566 282.535 36.4043 282.535C35.7129 282.535 34.8926 283.391 33.9434 285.102H33.1348C34.5996 282.441 35.9883 281.111 37.3008 281.111C37.7578 281.111 38.0977 281.252 38.3203 281.533C38.5547 281.803 38.6719 282.219 38.6719 282.781C38.6719 283.789 38.2793 285.348 37.4941 287.457C39.6152 283.227 41.6777 281.111 43.6816 281.111C44.3262 281.111 44.8887 281.328 45.3691 281.762C45.8496 282.184 46.0898 282.805 46.0898 283.625C46.0898 284.152 45.8496 285.137 45.3691 286.578L43.4883 292.186C42.9844 293.697 42.7324 294.541 42.7324 294.717C42.7324 294.939 42.7852 295.109 42.8906 295.227C43.0078 295.332 43.1719 295.385 43.3828 295.385C43.7812 295.385 44.209 295.162 44.666 294.717C45.123 294.26 45.6094 293.586 46.125 292.695ZM53.1914 271.83V291.061C53.1914 292.596 53.209 293.562 53.2441 293.961C53.291 294.359 53.4609 294.664 53.7539 294.875C54.0469 295.086 54.5684 295.191 55.3184 295.191H55.7402V296H48.041V295.191H48.5332C49.2363 295.191 49.7344 295.098 50.0273 294.91C50.332 294.711 50.5137 294.436 50.5723 294.084C50.6309 293.732 50.6602 292.725 50.6602 291.061V276.822C50.6602 275.311 50.5254 274.361 50.2559 273.975C49.9863 273.576 49.3301 273.377 48.2871 273.377V272.568C49.002 272.568 49.8398 272.486 50.8008 272.322C51.7734 272.158 52.4414 271.994 52.8047 271.83H53.1914ZM57.6562 288.775C57.6562 286.572 58.3945 284.732 59.8711 283.256C61.3477 281.768 63.1641 281.023 65.3203 281.023C67.4883 281.023 69.3105 281.768 70.7871 283.256C72.2637 284.744 73.002 286.584 73.002 288.775C73.002 291.201 72.252 293.111 70.752 294.506C69.252 295.889 67.4414 296.58 65.3203 296.58C63.1992 296.58 61.3887 295.877 59.8887 294.471C58.4004 293.053 57.6562 291.154 57.6562 288.775ZM60.5742 288.863C60.5742 291.418 60.9902 293.211 61.8223 294.242C62.6543 295.262 63.8203 295.771 65.3203 295.771C66.8555 295.771 68.0273 295.262 68.8359 294.242C69.6562 293.211 70.0664 291.418 70.0664 288.863C70.0664 286.332 69.6621 284.527 68.8535 283.449C68.0449 282.371 66.8672 281.832 65.3203 281.832C63.7852 281.832 62.6074 282.371 61.7871 283.449C60.9785 284.516 60.5742 286.32 60.5742 288.863ZM86.6602 282.869C87.6562 281.744 88.6641 281.182 89.6836 281.182C90.2461 281.182 90.6797 281.334 90.9844 281.639C91.3008 281.943 91.459 282.277 91.459 282.641C91.459 283.414 91.1074 283.801 90.4043 283.801C90.0176 283.801 89.6836 283.561 89.4023 283.08C89.1445 282.635 88.875 282.412 88.5938 282.412C88.1484 282.412 87.6562 282.717 87.1172 283.326C87.7266 284.287 88.0312 285.307 88.0312 286.385C88.0312 287.791 87.5273 289.033 86.5195 290.111C85.5117 291.201 83.8125 291.787 81.4219 291.869C78.9375 291.951 77.6953 292.455 77.6953 293.381C77.6953 293.814 77.9766 294.119 78.5391 294.295C79.0898 294.482 80.25 294.623 82.0195 294.717C83.9531 294.811 85.4414 294.992 86.4844 295.262C87.5273 295.52 88.3594 296.047 88.9805 296.844C89.6016 297.641 89.9121 298.59 89.9121 299.691C89.9121 301.238 89.2793 302.486 88.0137 303.436C86.748 304.385 84.9258 304.859 82.5469 304.859C80.3672 304.859 78.6211 304.438 77.3086 303.594C75.9961 302.75 75.3398 301.684 75.3398 300.395C75.3398 299.68 75.5273 299.094 75.9023 298.637C76.2773 298.18 76.8105 297.951 77.502 297.951C77.6895 297.951 77.8594 297.98 78.0117 298.039C77.2852 298.836 76.9219 299.68 76.9219 300.57C76.9219 301.602 77.4023 302.451 78.3633 303.119C79.3359 303.799 80.7832 304.139 82.7051 304.139C84.416 304.139 85.7461 303.793 86.6953 303.102C87.6562 302.422 88.1367 301.549 88.1367 300.482C88.1367 299.311 87.709 298.484 86.8535 298.004C85.998 297.535 84.4746 297.254 82.2832 297.16C79.7637 297.055 78.1289 296.744 77.3789 296.229C76.6289 295.725 76.2539 295.074 76.2539 294.277C76.2539 292.742 77.3262 291.775 79.4707 291.377C78.3574 290.721 77.5195 289.971 76.957 289.127C76.3945 288.283 76.1133 287.34 76.1133 286.297C76.1133 284.832 76.6875 283.59 77.8359 282.57C78.9961 281.539 80.3672 281.023 81.9492 281.023C83.9062 281.023 85.4766 281.639 86.6602 282.869ZM78.75 286.701C78.75 288.213 79.0605 289.32 79.6816 290.023C80.3027 290.727 81.0938 291.078 82.0547 291.078C82.9453 291.078 83.707 290.732 84.3398 290.041C84.9844 289.338 85.3066 288.125 85.3066 286.402C85.3066 284.668 84.9668 283.473 84.2871 282.816C83.6074 282.16 82.8398 281.832 81.9844 281.832C80.9062 281.832 80.0977 282.236 79.5586 283.045C79.0195 283.854 78.75 285.072 78.75 286.701ZM105.047 292.695H105.943C105.24 293.961 104.52 294.91 103.781 295.543C103.055 296.176 102.311 296.492 101.549 296.492C101.021 296.492 100.564 296.328 100.178 296C99.8027 295.684 99.6152 295.209 99.6152 294.576C99.6152 294.049 99.8848 293.006 100.424 291.447L102.305 286.086C102.809 284.621 103.061 283.672 103.061 283.238C103.061 282.852 102.973 282.564 102.797 282.377C102.633 282.189 102.375 282.096 102.023 282.096C101.133 282.096 99.9668 283.145 98.5254 285.242C97.0957 287.328 95.8652 290.064 94.834 293.451L93.9727 296.264H91.8281L94.9219 286.279C95.4844 284.439 95.7656 283.385 95.7656 283.115C95.7656 282.916 95.7305 282.77 95.6602 282.676C95.5898 282.582 95.4785 282.535 95.3262 282.535C94.6348 282.535 93.8145 283.391 92.8652 285.102H92.0566C93.5215 282.441 94.9102 281.111 96.2227 281.111C96.6797 281.111 97.0195 281.252 97.2422 281.533C97.4766 281.803 97.5938 282.219 97.5938 282.781C97.5938 283.789 97.2012 285.348 96.416 287.457C98.5371 283.227 100.6 281.111 102.604 281.111C103.248 281.111 103.811 281.328 104.291 281.762C104.771 282.184 105.012 282.805 105.012 283.625C105.012 284.152 104.771 285.137 104.291 286.578L102.41 292.186C101.906 293.697 101.654 294.541 101.654 294.717C101.654 294.939 101.707 295.109 101.812 295.227C101.93 295.332 102.094 295.385 102.305 295.385C102.703 295.385 103.131 295.162 103.588 294.717C104.045 294.26 104.531 293.586 105.047 292.695ZM106.4 304.596C108.053 302.908 109.459 300.594 110.619 297.652C111.791 294.723 112.377 291.436 112.377 287.791C112.377 284.99 111.902 282.189 110.953 279.389C110.004 276.588 108.545 274.104 106.576 271.936H107.807C111.592 276.67 113.484 281.996 113.484 287.914C113.484 294.172 111.527 299.732 107.613 304.596H106.4Z" fill="white"/>
</svg>
